<?xml version="1.0" encoding="UTF-8"?>
<svg width="191px" height="28px" viewBox="0 0 191 36" version="1.1" xmlns="http://www.w3.org/2000/svg" xmlns:xlink="http://www.w3.org/1999/xlink">
    <!-- Generator: Sketch 60 (88103) - https://sketch.com -->
    <title>Accessories</title>
    <desc>Created with Sketch.</desc>
    <g id="web" stroke="none" stroke-width="1" fill="none" fill-rule="evenodd">
        <g id="Artboard" transform="translate(-1377.000000, -926.000000)" fill="#000000" fill-rule="nonzero">
            <path d="M1384.746,952.604 C1385.466,952.604 1385.826,952.1 1385.826,951.56 C1385.826,950.948 1385.286,950.516 1384.674,950.516 C1384.134,950.552 1383.918,950.552 1383.342,950.552 C1382.91,950.552 1382.694,950.336 1382.694,950.048 C1382.694,949.904 1384.134,945.224 1384.566,943.856 C1384.638,943.568 1384.746,943.352 1385.142,943.352 C1385.646,943.316 1387.914,943.316 1390.182,943.316 C1392.45,943.316 1394.718,943.316 1395.258,943.352 C1395.654,943.352 1395.762,943.532 1395.87,943.82 C1396.554,945.836 1397.382,948.176 1397.958,949.796 C1397.994,949.868 1397.994,949.94 1397.994,950.012 C1397.994,950.336 1397.742,950.552 1397.346,950.552 C1396.77,950.552 1396.518,950.516 1395.978,950.516 L1395.942,950.516 C1395.258,950.516 1394.898,951.056 1394.898,951.56 C1394.898,951.74 1394.934,952.64 1396.014,952.604 C1397.022,952.568 1398.138,952.532 1399.218,952.532 C1400.334,952.532 1401.414,952.568 1402.386,952.604 L1402.458,952.604 L1402.458,952.604 C1403.178,952.604 1403.538,952.1 1403.538,951.56 C1403.538,950.948 1402.998,950.516 1402.386,950.516 C1402.026,950.516 1401.81,950.552 1401.45,950.552 C1401.162,950.552 1400.622,950.552 1400.262,949.688 C1398.534,945.224 1394.682,934.244 1392.63,928.412 C1392.162,927.116 1391.118,926.432 1390.11,926.432 C1389.138,926.432 1388.166,927.044 1387.734,928.34 C1386.15,932.912 1382.514,943.136 1380.39,949.796 C1380.246,950.264 1379.85,950.552 1379.49,950.552 C1378.914,950.552 1378.734,950.516 1378.266,950.516 L1378.23,950.516 C1377.546,950.516 1377.222,951.02 1377.222,951.56 C1377.222,951.992 1377.51,952.64 1378.338,952.604 C1379.346,952.568 1380.498,952.532 1381.686,952.532 C1382.694,952.532 1383.702,952.568 1384.674,952.604 L1384.746,952.604 L1384.746,952.604 Z M1390.85874,941.479231 L1389.83203,941.479231 C1388.0699,941.473752 1386.38891,941.444 1385.898,941.444 C1385.61,941.444 1385.502,941.336 1385.502,941.192 C1385.502,940.724 1388.814,931.22 1389.39,929.636 C1389.606,929.06 1389.93,928.772 1390.218,928.772 C1390.506,928.772 1390.794,929.024 1390.938,929.492 C1391.514,931.292 1393.746,937.52 1394.862,940.904 C1394.898,941.012 1394.934,941.12 1394.934,941.192 C1394.934,941.336 1394.826,941.444 1394.574,941.444 C1394.21243,941.444 1392.59039,941.474011 1390.85874,941.479231 Z M1414.842,953 C1418.73,953 1421.43,950.588 1421.43,949.544 C1421.43,948.932 1420.89,948.428 1420.278,948.428 C1419.954,948.428 1419.63,948.572 1419.342,948.968 C1418.334,950.336 1416.57,951.056 1414.734,951.056 C1410.594,951.056 1408.47,947.636 1408.47,944.36 C1408.47,940.364 1411.206,937.556 1414.734,937.556 C1416.138,937.556 1417.506,937.988 1418.406,939.032 C1418.838,939.536 1418.73,939.968 1418.766,940.724 C1418.802,941.3 1419.306,941.588 1419.774,941.588 C1420.314,941.588 1420.818,941.3 1420.818,940.688 L1420.818,940.616 L1420.818,940.616 C1420.782,939.788 1420.782,939.212 1420.782,938.672 C1420.782,938.096 1420.782,937.556 1420.818,936.8 L1420.818,936.728 L1420.818,936.728 C1420.818,936.116 1420.314,935.828 1419.774,935.828 C1419.378,935.828 1418.946,936.008 1418.91,936.44 C1418.874,936.62 1418.838,936.836 1418.73,936.836 C1418.658,936.836 1418.622,936.8 1418.55,936.764 C1417.506,936.152 1416.03,935.684 1414.482,935.684 C1409.946,935.684 1406.382,939.464 1406.382,944.504 C1406.382,948.788 1409.298,953 1414.842,953 Z M1433.238,953 C1437.126,953 1439.826,950.588 1439.826,949.544 C1439.826,948.932 1439.286,948.428 1438.674,948.428 C1438.35,948.428 1438.026,948.572 1437.738,948.968 C1436.73,950.336 1434.966,951.056 1433.13,951.056 C1428.99,951.056 1426.866,947.636 1426.866,944.36 C1426.866,940.364 1429.602,937.556 1433.13,937.556 C1434.534,937.556 1435.902,937.988 1436.802,939.032 C1437.234,939.536 1437.126,939.968 1437.162,940.724 C1437.198,941.3 1437.702,941.588 1438.17,941.588 C1438.71,941.588 1439.214,941.3 1439.214,940.688 L1439.214,940.616 L1439.214,940.616 C1439.178,939.788 1439.178,939.212 1439.178,938.672 C1439.178,938.096 1439.178,937.556 1439.214,936.8 L1439.214,936.728 L1439.214,936.728 C1439.214,936.116 1438.71,935.828 1438.17,935.828 C1437.774,935.828 1437.342,936.008 1437.306,936.44 C1437.27,936.62 1437.234,936.836 1437.126,936.836 C1437.054,936.836 1437.018,936.8 1436.946,936.764 C1435.902,936.152 1434.426,935.684 1432.878,935.684 C1428.342,935.684 1424.778,939.464 1424.778,944.504 C1424.778,948.788 1427.694,953 1433.238,953 Z M1451.346,953.036 C1455.882,953.036 1458.402,950.3 1458.402,949.472 C1458.402,948.896 1457.862,948.428 1457.322,948.428 C1457.07,948.428 1456.818,948.536 1456.602,948.752 C1455.486,950.012 1454.01,951.128 1451.382,951.128 C1447.926,951.128 1445.334,948.716 1445.334,944.792 C1445.334,944.288 1445.406,944.144 1445.766,944.144 C1446.558,944.144 1449.618,944.18 1452.318,944.18 C1453.65,944.18 1454.874,944.18 1455.702,944.144 C1457.538,944.072 1458.33,943.064 1458.33,941.732 C1458.33,939.68 1456.17,935.828 1451.238,935.828 C1446.99,935.828 1443.21,939.284 1443.21,944.54 C1443.21,949.616 1446.774,953.036 1451.346,953.036 Z M1451.535,942.415438 L1448.58932,942.415022 C1445.86189,942.408991 1445.622,942.365767 1445.622,942.056 C1445.622,940.724 1447.818,937.628 1451.274,937.628 C1454.946,937.628 1456.206,940.328 1456.206,941.372 C1456.206,941.948 1455.882,942.344 1455.018,942.38 C1454.262,942.407 1452.939,942.41375 1451.535,942.415438 Z M1467.942,953.072 C1472.046,953.072 1473.63,950.408 1473.63,948.428 C1473.63,946.808 1472.658,945.116 1470.426,943.964 C1469.31,943.388 1467.582,942.668 1466.574,942.2 C1465.386,941.624 1464.81,940.688 1464.81,939.824 C1464.81,938.636 1465.854,937.52 1467.726,937.52 L1467.7886,937.520494 C1468.28811,937.528889 1471.146,937.68 1471.146,940.4 C1471.146,941.048 1471.65,941.336 1472.154,941.336 C1472.298,941.336 1473.054,941.228 1473.054,940.472 L1473.054,940.4 L1473.054,940.4 C1473.018,939.572 1473.018,939.032 1473.018,938.528 C1473.018,937.988 1473.018,937.484 1473.054,936.728 L1473.054,936.692 C1473.054,936.116 1472.622,935.828 1472.154,935.828 C1471.794,935.828 1471.434,936.008 1471.326,936.404 C1471.29,936.512 1471.326,936.836 1471.146,936.836 C1471.074,936.836 1471.002,936.836 1470.93,936.764 C1470.39,936.332 1469.058,935.792 1467.762,935.792 C1464.558,935.792 1462.866,937.844 1462.866,939.932 C1462.866,941.516 1463.802,943.1 1465.782,943.928 C1469.958,945.656 1471.542,946.52 1471.542,948.428 C1471.542,950.156 1469.778,951.2 1467.942,951.2 C1465.89,951.2 1464.09,950.012 1464.09,948.824 C1464.09,948.572 1464.162,948.392 1464.162,948.14 C1464.162,947.492 1463.694,947.168 1463.19,947.168 C1462.686,947.168 1462.182,947.492 1462.182,948.104 L1462.182,948.176 L1462.182,948.176 C1462.218,949.04 1462.254,949.58 1462.254,950.12 C1462.254,950.66 1462.218,951.2 1462.182,951.992 L1462.182,952.064 L1462.182,952.064 C1462.182,952.64 1462.65,952.928 1463.118,952.928 C1463.55,952.928 1463.982,952.82 1463.982,951.92 C1463.982,951.812 1464.018,951.74 1464.09,951.74 C1464.162,951.74 1464.27,951.812 1464.342,951.884 C1465.098,952.532 1466.394,953.072 1467.942,953.072 Z M1483.386,953.072 C1487.49,953.072 1489.074,950.408 1489.074,948.428 C1489.074,946.808 1488.102,945.116 1485.87,943.964 C1484.754,943.388 1483.026,942.668 1482.018,942.2 C1480.83,941.624 1480.254,940.688 1480.254,939.824 C1480.254,938.636 1481.298,937.52 1483.17,937.52 L1483.2326,937.520494 C1483.73211,937.528889 1486.59,937.68 1486.59,940.4 C1486.59,941.048 1487.094,941.336 1487.598,941.336 C1487.742,941.336 1488.498,941.228 1488.498,940.472 L1488.498,940.4 L1488.498,940.4 C1488.462,939.572 1488.462,939.032 1488.462,938.528 C1488.462,937.988 1488.462,937.484 1488.498,936.728 L1488.498,936.692 C1488.498,936.116 1488.066,935.828 1487.598,935.828 C1487.238,935.828 1486.878,936.008 1486.77,936.404 C1486.734,936.512 1486.77,936.836 1486.59,936.836 C1486.518,936.836 1486.446,936.836 1486.374,936.764 C1485.834,936.332 1484.502,935.792 1483.206,935.792 C1480.002,935.792 1478.31,937.844 1478.31,939.932 C1478.31,941.516 1479.246,943.1 1481.226,943.928 C1485.402,945.656 1486.986,946.52 1486.986,948.428 C1486.986,950.156 1485.222,951.2 1483.386,951.2 C1481.334,951.2 1479.534,950.012 1479.534,948.824 C1479.534,948.572 1479.606,948.392 1479.606,948.14 C1479.606,947.492 1479.138,947.168 1478.634,947.168 C1478.13,947.168 1477.626,947.492 1477.626,948.104 L1477.626,948.176 L1477.626,948.176 C1477.662,949.04 1477.698,949.58 1477.698,950.12 C1477.698,950.66 1477.662,951.2 1477.626,951.992 L1477.626,952.064 L1477.626,952.064 C1477.626,952.64 1478.094,952.928 1478.562,952.928 C1478.994,952.928 1479.426,952.82 1479.426,951.92 C1479.426,951.812 1479.462,951.74 1479.534,951.74 C1479.606,951.74 1479.714,951.812 1479.786,951.884 C1480.542,952.532 1481.838,953.072 1483.386,953.072 Z M1501.35,953.036 C1506.138,953.036 1509.738,949.58 1509.738,944.396 C1509.738,939.392 1506.138,935.792 1501.35,935.792 C1496.562,935.792 1493.034,939.392 1493.034,944.396 C1493.034,949.58 1496.562,953.036 1501.35,953.036 Z M1501.35,951.128 C1497.894,951.128 1495.122,948.428 1495.122,944.396 C1495.122,940.328 1497.894,937.664 1501.35,937.664 C1504.806,937.664 1507.614,940.328 1507.614,944.396 C1507.614,948.428 1504.806,951.128 1501.35,951.128 Z M1513.95,952.568 C1514.778,952.532 1515.75,952.496 1516.722,952.496 C1517.694,952.496 1518.738,952.532 1519.674,952.568 L1519.71,952.568 C1520.394,952.568 1520.754,952.064 1520.754,951.596 C1520.754,951.02 1520.286,950.588 1519.674,950.624 C1519.17,950.66 1519.026,950.66 1518.486,950.66 C1518.09,950.66 1517.874,950.372 1517.874,950.012 C1517.874,948.284 1517.838,946.664 1517.838,945.296 C1517.838,943.928 1517.874,942.812 1517.874,942.128 C1517.946,939.464 1520.646,937.844 1523.13,937.844 L1523.346,937.844 C1523.994,937.844 1524.354,937.34 1524.354,936.836 C1524.354,936.152 1523.85,935.792 1523.166,935.828 C1521.114,935.9 1519.026,936.728 1518.054,938.06 C1517.982,938.132 1517.91,938.168 1517.838,938.168 C1517.802,938.168 1517.73,938.168 1517.73,938.06 C1517.514,936.764 1516.326,936.152 1514.886,936.152 L1513.878,936.152 C1513.194,936.152 1512.87,936.656 1512.87,937.196 C1512.87,937.7 1513.194,938.204 1513.842,938.204 L1513.878,938.204 C1514.346,938.168 1514.31,938.168 1514.634,938.168 C1515.534,938.204 1515.822,938.852 1515.822,939.824 L1515.822,942.632 C1515.822,945.044 1515.786,947.24 1515.75,950.012 C1515.75,950.408 1515.534,950.66 1515.174,950.66 C1514.598,950.66 1514.418,950.624 1513.95,950.624 L1513.914,950.624 C1513.23,950.624 1512.87,951.128 1512.87,951.632 C1512.87,952.028 1513.122,952.604 1513.95,952.568 Z M1529.646,929.6 C1531.266,929.6 1531.446,928.16 1531.446,927.872 C1531.446,927.008 1530.798,926.18 1529.682,926.18 C1528.962,926.18 1527.954,926.72 1527.954,927.872 C1527.954,929.6 1529.466,929.6 1529.646,929.6 Z M1527.342,952.60415 C1528.206,952.568 1529.214,952.532 1530.222,952.532 C1531.23,952.532 1532.31,952.568 1533.282,952.60415 L1533.318,952.60415 C1534.038,952.60415 1534.398,952.1 1534.398,951.596 C1534.398,950.552 1533.426,950.588 1533.282,950.588 C1532.742,950.624 1532.598,950.624 1532.022,950.624 C1531.59,950.624 1531.374,950.3 1531.374,949.94 L1531.374,947.132 L1531.374,947.132 C1531.374,944.504 1531.41,941.768 1531.446,939.248 L1531.446,939.14 L1531.446,939.14 C1531.446,937.628 1530.762,936.188 1528.782,936.188 C1527.954,936.188 1528.062,936.152 1527.378,936.152 C1526.694,936.152 1526.334,936.692 1526.334,937.232 C1526.334,937.7 1526.658,938.204 1527.306,938.204 L1527.378,938.204 L1527.378,938.204 C1527.666,938.204 1527.846,938.168 1528.134,938.168 C1528.998,938.204 1529.358,938.78 1529.358,939.824 C1529.358,942.956 1529.322,946.484 1529.286,949.904 C1529.286,950.372 1529.07,950.624 1528.638,950.624 C1528.026,950.624 1527.81,950.588 1527.342,950.588 L1527.306,950.588 C1526.586,950.588 1526.226,951.092 1526.226,951.596 C1526.226,952.64 1527.198,952.60415 1527.342,952.60415 Z M1545.378,953.036 C1549.914,953.036 1552.434,950.3 1552.434,949.472 C1552.434,948.896 1551.894,948.428 1551.354,948.428 C1551.102,948.428 1550.85,948.536 1550.634,948.752 C1549.518,950.012 1548.042,951.128 1545.414,951.128 C1541.958,951.128 1539.366,948.716 1539.366,944.792 C1539.366,944.288 1539.438,944.144 1539.798,944.144 C1540.59,944.144 1543.65,944.18 1546.35,944.18 C1547.682,944.18 1548.906,944.18 1549.734,944.144 C1551.57,944.072 1552.362,943.064 1552.362,941.732 C1552.362,939.68 1550.202,935.828 1545.27,935.828 C1541.022,935.828 1537.242,939.284 1537.242,944.54 C1537.242,949.616 1540.806,953.036 1545.378,953.036 Z M1545.567,942.415438 L1542.62132,942.415022 C1539.89389,942.408991 1539.654,942.365767 1539.654,942.056 C1539.654,940.724 1541.85,937.628 1545.306,937.628 C1548.978,937.628 1550.238,940.328 1550.238,941.372 C1550.238,941.948 1549.914,942.344 1549.05,942.38 C1548.294,942.407 1546.971,942.41375 1545.567,942.415438 Z M1561.974,953.072 C1566.078,953.072 1567.662,950.408 1567.662,948.428 C1567.662,946.808 1566.69,945.116 1564.458,943.964 C1563.342,943.388 1561.614,942.668 1560.606,942.2 C1559.418,941.624 1558.842,940.688 1558.842,939.824 C1558.842,938.636 1559.886,937.52 1561.758,937.52 L1561.8206,937.520494 C1562.32011,937.528889 1565.178,937.68 1565.178,940.4 C1565.178,941.048 1565.682,941.336 1566.186,941.336 C1566.33,941.336 1567.086,941.228 1567.086,940.472 L1567.086,940.4 L1567.086,940.4 C1567.058,939.756 1567.05178,939.286222 1567.0504,938.872099 L1567.05056,938.12525 C1567.05225,937.72025 1567.059,937.295 1567.086,936.728 L1567.086,936.692 C1567.086,936.116 1566.654,935.828 1566.186,935.828 C1565.826,935.828 1565.466,936.008 1565.358,936.404 C1565.322,936.512 1565.358,936.836 1565.178,936.836 C1565.106,936.836 1565.034,936.836 1564.962,936.764 C1564.422,936.332 1563.09,935.792 1561.794,935.792 C1558.59,935.792 1556.898,937.844 1556.898,939.932 C1556.898,941.516 1557.834,943.1 1559.814,943.928 C1563.99,945.656 1565.574,946.52 1565.574,948.428 C1565.574,950.156 1563.81,951.2 1561.974,951.2 C1559.922,951.2 1558.122,950.012 1558.122,948.824 C1558.122,948.572 1558.194,948.392 1558.194,948.14 C1558.194,947.492 1557.726,947.168 1557.222,947.168 C1556.718,947.168 1556.214,947.492 1556.214,948.104 L1556.214,948.176 L1556.214,948.176 C1556.25,949.04 1556.286,949.58 1556.286,950.12 C1556.286,950.66 1556.25,951.2 1556.214,951.992 L1556.214,952.064 L1556.214,952.064 C1556.214,952.64 1556.682,952.928 1557.15,952.928 C1557.582,952.928 1558.014,952.82 1558.014,951.92 C1558.014,951.812 1558.05,951.74 1558.122,951.74 C1558.194,951.74 1558.302,951.812 1558.374,951.884 C1559.13,952.532 1560.426,953.072 1561.974,953.072 Z" id="Accessories"></path>
        </g>
    </g>
</svg>
