<svg width="25px" height="25px" viewBox="0 0 25 25" version="1.1" xmlns="http://www.w3.org/2000/svg" xmlns:xlink="http://www.w3.org/1999/xlink">
    <g id="Symbols" stroke="none" stroke-width="1" fill="none" fill-rule="evenodd">
        <g id="Header" transform="translate(-1330.000000, -45.000000)" fill="#000000" fill-rule="nonzero">
            <g id="Group-3">
                <g id="shopping-basket-button" transform="translate(1330.000000, 45.000000)">
                    <path d="M18.5746403,9.16623975 L13.5296763,0.544313525 C13.3003147,0.283043033 12.9563849,0.021772541 12.6124101,0.021772541 C12.2684353,0.021772541 11.9244604,0.152407787 11.6951439,0.544313525 L6.65017986,9.16623975 L1.14658273,9.16623975 C0.458633094,9.16623975 0,9.68878074 0,10.4725922 C0,10.6032275 0,10.7338627 0,10.864498 L2.86645683,23.0135758 C3.09577338,24.0586578 4.01303957,24.9731045 5.04496403,24.9731045 L19.9505396,24.9731045 C20.982464,24.9731045 21.8997302,24.189293 22.1290468,23.0135758 L24.9955036,10.864498 C24.9955036,10.7338627 24.9955036,10.6032275 24.9955036,10.4725922 C24.9955036,9.68878074 24.5368705,9.16623975 23.8489209,9.16623975 L18.5746403,9.16623975 Z M9.17266187,9.16623975 L12.6124101,3.41828893 L16.0521583,9.16623975 L9.17266187,9.16623975 Z" id="Shape"></path>
                </g>
            </g>
        </g>
    </g>
</svg>
