<?xml version="1.0" encoding="UTF-8"?>
<svg width="138px" height="36px" viewBox="0 0 138 36" version="1.1" xmlns="http://www.w3.org/2000/svg" xmlns:xlink="http://www.w3.org/1999/xlink">
    <!-- Generator: Sketch 60 (88103) - https://sketch.com -->
    <title>Bouquet</title>
    <desc>Created with Sketch.</desc>
    <g id="web" stroke="none" stroke-width="1" fill="none" fill-rule="evenodd">
        <g id="Artboard" transform="translate(-1404.000000, -218.000000)" fill="#000000" fill-rule="nonzero">
            <path d="M1405.374,244.604 C1406.49,244.532 1407.462,244.532 1408.398,244.532 C1410.378,244.532 1412.07,244.604 1413.87,244.604 C1414.698,244.604 1415.598,244.604 1416.534,244.532 C1422.222,244.136 1424.742,240.572 1424.742,237.08 C1424.742,233.876 1422.582,230.78 1418.802,230.384 C1418.514,230.348 1418.37,230.312 1418.37,230.276 C1418.37,230.24 1418.514,230.168 1418.802,230.132 C1421.358,229.664 1423.05,227.18 1423.05,224.588 C1423.05,221.312 1420.278,218.9 1415.562,218.648 C1414.878,218.612 1414.23,218.612 1413.654,218.612 C1411.854,218.612 1410.234,218.72 1408.146,218.72 C1407.354,218.72 1406.454,218.684 1405.446,218.648 L1405.374,218.648 L1405.374,218.648 C1404.654,218.648 1404.294,219.152 1404.294,219.656 C1404.33,220.268 1404.87,220.664 1405.446,220.664 C1405.914,220.664 1406.202,220.628 1406.778,220.628 C1407.138,220.628 1407.462,220.844 1407.462,221.384 C1407.48733,222.828 1407.49484,225.234667 1407.49706,227.939113 L1407.49712,234.232821 C1407.49417,237.259148 1407.48138,240.034769 1407.426,241.724 C1407.426,242.156 1407.138,242.552 1406.742,242.552 C1406.166,242.552 1405.842,242.516 1405.374,242.516 L1405.338,242.516 C1404.618,242.516 1404.222,243.056 1404.258,243.56 C1404.222,244.208 1404.762,244.64 1405.374,244.604 Z M1413.96782,229.55516 L1412.3904,229.55527 C1411.60408,229.553322 1410.88527,229.546182 1410.414,229.52 C1410.054,229.52 1409.586,229.412 1409.586,228.836 C1409.622,227.756 1409.622,226.1 1409.622,224.624 L1409.622,221.384 L1409.622,221.384 C1409.658,220.556 1410.126,220.52 1412.214,220.52 C1413.222,220.52 1414.194,220.556 1415.166,220.592 C1419.09,220.628 1420.854,222.644 1420.854,224.732 C1420.854,226.964 1418.874,229.304 1415.454,229.52 C1415.04257,229.545714 1414.52094,229.553061 1413.96782,229.55516 Z M1414.05,242.732 L1413.49462,242.731106 C1409.69386,242.717991 1409.6908,242.5544 1409.622,241.832 C1409.58825,241.292 1409.5545,240.087547 1409.55041,238.663587 L1409.55,238.376 C1409.55,236.288 1409.586,233.84 1409.586,232.256 C1409.586,231.716 1409.838,231.464 1410.378,231.464 C1411.458,231.428 1412.79,231.392 1414.158,231.392 C1415.022,231.392 1415.85,231.428 1416.642,231.464 C1420.206,231.644 1422.438,233.876 1422.438,236.972 C1422.438,239.672 1420.386,242.408 1416.462,242.66 C1415.67,242.696 1414.878,242.732 1414.05,242.732 Z M1436.586,245.036 C1441.374,245.036 1444.974,241.58 1444.974,236.396 C1444.974,231.392 1441.374,227.792 1436.586,227.792 C1431.798,227.792 1428.27,231.392 1428.27,236.396 C1428.27,241.58 1431.798,245.036 1436.586,245.036 Z M1436.586,243.128 C1433.13,243.128 1430.358,240.428 1430.358,236.396 C1430.358,232.328 1433.13,229.664 1436.586,229.664 C1440.042,229.664 1442.85,232.328 1442.85,236.396 C1442.85,240.428 1440.042,243.128 1436.586,243.128 Z M1456.53,245.072 C1458.69,245.072 1460.85,244.172 1462.038,242.588 C1462.11,242.516 1462.146,242.48 1462.218,242.48 C1462.254,242.48 1462.326,242.516 1462.326,242.588 C1462.722,244.244 1463.694,244.64 1465.242,244.712 C1465.638,244.712 1465.746,244.676 1466.07,244.676 C1466.718,244.64 1467.042,244.136 1467.042,243.632 C1467.042,243.092 1466.718,242.588 1466.106,242.588 L1466.07,242.588 C1465.89,242.588 1465.71,242.624 1465.458,242.624 C1464.24353,242.525529 1464.13637,241.439457 1464.12692,238.574468 L1464.126,237.692 C1464.126,235.64 1464.162,233.516 1464.198,230.888 C1464.198,228.98 1462.794,228.152 1461.174,228.152 L1460.274,228.152 C1459.554,228.152 1459.23,228.656 1459.23,229.16 C1459.23,229.664 1459.554,230.168 1460.238,230.168 C1460.706,230.168 1460.634,230.132 1460.958,230.132 C1461.858,230.168 1462.11,230.816 1462.11,231.752 L1462.11,238.376 L1462.11,238.376 C1462.002,241.328 1459.302,243.2 1456.782,243.2 C1454.766,243.2 1452.858,241.94 1452.678,238.988 C1452.642,238.304 1452.606,236.648 1452.606,234.812 C1452.606,233.516 1452.642,232.112 1452.642,230.924 C1452.642,229.16 1451.526,228.152 1449.654,228.152 L1448.718,228.152 C1448.034,228.152 1447.674,228.692 1447.674,229.196 C1447.674,229.7 1447.998,230.168 1448.682,230.168 L1448.718,230.168 C1449.078,230.168 1449.114,230.132 1449.294,230.132 C1449.798,230.132 1450.554,230.24 1450.554,231.752 L1450.55484,233.389391 C1450.56025,238.395041 1450.59,239.010909 1450.59,239.24 C1450.698,243.344 1453.578,245.072 1456.53,245.072 Z M1482.414,253.856 C1483.278,253.82 1484.466,253.82 1485.69,253.82 C1486.554,253.82 1487.418,253.82 1488.138,253.856 L1488.21,253.856 L1488.21,253.856 C1488.858,253.856 1489.182,253.388 1489.146,252.884 C1489.182,251.912 1488.354,251.912 1488.138,251.912 C1487.598,251.948 1487.706,251.948 1487.13,251.948 C1486.554,251.948 1486.338,251.624 1486.338,251.084 C1486.302,248.852 1486.302,247.376 1486.302,232.256 C1486.302,230.816 1486.878,230.276 1487.634,230.24 L1488.246,230.24 C1488.858,230.24 1489.146,229.736 1489.146,229.232 C1489.146,228.368 1488.426,228.152 1487.598,228.152 C1486.806,228.152 1484.61,228.476 1484.43,230.78 C1484.394,231.032 1484.358,231.14 1484.322,231.14 C1484.214,231.14 1484.07,230.816 1483.962,230.636 C1482.666,228.908 1480.326,227.9 1478.058,227.9 C1473.378,227.9 1469.886,231.428 1469.886,236.504 C1469.886,241.652 1473.378,245.036 1478.058,245.036 C1480.326,245.036 1482.666,243.992 1484.178,241.796 C1484.25,241.688 1484.286,241.652 1484.322,241.652 C1484.358,241.652 1484.358,241.796 1484.358,242.048 C1484.358,243.128 1484.322,247.88 1484.286,251.12 C1484.286,251.588 1484.106,251.912 1483.494,251.912 C1482.918,251.912 1482.81,251.876 1482.378,251.876 L1482.342,251.876 C1481.73,251.876 1481.406,252.38 1481.406,252.884 C1481.406,253.352 1481.73,253.856 1482.378,253.856 L1482.414,253.856 Z M1478.13,243.128 C1474.53,243.128 1472.046,240.608 1472.046,236.504 C1472.046,232.4 1474.494,229.844 1478.13,229.844 C1481.55,229.844 1484.25,232.472 1484.25,236.504 C1484.25,240.536 1481.514,243.128 1478.13,243.128 Z M1499.73,245.072 C1501.89,245.072 1504.05,244.172 1505.238,242.588 C1505.31,242.516 1505.346,242.48 1505.418,242.48 C1505.454,242.48 1505.526,242.516 1505.526,242.588 C1505.922,244.244 1506.894,244.64 1508.442,244.712 C1508.838,244.712 1508.946,244.676 1509.27,244.676 C1509.918,244.64 1510.242,244.136 1510.242,243.632 C1510.242,243.092 1509.918,242.588 1509.306,242.588 L1509.27,242.588 C1509.09,242.588 1508.91,242.624 1508.658,242.624 C1507.44353,242.525529 1507.33637,241.439457 1507.32692,238.574468 L1507.326,237.692 C1507.326,235.64 1507.362,233.516 1507.398,230.888 C1507.398,228.98 1505.994,228.152 1504.374,228.152 L1503.474,228.152 C1502.754,228.152 1502.43,228.656 1502.43,229.16 C1502.43,229.664 1502.754,230.168 1503.438,230.168 C1503.906,230.168 1503.834,230.132 1504.158,230.132 C1505.058,230.168 1505.31,230.816 1505.31,231.752 L1505.31,238.376 L1505.31,238.376 C1505.202,241.328 1502.502,243.2 1499.982,243.2 C1497.966,243.2 1496.058,241.94 1495.878,238.988 C1495.842,238.304 1495.806,236.648 1495.806,234.812 C1495.806,233.516 1495.842,232.112 1495.842,230.924 C1495.842,229.16 1494.726,228.152 1492.854,228.152 L1491.918,228.152 C1491.234,228.152 1490.874,228.692 1490.874,229.196 C1490.874,229.7 1491.198,230.168 1491.882,230.168 L1491.918,230.168 C1492.278,230.168 1492.314,230.132 1492.494,230.132 C1492.998,230.132 1493.754,230.24 1493.754,231.752 L1493.75484,233.389391 C1493.76025,238.395041 1493.79,239.010909 1493.79,239.24 C1493.898,243.344 1496.778,245.072 1499.73,245.072 Z M1521.258,245.036 C1525.794,245.036 1528.314,242.3 1528.314,241.472 C1528.314,240.896 1527.774,240.428 1527.234,240.428 C1526.982,240.428 1526.73,240.536 1526.514,240.752 C1525.398,242.012 1523.922,243.128 1521.294,243.128 C1517.838,243.128 1515.246,240.716 1515.246,236.792 C1515.246,236.288 1515.318,236.144 1515.678,236.144 C1516.47,236.144 1519.53,236.18 1522.23,236.18 C1523.562,236.18 1524.786,236.18 1525.614,236.144 C1527.45,236.072 1528.242,235.064 1528.242,233.732 C1528.242,231.68 1526.082,227.828 1521.15,227.828 C1516.902,227.828 1513.122,231.284 1513.122,236.54 C1513.122,241.616 1516.686,245.036 1521.258,245.036 Z M1521.447,234.415437 L1518.50132,234.415022 C1515.77389,234.408991 1515.534,234.365767 1515.534,234.056 C1515.534,232.724 1517.73,229.628 1521.186,229.628 C1524.858,229.628 1526.118,232.328 1526.118,233.372 C1526.118,233.948 1525.794,234.344 1524.93,234.38 C1524.174,234.407 1522.851,234.41375 1521.447,234.415437 Z M1539.042,245.036 C1540.482,245.036 1541.346,244.856 1541.346,243.92 C1541.346,243.452 1541.022,242.984 1540.482,242.984 L1540.338,242.984 L1540.338,242.984 C1539.978,243.02 1539.654,243.056 1539.33,243.056 C1536.666,243.056 1536.46458,241.338675 1536.45093,238.764763 L1536.45,238.34 C1536.45,235.676 1536.558,231.968 1536.558,230.6 C1536.558,230.168 1536.558,230.096 1537.134,230.096 L1540.302,230.096 C1540.986,230.096 1541.31,229.628 1541.31,229.124 C1541.31,228.656 1540.986,228.188 1540.302,228.188 L1537.098,228.188 C1536.63,228.188 1536.558,228.188 1536.558,227.792 C1536.558,227.792 1536.63,224.912 1536.63,223.868 C1536.63,223.112 1536.126,222.752 1535.586,222.752 C1535.082,222.752 1534.542,223.112 1534.542,223.796 L1534.542,224.696 L1534.542,224.696 C1534.542,225.956 1534.506,227.684 1534.506,227.828 C1534.506,228.152 1534.434,228.188 1534.11,228.188 L1532.022,228.188 C1531.338,228.188 1531.014,228.656 1531.014,229.124 C1531.014,229.628 1531.338,230.096 1532.022,230.096 L1534.146,230.096 C1534.398,230.096 1534.506,230.132 1534.506,230.492 L1534.506,231.068 L1534.506,231.068 C1534.506,232.755304 1534.44012,236.847055 1534.4344,239.216025 L1534.43494,239.830545 C1534.44994,241.560069 1534.70506,245.036 1539.042,245.036 Z" id="Bouquet"></path>
        </g>
    </g>
</svg>