<?xml version="1.0" encoding="UTF-8"?>
<svg width="128px" height="28px" viewBox="0 0 128 35" version="1.1" xmlns="http://www.w3.org/2000/svg" xmlns:xlink="http://www.w3.org/1999/xlink">
    <!-- Generator: Sketch 60 (88103) - https://sketch.com -->
    <title>Contact</title>
    <desc>Created with Sketch.</desc>
    <g id="web" stroke="none" stroke-width="1" fill="none" fill-rule="evenodd">
        <path d="M13.406,27 C19.742,27 23.846,23.076 23.846,21.852 C23.846,21.168 23.198,20.556 22.55,20.556 C22.19,20.556 21.794,20.736 21.506,21.132 C19.742,23.508 16.538,24.804 13.334,24.804 C6.17,24.804 2.75,19.008 2.75,13.644 C2.75,7.884 6.674,2.304 13.442,2.304 C15.926,2.304 18.374,3.132 20.066,4.896 C20.534,5.364 20.534,6.408 20.534,6.948 C20.534,7.632 21.074,7.956 21.614,7.956 C22.118,7.956 22.658,7.632 22.658,6.912 L22.658,6.84 L22.658,6.84 C22.622,5.832 22.586,5.004 22.586,4.176 C22.586,3.348 22.622,2.556 22.658,1.62 L22.658,1.548 L22.658,1.548 C22.658,0.9 22.118,0.576 21.578,0.576 C20.678,0.576 20.57,1.152 20.57,1.908 C20.57,2.412 20.39,2.34 20.318,2.268 C18.374,0.9 15.962,0.252 13.514,0.252 C5.162,0.252 0.446,6.984 0.446,13.86 C0.446,21.168 5.45,27 13.406,27 Z M35.402,27.036 C40.19,27.036 43.79,23.58 43.79,18.396 C43.79,13.392 40.19,9.792 35.402,9.792 C30.614,9.792 27.086,13.392 27.086,18.396 C27.086,23.58 30.614,27.036 35.402,27.036 Z M35.402,25.128 C31.946,25.128 29.174,22.428 29.174,18.396 C29.174,14.328 31.946,11.664 35.402,11.664 C38.858,11.664 41.666,14.328 41.666,18.396 C41.666,22.428 38.858,25.128 35.402,25.128 Z M47.786,26.568 C48.614,26.532 49.514,26.496 50.414,26.496 C51.314,26.496 52.286,26.532 53.222,26.568 L53.258,26.568 C53.942,26.568 54.302,26.064 54.302,25.596 C54.302,25.02 53.87,24.588 53.222,24.624 C52.718,24.66 52.79,24.66 52.25,24.66 C51.818,24.66 51.602,24.444 51.602,24.048 C51.602,22.356 51.566,20.808 51.566,19.476 C51.566,18.18 51.602,17.1 51.602,16.416 C51.71,13.572 54.482,11.664 57.002,11.664 C59.018,11.664 60.926,12.888 61.106,15.876 C61.1336923,16.2636923 61.1400828,16.9496095 61.1415576,17.8026636 L61.1411603,20.1328163 C61.1390612,21.4442449 61.1317143,22.8291429 61.106,24.012 C61.106,24.408 60.926,24.66 60.566,24.66 C59.99,24.66 59.918,24.624 59.486,24.624 L59.45,24.624 C58.766,24.624 58.406,25.128 58.406,25.632 C58.406,26.028 58.658,26.604 59.486,26.568 C60.314,26.532 61.178,26.496 62.078,26.496 C63.014,26.496 63.95,26.532 64.886,26.568 L64.922,26.568 C65.606,26.568 65.966,26.1 65.966,25.596 C65.966,25.092 65.606,24.624 64.922,24.624 L64.886,24.624 C64.382,24.624 64.382,24.66 63.842,24.66 C63.446,24.66 63.266,24.408 63.266,24.012 L63.265207,21.6010563 C63.2597391,19.1919471 63.2268696,16.6366957 63.194,15.552 C63.05,11.628 60.17,9.792 57.182,9.792 C55.166,9.792 53.114,10.62 51.854,12.24 C51.782,12.312 51.71,12.348 51.674,12.348 C51.566,12.348 51.53,12.276 51.494,12.168 C51.314,10.836 50.09,10.152 48.65,10.152 L47.606,10.152 C46.922,10.152 46.562,10.692 46.562,11.196 C46.562,11.7 46.886,12.204 47.534,12.204 L47.606,12.204 L47.606,12.204 C48.074,12.168 48.038,12.168 48.362,12.168 C49.226,12.204 49.55,12.852 49.55,13.788 C49.55,15.336 49.586,16.704 49.586,18.036 C49.586,19.908 49.55,21.78 49.514,24.048 C49.514,24.444 49.262,24.66 48.902,24.66 C48.326,24.66 48.218,24.624 47.786,24.624 L47.75,24.624 C47.066,24.624 46.706,25.128 46.706,25.632 C46.706,26.028 46.958,26.604 47.786,26.568 Z M75.614,27.036 C77.054,27.036 77.918,26.856 77.918,25.92 C77.918,25.452 77.594,24.984 77.054,24.984 L76.91,24.984 L76.91,24.984 C76.55,25.02 76.226,25.056 75.902,25.056 C73.094,25.056 73.022,23.148 73.022,20.34 C73.022,17.676 73.13,13.968 73.13,12.6 C73.13,12.168 73.13,12.096 73.706,12.096 L76.874,12.096 C77.558,12.096 77.882,11.628 77.882,11.124 C77.882,10.656 77.558,10.188 76.874,10.188 L73.67,10.188 C73.202,10.188 73.13,10.188 73.13,9.792 C73.13,9.792 73.202,6.912 73.202,5.868 C73.202,5.112 72.698,4.752 72.158,4.752 C71.654,4.752 71.114,5.112 71.114,5.796 L71.1130826,7.0669621 C71.1074694,8.27077551 71.078,9.69771429 71.078,9.828 C71.078,10.152 71.006,10.188 70.682,10.188 L68.594,10.188 C67.91,10.188 67.586,10.656 67.586,11.124 C67.586,11.628 67.91,12.096 68.594,12.096 L70.718,12.096 C70.97,12.096 71.078,12.132 71.078,12.492 L71.078,13.068 C71.078,14.832 71.006,19.224 71.006,21.528 C71.006,23.112 71.006,27.036 75.614,27.036 Z M87.206,27.036 C89.294,27.036 91.598,25.992 92.678,24.264 C92.714,24.192 92.786,24.156 92.822,24.156 C92.894,24.156 92.93,24.228 92.966,24.336 C93.29,25.668 94.586,26.64 95.63,26.64 C96.242,26.64 96.602,26.136 96.602,25.632 C96.602,25.272 96.422,24.876 95.99,24.732 C94.55,24.228 94.298,23.364 94.298,20.736 C94.298,19.368 94.37,17.496 94.478,16.308 C94.514,15.948 94.514,15.624 94.514,15.3 C94.514,11.268 92.246,9.792 88.898,9.792 C85.802,9.792 82.778,11.34 82.778,12.708 C82.778,13.284 83.246,13.68 83.786,13.68 C84.038,13.68 84.326,13.572 84.542,13.32 C85.37,12.42 86.81,11.592 88.754,11.592 C91.67,11.592 92.498,13.14 92.498,15.12 C92.498,15.3 92.462,15.516 92.462,15.696 C92.462,15.948 92.318,16.056 91.886,16.128 C90.374,16.38 87.458,16.92 85.226,17.604 C82.562,18.432 81.374,20.268 81.374,22.068 C81.374,24.552 83.57,27.036 87.206,27.036 Z M87.17,25.128 C84.758,25.128 83.318,23.616 83.318,22.104 C83.318,19.584 86.306,18.864 91.958,17.964 L92.066,17.964 L92.066,17.964 C92.318,17.964 92.426,18.072 92.426,18.36 L92.426,18.828 L92.426,18.828 C92.426,24.372 89.006,25.128 87.17,25.128 Z M108.41,27 C112.298,27 114.998,24.588 114.998,23.544 C114.998,22.932 114.458,22.428 113.846,22.428 C113.522,22.428 113.198,22.572 112.91,22.968 C111.902,24.336 110.138,25.056 108.302,25.056 C104.162,25.056 102.038,21.636 102.038,18.36 C102.038,14.364 104.774,11.556 108.302,11.556 C109.706,11.556 111.074,11.988 111.974,13.032 C112.406,13.536 112.298,13.968 112.334,14.724 C112.37,15.3 112.874,15.588 113.342,15.588 C113.882,15.588 114.386,15.3 114.386,14.688 L114.386,14.616 L114.386,14.616 C114.359,13.995 114.35225,13.51575 114.350562,13.087125 L114.35084,12.1812245 C114.352939,11.7697959 114.360286,11.34 114.386,10.8 L114.386,10.728 L114.386,10.728 C114.386,10.116 113.882,9.828 113.342,9.828 C112.946,9.828 112.514,10.008 112.478,10.44 C112.442,10.62 112.406,10.836 112.298,10.836 C112.226,10.836 112.19,10.8 112.118,10.764 C111.074,10.152 109.598,9.684 108.05,9.684 C103.514,9.684 99.95,13.464 99.95,18.504 C99.95,22.788 102.866,27 108.41,27 Z M125.258,27.036 C126.698,27.036 127.562,26.856 127.562,25.92 C127.562,25.452 127.238,24.984 126.698,24.984 L126.554,24.984 L126.554,24.984 C126.194,25.02 125.87,25.056 125.546,25.056 C122.882,25.056 122.68058,23.3386746 122.666927,20.7647635 L122.666,20.34 C122.666,17.676 122.774,13.968 122.774,12.6 C122.774,12.168 122.774,12.096 123.35,12.096 L126.518,12.096 C127.202,12.096 127.526,11.628 127.526,11.124 C127.526,10.656 127.202,10.188 126.518,10.188 L123.314,10.188 C122.846,10.188 122.774,10.188 122.774,9.792 C122.774,9.792 122.846,6.912 122.846,5.868 C122.846,5.112 122.342,4.752 121.802,4.752 C121.298,4.752 120.758,5.112 120.758,5.796 L120.758,6.696 L120.758,6.696 C120.758,7.956 120.722,9.684 120.722,9.828 C120.722,10.152 120.65,10.188 120.326,10.188 L118.238,10.188 C117.554,10.188 117.23,10.656 117.23,11.124 C117.23,11.628 117.554,12.096 118.238,12.096 L120.362,12.096 C120.614,12.096 120.722,12.132 120.722,12.492 L120.722,13.068 L120.722,13.068 C120.722,14.832 120.65,19.224 120.65,21.528 C120.65,23.112 120.65,27.036 125.258,27.036 Z" id="Contact" fill="#000000" fill-rule="nonzero"></path>
    </g>
</svg>
