<?xml version="1.0" encoding="UTF-8"?>
<svg width="30px" height="30px" viewBox="0 0 30 37" version="1.1" xmlns="http://www.w3.org/2000/svg" xmlns:xlink="http://www.w3.org/1999/xlink">
    <!-- Generator: Sketch 60 (88103) - https://sketch.com -->
    <title>user-circle-solid</title>
    <desc>Created with Sketch.</desc>
    <g id="web" stroke="none" stroke-width="1" fill="none" fill-rule="evenodd">
        <g id="payment" transform="translate(-129.000000, -752.000000)" fill="#000000" fill-rule="nonzero">
            <g id="shop" transform="translate(80.000000, 214.000000)">
                <g id="商品詳細">
                    <g id="cust-info" transform="translate(2.000000, 500.000000)">
                        <g id="user-circle-solid" transform="translate(47.000000, 38.000000)">
                            <path d="M15,0 C6.71370968,0 0,6.71370968 0,15 C0,23.2862903 6.71370968,30 15,30 C23.2862903,30 30,23.2862903 30,15 C30,6.71370968 23.2862903,0 15,0 Z M15,5.80645161 C17.9395161,5.80645161 20.3225806,8.18951613 20.3225806,11.1290323 C20.3225806,14.0685484 17.9395161,16.4516129 15,16.4516129 C12.0604839,16.4516129 9.67741935,14.0685484 9.67741935,11.1290323 C9.67741935,8.18951613 12.0604839,5.80645161 15,5.80645161 Z M15,26.6129032 C11.4495968,26.6129032 8.26814516,25.0040323 6.1391129,22.4879032 C7.27620968,20.3467742 9.50201613,18.8709677 12.0967742,18.8709677 C12.2419355,18.8709677 12.3870968,18.8951613 12.5262097,18.9375 C13.3125,19.1915323 14.1350806,19.3548387 15,19.3548387 C15.8649194,19.3548387 16.6935484,19.1915323 17.4737903,18.9375 C17.6129032,18.8951613 17.7580645,18.8709677 17.9032258,18.8709677 C20.4979839,18.8709677 22.7237903,20.3467742 23.8608871,22.4879032 C21.7318548,25.0040323 18.5504032,26.6129032 15,26.6129032 Z" id="Shape"></path>
                        </g>
                    </g>
                </g>
            </g>
        </g>
    </g>
</svg>
