<?xml version="1.0" encoding="UTF-8"?>
<svg width="360px" height="28px" viewBox="0 0 360 37" version="1.1" xmlns="http://www.w3.org/2000/svg" xmlns:xlink="http://www.w3.org/1999/xlink">
    <!-- Generator: Sketch 60 (88103) - https://sketch.com -->
    <title>CustomerInformation</title>
    <desc>Created with Sketch.</desc>
    <g id="web" stroke="none" stroke-width="1" fill="none" fill-rule="evenodd">
        <g id="Artboard" transform="translate(-124.000000, -382.000000)" fill="#000000" fill-rule="nonzero">
            <path d="M137.58,409 C143.916,409 148.02,405.076 148.02,403.852 C148.02,403.168 147.372,402.556 146.724,402.556 C146.364,402.556 145.968,402.736 145.68,403.132 C143.916,405.508 140.712,406.804 137.508,406.804 C130.344,406.804 126.924,401.008 126.924,395.644 C126.924,389.884 130.848,384.304 137.616,384.304 C140.1,384.304 142.548,385.132 144.24,386.896 C144.708,387.364 144.708,388.408 144.708,388.948 C144.708,389.632 145.248,389.956 145.788,389.956 C146.292,389.956 146.832,389.632 146.832,388.912 L146.832,388.84 L146.832,388.84 C146.796,387.832 146.76,387.004 146.76,386.176 C146.76,385.348 146.796,384.556 146.832,383.62 L146.832,383.548 L146.832,383.548 C146.832,382.9 146.292,382.576 145.752,382.576 C144.852,382.576 144.744,383.152 144.744,383.908 C144.744,384.412 144.564,384.34 144.492,384.268 C142.548,382.9 140.136,382.252 137.688,382.252 C129.336,382.252 124.62,388.984 124.62,395.86 C124.62,403.168 129.624,409 137.58,409 Z M158.928,409.072 C161.088,409.072 163.248,408.172 164.436,406.588 C164.508,406.516 164.544,406.48 164.616,406.48 C164.652,406.48 164.724,406.516 164.724,406.588 C165.12,408.244 166.092,408.64 167.64,408.712 C168.036,408.712 168.144,408.676 168.468,408.676 C169.116,408.64 169.44,408.136 169.44,407.632 C169.44,407.092 169.116,406.588 168.504,406.588 L168.468,406.588 C168.288,406.588 168.108,406.624 167.856,406.624 C166.641529,406.525529 166.53437,405.439457 166.524915,402.574468 L166.524,401.692 C166.524,399.64 166.56,397.516 166.596,394.888 C166.596,392.98 165.192,392.152 163.572,392.152 L162.672,392.152 C161.952,392.152 161.628,392.656 161.628,393.16 C161.628,393.664 161.952,394.168 162.636,394.168 C163.104,394.168 163.032,394.132 163.356,394.132 C164.256,394.168 164.508,394.816 164.508,395.752 L164.508,402.376 L164.508,402.376 C164.4,405.328 161.7,407.2 159.18,407.2 C157.164,407.2 155.256,405.94 155.076,402.988 C155.04,402.304 155.004,400.648 155.004,398.812 C155.004,397.516 155.04,396.112 155.04,394.924 C155.04,393.16 153.924,392.152 152.052,392.152 L151.116,392.152 C150.432,392.152 150.072,392.692 150.072,393.196 C150.072,393.7 150.396,394.168 151.08,394.168 L151.116,394.168 C151.476,394.168 151.512,394.132 151.692,394.132 C152.196,394.132 152.952,394.24 152.952,395.752 L152.952838,397.389391 C152.958248,402.395041 152.988,403.010909 152.988,403.24 C153.096,407.344 155.976,409.072 158.928,409.072 Z M178.008,409.072 C182.112,409.072 183.696,406.408 183.696,404.428 C183.696,402.808 182.724,401.116 180.492,399.964 C179.376,399.388 177.648,398.668 176.64,398.2 C175.452,397.624 174.876,396.688 174.876,395.824 C174.876,394.636 175.92,393.52 177.792,393.52 L177.854605,393.520494 C178.354111,393.528889 181.212,393.68 181.212,396.4 C181.212,397.048 181.716,397.336 182.22,397.336 C182.364,397.336 183.12,397.228 183.12,396.472 L183.12,396.4 L183.12,396.4 C183.092,395.756 183.085778,395.286222 183.084395,394.872099 L183.084563,394.12525 C183.08625,393.72025 183.093,393.295 183.12,392.728 L183.12,392.692 C183.12,392.116 182.688,391.828 182.22,391.828 C181.86,391.828 181.5,392.008 181.392,392.404 C181.356,392.512 181.392,392.836 181.212,392.836 C181.14,392.836 181.068,392.836 180.996,392.764 C180.456,392.332 179.124,391.792 177.828,391.792 C174.624,391.792 172.932,393.844 172.932,395.932 C172.932,397.516 173.868,399.1 175.848,399.928 C180.024,401.656 181.608,402.52 181.608,404.428 C181.608,406.156 179.844,407.2 178.008,407.2 C175.956,407.2 174.156,406.012 174.156,404.824 C174.156,404.572 174.228,404.392 174.228,404.14 C174.228,403.492 173.76,403.168 173.256,403.168 C172.752,403.168 172.248,403.492 172.248,404.104 L172.248,404.176 L172.248,404.176 C172.284,405.04 172.32,405.58 172.32,406.12 C172.32,406.66 172.284,407.2 172.248,407.992 L172.248,408.064 L172.248,408.064 C172.248,408.64 172.716,408.928 173.184,408.928 C173.616,408.928 174.048,408.82 174.048,407.92 C174.048,407.812 174.084,407.74 174.156,407.74 C174.228,407.74 174.336,407.812 174.408,407.884 C175.164,408.532 176.46,409.072 178.008,409.072 Z M194.64,409.036 C196.08,409.036 196.944,408.856 196.944,407.92 C196.944,407.452 196.62,406.984 196.08,406.984 L195.936,406.984 L195.936,406.984 C195.576,407.02 195.252,407.056 194.928,407.056 C192.264,407.056 192.06258,405.338675 192.048927,402.764763 L192.048,402.34 C192.048,399.676 192.156,395.968 192.156,394.6 C192.156,394.168 192.156,394.096 192.732,394.096 L195.9,394.096 C196.584,394.096 196.908,393.628 196.908,393.124 C196.908,392.656 196.584,392.188 195.9,392.188 L192.696,392.188 C192.228,392.188 192.156,392.188 192.156,391.792 C192.156,391.792 192.228,388.912 192.228,387.868 C192.228,387.112 191.724,386.752 191.184,386.752 C190.68,386.752 190.14,387.112 190.14,387.796 L190.14,388.696 L190.14,388.696 C190.14,389.956 190.104,391.684 190.104,391.828 C190.104,392.152 190.032,392.188 189.708,392.188 L187.62,392.188 C186.936,392.188 186.612,392.656 186.612,393.124 C186.612,393.628 186.936,394.096 187.62,394.096 L189.744,394.096 C189.996,394.096 190.104,394.132 190.104,394.492 L190.104,395.068 L190.104,395.068 C190.104,396.755304 190.038125,400.847055 190.032396,403.216025 L190.032938,403.830545 C190.047945,405.560069 190.303059,409.036 194.64,409.036 Z M208.608,409.036 C213.396,409.036 216.996,405.58 216.996,400.396 C216.996,395.392 213.396,391.792 208.608,391.792 C203.82,391.792 200.292,395.392 200.292,400.396 C200.292,405.58 203.82,409.036 208.608,409.036 Z M208.608,407.128 C205.152,407.128 202.38,404.428 202.38,400.396 C202.38,396.328 205.152,393.664 208.608,393.664 C212.064,393.664 214.872,396.328 214.872,400.396 C214.872,404.428 212.064,407.128 208.608,407.128 Z M241.692,408.568 C242.52,408.532 243.348,408.496 244.248,408.496 C245.112,408.496 246.048,408.532 246.948,408.568 L246.984,408.568 C247.632,408.568 247.956,408.1 247.956,407.596 C247.956,407.128 247.632,406.66 246.984,406.66 L246.948,406.66 C246.444,406.66 246.552,406.696 246.012,406.696 C245.616,406.696 245.436,406.444 245.436,406.084 C245.436,403.276 245.4,398.704 245.364,397.192 C245.256,393.664 242.7,391.792 239.964,391.792 C237.912,391.792 235.752,392.836 234.384,394.96 C233.628,392.836 231.648,391.828 229.632,391.828 C227.832,391.828 225.996,392.584 224.808,394.06 C224.772,394.096 224.736,394.132 224.736,394.132 C224.7,394.132 224.7,394.096 224.664,393.988 C224.628,393.88 224.376,392.116 221.82,392.116 C221.46,392.116 221.1,392.152 220.776,392.152 C220.128,392.152 219.804,392.656 219.804,393.16 C219.804,393.664 220.128,394.168 220.74,394.168 C221.208,394.168 221.208,394.132 221.532,394.132 C222.36,394.132 222.648,394.852 222.648,395.752 L222.648,398.452 L222.648,398.452 C222.648,400.972 222.612,403.672 222.576,406.084 C222.576,406.48 222.324,406.696 221.964,406.696 C221.424,406.696 221.316,406.66 220.884,406.66 L220.848,406.66 C220.2,406.66 219.876,407.128 219.84,407.632 C219.876,407.884 219.984,408.604 220.884,408.568 C221.712,408.532 222.576,408.496 223.44,408.496 C224.34,408.496 225.276,408.532 226.176,408.568 L226.212,408.568 C226.86,408.568 227.184,408.1 227.184,407.596 C227.184,407.128 226.86,406.66 226.212,406.66 L226.176,406.66 C225.672,406.696 225.78,406.696 225.24,406.696 C224.808,406.696 224.592,406.444 224.592,406.048 C224.592,404.644 224.556,402.988 224.556,401.476 C224.556,400 224.592,398.704 224.592,398.128 C224.7,395.464 227.148,393.664 229.38,393.664 C231.144,393.664 232.764,394.78 232.908,397.552 C232.944,398.236 232.98,400.036 232.98,401.98 C232.98,403.384 232.944,404.824 232.944,406.048 C232.944,406.444 232.692,406.696 232.332,406.696 C231.792,406.696 231.684,406.66 231.252,406.66 L231.216,406.66 C230.568,406.66 230.244,407.164 230.244,407.632 C230.244,408.136 230.604,408.604 231.252,408.568 C232.08,408.532 232.908,408.496 233.808,408.496 C234.672,408.496 235.608,408.532 236.508,408.568 L236.544,408.568 C237.192,408.568 237.516,408.064 237.516,407.596 C237.516,407.092 237.156,406.624 236.508,406.66 C236.004,406.696 236.076,406.696 235.536,406.696 C235.104,406.696 234.888,406.48 234.888,406.084 C234.888,404.932 234.852,403.564 234.852,402.232 C234.852,400.396 234.888,398.668 234.924,397.876 C235.032,395.428 237.516,393.664 239.748,393.664 C241.548,393.664 243.168,394.78 243.312,397.552 C243.348,398.236 243.384,400.18 243.384,402.16 C243.384,403.6 243.348,405.04 243.348,406.084 C243.348,406.48 243.096,406.696 242.736,406.696 C242.196,406.696 242.124,406.66 241.692,406.66 L241.656,406.66 C241.008,406.66 240.684,407.128 240.684,407.632 C240.684,408.208 241.152,408.604 241.692,408.568 Z M258.936,409.036 C263.472,409.036 265.992,406.3 265.992,405.472 C265.992,404.896 265.452,404.428 264.912,404.428 C264.66,404.428 264.408,404.536 264.192,404.752 C263.076,406.012 261.6,407.128 258.972,407.128 C255.516,407.128 252.924,404.716 252.924,400.792 C252.924,400.288 252.996,400.144 253.356,400.144 C254.148,400.144 257.208,400.18 259.908,400.18 C261.24,400.18 262.464,400.18 263.292,400.144 C265.128,400.072 265.92,399.064 265.92,397.732 C265.92,395.68 263.76,391.828 258.828,391.828 C254.58,391.828 250.8,395.284 250.8,400.54 C250.8,405.616 254.364,409.036 258.936,409.036 Z M259.125,398.415437 L256.179317,398.415022 C253.45189,398.408991 253.212,398.365767 253.212,398.056 C253.212,396.724 255.408,393.628 258.864,393.628 C262.536,393.628 263.796,396.328 263.796,397.372 C263.796,397.948 263.472,398.344 262.608,398.38 C261.852,398.407 260.529,398.41375 259.125,398.415437 Z M270.06,408.568 C270.888,408.532 271.86,408.496 272.832,408.496 C273.804,408.496 274.848,408.532 275.784,408.568 L275.82,408.568 C276.504,408.568 276.864,408.064 276.864,407.596 C276.864,407.02 276.396,406.588 275.784,406.624 C275.28,406.66 275.136,406.66 274.596,406.66 C274.2,406.66 273.984,406.372 273.984,406.012 C273.984,404.284 273.948,402.664 273.948,401.296 C273.948,399.928 273.984,398.812 273.984,398.128 C274.056,395.464 276.756,393.844 279.24,393.844 L279.456,393.844 C280.104,393.844 280.464,393.34 280.464,392.836 C280.464,392.152 279.96,391.792 279.276,391.828 C277.224,391.9 275.136,392.728 274.164,394.06 C274.092,394.132 274.02,394.168 273.948,394.168 C273.912,394.168 273.84,394.168 273.84,394.06 C273.624,392.764 272.436,392.152 270.996,392.152 L269.988,392.152 C269.304,392.152 268.98,392.656 268.98,393.196 C268.98,393.7 269.304,394.204 269.952,394.204 L269.988,394.204 C270.456,394.168 270.42,394.168 270.744,394.168 C271.644,394.204 271.932,394.852 271.932,395.824 L271.932,398.632 L271.932,398.632 C271.932,401.044 271.896,403.24 271.86,406.012 C271.86,406.408 271.644,406.66 271.284,406.66 C270.708,406.66 270.528,406.624 270.06,406.624 L270.024,406.624 C269.34,406.624 268.98,407.128 268.98,407.632 C268.98,408.028 269.232,408.604 270.06,408.568 Z M294.144,408.568 C295.188,408.532 296.484,408.496 297.852,408.496 C298.968,408.496 300.084,408.532 301.056,408.568 L301.128,408.568 L301.128,408.568 C301.848,408.568 302.208,408.028 302.208,407.524 C302.208,407.236 301.992,406.408 301.056,406.444 C300.516,406.48 300.048,406.48 299.436,406.48 C298.968,406.48 298.788,406.156 298.788,405.796 C298.7592,403.0024 298.75344,400.16272 298.752288,397.36912 L298.752395,392.993432 C298.753778,390.34 298.76,387.764 298.788,385.384 C298.788,384.988 299.004,384.664 299.472,384.664 C300.084,384.664 300.552,384.664 301.092,384.7 L301.164,384.7 L301.164,384.7 C301.884,384.7 302.208,384.196 302.244,383.692 C302.244,383.548 302.172,382.612 301.092,382.648 C299.94,382.684 298.536,382.72 297.168,382.72 C296.052,382.72 294.972,382.684 294.144,382.648 L294.072,382.648 L294.072,382.648 C293.352,382.648 293.028,383.152 292.992,383.656 C293.028,384.664 293.928,384.7 294.144,384.7 C294.576,384.7 295.188,384.664 295.764,384.664 C296.196,384.664 296.484,384.952 296.484,385.384 C296.556,387.904 296.556,390.604 296.556,393.34 C296.556,397.516 296.52,401.8 296.448,405.796 C296.448,406.264 296.232,406.48 295.728,406.48 C295.152,406.48 294.576,406.444 294.144,406.444 L294.108,406.444 C293.388,406.444 293.028,406.984 293.028,407.524 C293.028,408.316 293.604,408.604 294.144,408.568 Z M305.304,408.568 C306.132,408.532 307.032,408.496 307.932,408.496 C308.832,408.496 309.804,408.532 310.74,408.568 L310.776,408.568 C311.46,408.568 311.82,408.064 311.82,407.596 C311.82,407.02 311.388,406.588 310.74,406.624 C310.236,406.66 310.308,406.66 309.768,406.66 C309.336,406.66 309.12,406.444 309.12,406.048 C309.12,404.356 309.084,402.808 309.084,401.476 C309.084,400.18 309.12,399.1 309.12,398.416 C309.228,395.572 312,393.664 314.52,393.664 C316.536,393.664 318.444,394.888 318.624,397.876 C318.66,398.38 318.66,399.388 318.66,400.612 C318.66,402.304 318.66,404.356 318.624,406.012 C318.624,406.408 318.444,406.66 318.084,406.66 C317.508,406.66 317.436,406.624 317.004,406.624 L316.968,406.624 C316.284,406.624 315.924,407.128 315.924,407.632 C315.924,408.028 316.176,408.604 317.004,408.568 C317.832,408.532 318.696,408.496 319.596,408.496 C320.532,408.496 321.468,408.532 322.404,408.568 L322.44,408.568 C323.124,408.568 323.484,408.1 323.484,407.596 C323.484,407.092 323.124,406.624 322.44,406.624 L322.404,406.624 C321.9,406.624 321.9,406.66 321.36,406.66 C320.964,406.66 320.784,406.408 320.784,406.012 L320.784,404.284 L320.784,404.284 C320.784,401.692 320.748,398.74 320.712,397.552 C320.568,393.628 317.688,391.792 314.7,391.792 C312.684,391.792 310.632,392.62 309.372,394.24 C309.3,394.312 309.228,394.348 309.192,394.348 C309.084,394.348 309.048,394.276 309.012,394.168 C308.832,392.836 307.608,392.152 306.168,392.152 L305.124,392.152 C304.44,392.152 304.08,392.692 304.08,393.196 C304.08,393.7 304.404,394.204 305.052,394.204 L305.124,394.204 L305.124,394.204 C305.592,394.168 305.556,394.168 305.88,394.168 C306.744,394.204 307.068,394.852 307.068,395.788 C307.068,397.336 307.104,398.704 307.104,400.036 C307.104,401.908 307.068,403.78 307.032,406.048 C307.032,406.444 306.78,406.66 306.42,406.66 C305.844,406.66 305.736,406.624 305.304,406.624 L305.268,406.624 C304.584,406.624 304.224,407.128 304.224,407.632 C304.224,408.028 304.476,408.604 305.304,408.568 Z M327.228,408.568 C328.092,408.532 329.064,408.496 330.072,408.496 C331.08,408.496 332.124,408.532 333.096,408.568 L333.132,408.568 C333.816,408.568 334.176,408.064 334.176,407.596 C334.176,407.02 333.744,406.588 333.096,406.624 C332.556,406.66 332.448,406.66 331.872,406.66 C331.476,406.66 331.188,406.408 331.188,406.048 C331.162667,403.210667 331.15516,398.69758 331.152936,396.272252 L331.152,394.6 C331.152,394.168 331.188,394.096 331.548,394.096 L335.364,394.096 C335.976,394.096 336.3,393.592 336.3,393.124 C336.3,392.62 335.976,392.152 335.364,392.152 L331.62,392.152 C331.26,392.152 331.152,392.116 331.152,391.792 C331.152,391.432 331.116,390.964 331.116,390.388 C331.116,389.848 331.152,389.2 331.152,388.552 C331.26,386.212 332.628,384.304 334.968,384.304 L335.4,384.304 L335.4,384.304 C336.084,384.304 336.48,383.836 336.48,383.332 C336.48,382.36 335.22,382.324 334.86,382.324 C332.052,382.324 329.172,384.448 329.064,388.336 L329.064,389.272 C329.064,390.424 329.1,391.396 329.1,391.756 C329.1,392.116 328.992,392.152 328.596,392.152 L326.292,392.152 C325.68,392.152 325.356,392.656 325.356,393.16 C325.356,393.628 325.68,394.096 326.292,394.096 L328.596,394.096 C329.028,394.096 329.1,394.168 329.1,394.6 L329.1,406.048 L329.1,406.048 C329.1,406.408 328.848,406.66 328.488,406.66 C327.912,406.66 327.696,406.624 327.228,406.624 L327.192,406.624 C326.508,406.624 326.148,407.128 326.148,407.596 C326.148,408.172 326.616,408.604 327.228,408.568 Z M347.352,409.036 C352.14,409.036 355.74,405.58 355.74,400.396 C355.74,395.392 352.14,391.792 347.352,391.792 C342.564,391.792 339.036,395.392 339.036,400.396 C339.036,405.58 342.564,409.036 347.352,409.036 Z M347.352,407.128 C343.896,407.128 341.124,404.428 341.124,400.396 C341.124,396.328 343.896,393.664 347.352,393.664 C350.808,393.664 353.616,396.328 353.616,400.396 C353.616,404.428 350.808,407.128 347.352,407.128 Z M359.952,408.568 C360.78,408.532 361.752,408.496 362.724,408.496 C363.696,408.496 364.74,408.532 365.676,408.568 L365.712,408.568 C366.396,408.568 366.756,408.064 366.756,407.596 C366.756,407.02 366.288,406.588 365.676,406.624 C365.172,406.66 365.028,406.66 364.488,406.66 C364.092,406.66 363.876,406.372 363.876,406.012 C363.876,404.284 363.84,402.664 363.84,401.296 C363.84,399.928 363.876,398.812 363.876,398.128 C363.948,395.464 366.648,393.844 369.132,393.844 L369.348,393.844 C369.996,393.844 370.356,393.34 370.356,392.836 C370.356,392.152 369.852,391.792 369.168,391.828 C367.116,391.9 365.028,392.728 364.056,394.06 C363.984,394.132 363.912,394.168 363.84,394.168 C363.804,394.168 363.732,394.168 363.732,394.06 C363.516,392.764 362.328,392.152 360.888,392.152 L359.88,392.152 C359.196,392.152 358.872,392.656 358.872,393.196 C358.872,393.7 359.196,394.204 359.844,394.204 L359.88,394.204 C360.348,394.168 360.312,394.168 360.636,394.168 C361.536,394.204 361.824,394.852 361.824,395.824 L361.824,398.632 L361.824,398.632 C361.824,401.044 361.788,403.24 361.752,406.012 C361.752,406.408 361.536,406.66 361.176,406.66 C360.6,406.66 360.42,406.624 359.952,406.624 L359.916,406.624 C359.232,406.624 358.872,407.128 358.872,407.632 C358.872,408.028 359.124,408.604 359.952,408.568 Z M393.864,408.568 C394.692,408.532 395.52,408.496 396.42,408.496 C397.284,408.496 398.22,408.532 399.12,408.568 L399.156,408.568 C399.804,408.568 400.128,408.1 400.128,407.596 C400.128,407.128 399.804,406.66 399.156,406.66 L399.12,406.66 C398.616,406.66 398.724,406.696 398.184,406.696 C397.788,406.696 397.608,406.444 397.608,406.084 C397.608,403.276 397.572,398.704 397.536,397.192 C397.428,393.664 394.872,391.792 392.136,391.792 C390.084,391.792 387.924,392.836 386.556,394.96 C385.8,392.836 383.82,391.828 381.804,391.828 C380.004,391.828 378.168,392.584 376.98,394.06 C376.944,394.096 376.908,394.132 376.908,394.132 C376.872,394.132 376.872,394.096 376.836,393.988 C376.8,393.88 376.548,392.116 373.992,392.116 C373.632,392.116 373.272,392.152 372.948,392.152 C372.3,392.152 371.976,392.656 371.976,393.16 C371.976,393.664 372.3,394.168 372.912,394.168 C373.38,394.168 373.38,394.132 373.704,394.132 C374.532,394.132 374.82,394.852 374.82,395.752 L374.82,398.452 L374.82,398.452 C374.82,400.972 374.784,403.672 374.748,406.084 C374.748,406.48 374.496,406.696 374.136,406.696 C373.596,406.696 373.488,406.66 373.056,406.66 L373.02,406.66 C372.372,406.66 372.048,407.128 372.012,407.632 C372.048,407.884 372.156,408.604 373.056,408.568 C373.884,408.532 374.748,408.496 375.612,408.496 C376.512,408.496 377.448,408.532 378.348,408.568 L378.384,408.568 C379.032,408.568 379.356,408.1 379.356,407.596 C379.356,407.128 379.032,406.66 378.384,406.66 L378.348,406.66 C377.844,406.696 377.952,406.696 377.412,406.696 C376.98,406.696 376.764,406.444 376.764,406.048 C376.764,404.644 376.728,402.988 376.728,401.476 C376.728,400 376.764,398.704 376.764,398.128 C376.872,395.464 379.32,393.664 381.552,393.664 C383.316,393.664 384.936,394.78 385.08,397.552 C385.116,398.236 385.152,400.036 385.152,401.98 C385.152,403.384 385.116,404.824 385.116,406.048 C385.116,406.444 384.864,406.696 384.504,406.696 C383.964,406.696 383.856,406.66 383.424,406.66 L383.388,406.66 C382.74,406.66 382.416,407.164 382.416,407.632 C382.416,408.136 382.776,408.604 383.424,408.568 C384.252,408.532 385.08,408.496 385.98,408.496 C386.844,408.496 387.78,408.532 388.68,408.568 L388.716,408.568 C389.364,408.568 389.688,408.064 389.688,407.596 C389.688,407.092 389.328,406.624 388.68,406.66 C388.176,406.696 388.248,406.696 387.708,406.696 C387.276,406.696 387.06,406.48 387.06,406.084 C387.06,404.932 387.024,403.564 387.024,402.232 C387.024,400.396 387.06,398.668 387.096,397.876 C387.204,395.428 389.688,393.664 391.92,393.664 C393.72,393.664 395.34,394.78 395.484,397.552 C395.52,398.236 395.556,400.18 395.556,402.16 C395.556,403.6 395.52,405.04 395.52,406.084 C395.52,406.48 395.268,406.696 394.908,406.696 C394.368,406.696 394.296,406.66 393.864,406.66 L393.828,406.66 C393.18,406.66 392.856,407.128 392.856,407.632 C392.856,408.208 393.324,408.604 393.864,408.568 Z M408.804,409.036 C410.892,409.036 413.196,407.992 414.276,406.264 C414.312,406.192 414.384,406.156 414.42,406.156 C414.492,406.156 414.528,406.228 414.564,406.336 C414.888,407.668 416.184,408.64 417.228,408.64 C417.84,408.64 418.2,408.136 418.2,407.632 C418.2,407.272 418.02,406.876 417.588,406.732 C416.148,406.228 415.896,405.364 415.896,402.736 C415.896,401.368 415.968,399.496 416.076,398.308 C416.112,397.948 416.112,397.624 416.112,397.3 C416.112,393.268 413.844,391.792 410.496,391.792 C407.4,391.792 404.376,393.34 404.376,394.708 C404.376,395.284 404.844,395.68 405.384,395.68 C405.636,395.68 405.924,395.572 406.14,395.32 C406.968,394.42 408.408,393.592 410.352,393.592 C413.268,393.592 414.096,395.14 414.096,397.12 C414.096,397.3 414.06,397.516 414.06,397.696 C414.06,397.948 413.916,398.056 413.484,398.128 C411.972,398.38 409.056,398.92 406.824,399.604 C404.16,400.432 402.972,402.268 402.972,404.068 C402.972,406.552 405.168,409.036 408.804,409.036 Z M408.768,407.128 C406.356,407.128 404.916,405.616 404.916,404.104 C404.916,401.584 407.904,400.864 413.556,399.964 L413.664,399.964 L413.664,399.964 C413.916,399.964 414.024,400.072 414.024,400.36 L414.024,400.828 L414.024,400.828 C414.024,406.372 410.604,407.128 408.768,407.128 Z M428.46,409.036 C429.9,409.036 430.764,408.856 430.764,407.92 C430.764,407.452 430.44,406.984 429.9,406.984 L429.756,406.984 L429.756,406.984 C429.396,407.02 429.072,407.056 428.748,407.056 C426.084,407.056 425.88258,405.338675 425.868927,402.764763 L425.868,402.34 C425.868,399.676 425.976,395.968 425.976,394.6 C425.976,394.168 425.976,394.096 426.552,394.096 L429.72,394.096 C430.404,394.096 430.728,393.628 430.728,393.124 C430.728,392.656 430.404,392.188 429.72,392.188 L426.516,392.188 C426.048,392.188 425.976,392.188 425.976,391.792 C425.976,391.792 426.048,388.912 426.048,387.868 C426.048,387.112 425.544,386.752 425.004,386.752 C424.5,386.752 423.96,387.112 423.96,387.796 L423.96,388.696 L423.96,388.696 C423.96,389.956 423.924,391.684 423.924,391.828 C423.924,392.152 423.852,392.188 423.528,392.188 L421.44,392.188 C420.756,392.188 420.432,392.656 420.432,393.124 C420.432,393.628 420.756,394.096 421.44,394.096 L423.564,394.096 C423.816,394.096 423.924,394.132 423.924,394.492 L423.924,395.068 L423.924,395.068 C423.924,396.755304 423.858125,400.847055 423.852396,403.216025 L423.852938,403.830545 C423.867945,405.560069 424.123059,409.036 428.46,409.036 Z M436.704,385.6 C438.324,385.6 438.504,384.16 438.504,383.872 C438.504,383.008 437.856,382.18 436.74,382.18 C436.02,382.18 435.012,382.72 435.012,383.872 C435.012,385.6 436.524,385.6 436.704,385.6 Z M434.4,408.60415 C435.264,408.568 436.272,408.532 437.28,408.532 C438.288,408.532 439.368,408.568 440.34,408.60415 L440.376,408.60415 C441.096,408.60415 441.456,408.1 441.456,407.596 C441.456,406.552 440.484,406.588 440.34,406.588 C439.8,406.624 439.656,406.624 439.08,406.624 C438.648,406.624 438.432,406.3 438.432,405.94 L438.432,403.132 L438.432,403.132 C438.432,400.504 438.468,397.768 438.504,395.248 L438.504,395.14 L438.504,395.14 C438.504,393.628 437.82,392.188 435.84,392.188 C435.012,392.188 435.12,392.152 434.436,392.152 C433.752,392.152 433.392,392.692 433.392,393.232 C433.392,393.7 433.716,394.204 434.364,394.204 L434.436,394.204 L434.436,394.204 C434.724,394.204 434.904,394.168 435.192,394.168 C436.056,394.204 436.416,394.78 436.416,395.824 C436.416,398.956 436.38,402.484 436.344,405.904 C436.344,406.372 436.128,406.624 435.696,406.624 C435.084,406.624 434.868,406.588 434.4,406.588 L434.364,406.588 C433.644,406.588 433.284,407.092 433.284,407.596 C433.284,408.64 434.256,408.60415 434.4,408.60415 Z M452.508,409.036 C457.296,409.036 460.896,405.58 460.896,400.396 C460.896,395.392 457.296,391.792 452.508,391.792 C447.72,391.792 444.192,395.392 444.192,400.396 C444.192,405.58 447.72,409.036 452.508,409.036 Z M452.508,407.128 C449.052,407.128 446.28,404.428 446.28,400.396 C446.28,396.328 449.052,393.664 452.508,393.664 C455.964,393.664 458.772,396.328 458.772,400.396 C458.772,404.428 455.964,407.128 452.508,407.128 Z M464.892,408.568 C465.72,408.532 466.62,408.496 467.52,408.496 C468.42,408.496 469.392,408.532 470.328,408.568 L470.364,408.568 C471.048,408.568 471.408,408.064 471.408,407.596 C471.408,407.02 470.976,406.588 470.328,406.624 C469.824,406.66 469.896,406.66 469.356,406.66 C468.924,406.66 468.708,406.444 468.708,406.048 C468.708,404.356 468.672,402.808 468.672,401.476 C468.672,400.18 468.708,399.1 468.708,398.416 C468.816,395.572 471.588,393.664 474.108,393.664 C476.124,393.664 478.032,394.888 478.212,397.876 C478.248,398.38 478.248,399.388 478.248,400.612 C478.248,402.304 478.248,404.356 478.212,406.012 C478.212,406.408 478.032,406.66 477.672,406.66 C477.096,406.66 477.024,406.624 476.592,406.624 L476.556,406.624 C475.872,406.624 475.512,407.128 475.512,407.632 C475.512,408.028 475.764,408.604 476.592,408.568 C477.42,408.532 478.284,408.496 479.184,408.496 C480.12,408.496 481.056,408.532 481.992,408.568 L482.028,408.568 C482.712,408.568 483.072,408.1 483.072,407.596 C483.072,407.092 482.712,406.624 482.028,406.624 L481.992,406.624 C481.488,406.624 481.488,406.66 480.948,406.66 C480.552,406.66 480.372,406.408 480.372,406.012 L480.372,404.284 L480.372,404.284 C480.372,401.692 480.336,398.74 480.3,397.552 C480.156,393.628 477.276,391.792 474.288,391.792 C472.272,391.792 470.22,392.62 468.96,394.24 C468.888,394.312 468.816,394.348 468.78,394.348 C468.672,394.348 468.636,394.276 468.6,394.168 C468.42,392.836 467.196,392.152 465.756,392.152 L464.712,392.152 C464.028,392.152 463.668,392.692 463.668,393.196 C463.668,393.7 463.992,394.204 464.64,394.204 L464.712,394.204 L464.712,394.204 C465.18,394.168 465.144,394.168 465.468,394.168 C466.332,394.204 466.656,394.852 466.656,395.788 C466.656,397.336 466.692,398.704 466.692,400.036 C466.692,401.908 466.656,403.78 466.62,406.048 C466.62,406.444 466.368,406.66 466.008,406.66 C465.432,406.66 465.324,406.624 464.892,406.624 L464.856,406.624 C464.172,406.624 463.812,407.128 463.812,407.632 C463.812,408.028 464.064,408.604 464.892,408.568 Z" id="CustomerInformation"></path>
        </g>
    </g>
</svg>
