<?xml version="1.0" encoding="UTF-8"?>
<svg width="181px" height="28px" viewBox="0 0 181 36" version="1.1" xmlns="http://www.w3.org/2000/svg" xmlns:xlink="http://www.w3.org/1999/xlink">
    <!-- Generator: Sketch 60 (88103) - https://sketch.com -->
    <title>Decoration</title>
    <desc>Created with Sketch.</desc>
    <g id="web" stroke="none" stroke-width="1" fill="none" fill-rule="evenodd">
        <g id="Artboard" transform="translate(-1404.000000, -454.000000)" fill="#000000" fill-rule="nonzero">
            <path d="M1428.704,467.536 C1428.704,459.976 1423.88,455.044 1416.104,454.612 C1415.204,454.576 1414.268,454.576 1413.332,454.576 C1411.604,454.612 1409.876,454.684 1407.968,454.684 C1407.104,454.684 1406.168,454.648 1405.232,454.612 L1405.16,454.612 L1405.16,454.612 C1404.44,454.612 1404.116,455.116 1404.08,455.62 C1404.116,456.628 1405.016,456.664 1405.232,456.664 C1405.7,456.664 1406.06,456.628 1406.636,456.628 C1406.996,456.628 1407.248,456.952 1407.248,457.384 L1407.248,477.796 C1407.248,478.228 1406.924,478.516 1406.564,478.516 C1405.988,478.516 1405.628,478.48 1405.16,478.48 L1405.124,478.48 C1404.404,478.48 1404.044,479.02 1404.044,479.56 C1404.044,480.352 1404.62,480.64 1405.16,480.604 C1406.888,480.532 1408.292,480.532 1409.444,480.532 C1411.46,480.568 1412.792,480.64 1414.232,480.64 C1418.984,480.64 1428.704,479.884 1428.704,467.536 Z M1413.12233,478.587663 L1412.28062,478.587663 C1410.38533,478.583457 1409.552,478.526667 1409.552,477.76 C1409.516,474.232 1409.48,469.696 1409.48,465.34 C1409.48,462.532 1409.516,459.796 1409.552,457.456 C1409.552,456.704615 1409.68161,456.601278 1412.76897,456.592655 L1414.18995,456.592655 C1414.9728,456.59456 1415.624,456.6016 1415.888,456.628 C1422.368,456.808 1426.364,461.272 1426.364,467.536 C1426.364,478.1312 1418.55116,478.573156 1413.12233,478.587663 Z M1440.944,481.036 C1445.48,481.036 1448,478.3 1448,477.472 C1448,476.896 1447.46,476.428 1446.92,476.428 C1446.668,476.428 1446.416,476.536 1446.2,476.752 C1445.084,478.012 1443.608,479.128 1440.98,479.128 C1437.524,479.128 1434.932,476.716 1434.932,472.792 C1434.932,472.288 1435.004,472.144 1435.364,472.144 C1436.156,472.144 1439.216,472.18 1441.916,472.18 C1443.248,472.18 1444.472,472.18 1445.3,472.144 C1447.136,472.072 1447.928,471.064 1447.928,469.732 C1447.928,467.68 1445.768,463.828 1440.836,463.828 C1436.588,463.828 1432.808,467.284 1432.808,472.54 C1432.808,477.616 1436.372,481.036 1440.944,481.036 Z M1441.133,470.415437 L1438.18732,470.415022 C1435.45989,470.408991 1435.22,470.365767 1435.22,470.056 C1435.22,468.724 1437.416,465.628 1440.872,465.628 C1444.544,465.628 1445.804,468.328 1445.804,469.372 C1445.804,469.948 1445.48,470.344 1444.616,470.38 C1443.86,470.407 1442.537,470.41375 1441.133,470.415437 Z M1460.276,481 C1464.164,481 1466.864,478.588 1466.864,477.544 C1466.864,476.932 1466.324,476.428 1465.712,476.428 C1465.388,476.428 1465.064,476.572 1464.776,476.968 C1463.768,478.336 1462.004,479.056 1460.168,479.056 C1456.028,479.056 1453.904,475.636 1453.904,472.36 C1453.904,468.364 1456.64,465.556 1460.168,465.556 C1461.572,465.556 1462.94,465.988 1463.84,467.032 C1464.272,467.536 1464.164,467.968 1464.2,468.724 C1464.236,469.3 1464.74,469.588 1465.208,469.588 C1465.748,469.588 1466.252,469.3 1466.252,468.688 L1466.252,468.616 L1466.252,468.616 C1466.225,467.995 1466.21825,467.51575 1466.21656,467.087125 L1466.21684,466.181224 C1466.21894,465.769796 1466.22629,465.34 1466.252,464.8 L1466.252,464.728 L1466.252,464.728 C1466.252,464.116 1465.748,463.828 1465.208,463.828 C1464.812,463.828 1464.38,464.008 1464.344,464.44 C1464.308,464.62 1464.272,464.836 1464.164,464.836 C1464.092,464.836 1464.056,464.8 1463.984,464.764 C1462.94,464.152 1461.464,463.684 1459.916,463.684 C1455.38,463.684 1451.816,467.464 1451.816,472.504 C1451.816,476.788 1454.732,481 1460.276,481 Z M1478.456,481.036 C1483.244,481.036 1486.844,477.58 1486.844,472.396 C1486.844,467.392 1483.244,463.792 1478.456,463.792 C1473.668,463.792 1470.14,467.392 1470.14,472.396 C1470.14,477.58 1473.668,481.036 1478.456,481.036 Z M1478.456,479.128 C1475,479.128 1472.228,476.428 1472.228,472.396 C1472.228,468.328 1475,465.664 1478.456,465.664 C1481.912,465.664 1484.72,468.328 1484.72,472.396 C1484.72,476.428 1481.912,479.128 1478.456,479.128 Z M1491.056,480.568 C1491.884,480.532 1492.856,480.496 1493.828,480.496 C1494.8,480.496 1495.844,480.532 1496.78,480.568 L1496.816,480.568 C1497.5,480.568 1497.86,480.064 1497.86,479.596 C1497.86,479.02 1497.392,478.588 1496.78,478.624 C1496.276,478.66 1496.132,478.66 1495.592,478.66 C1495.196,478.66 1494.98,478.372 1494.98,478.012 C1494.98,476.284 1494.944,474.664 1494.944,473.296 C1494.944,471.928 1494.98,470.812 1494.98,470.128 C1495.052,467.464 1497.752,465.844 1500.236,465.844 L1500.452,465.844 C1501.1,465.844 1501.46,465.34 1501.46,464.836 C1501.46,464.152 1500.956,463.792 1500.272,463.828 C1498.22,463.9 1496.132,464.728 1495.16,466.06 C1495.088,466.132 1495.016,466.168 1494.944,466.168 C1494.908,466.168 1494.836,466.168 1494.836,466.06 C1494.62,464.764 1493.432,464.152 1491.992,464.152 L1490.984,464.152 C1490.3,464.152 1489.976,464.656 1489.976,465.196 C1489.976,465.7 1490.3,466.204 1490.948,466.204 L1490.984,466.204 C1491.452,466.168 1491.416,466.168 1491.74,466.168 C1492.64,466.204 1492.928,466.852 1492.928,467.824 L1492.928,470.632 L1492.928,470.632 C1492.928,473.044 1492.892,475.24 1492.856,478.012 C1492.856,478.408 1492.64,478.66 1492.28,478.66 C1491.704,478.66 1491.524,478.624 1491.056,478.624 L1491.02,478.624 C1490.336,478.624 1489.976,479.128 1489.976,479.632 C1489.976,480.028 1490.228,480.604 1491.056,480.568 Z M1510.1,481.036 C1512.188,481.036 1514.492,479.992 1515.572,478.264 C1515.608,478.192 1515.68,478.156 1515.716,478.156 C1515.788,478.156 1515.824,478.228 1515.86,478.336 C1516.184,479.668 1517.48,480.64 1518.524,480.64 C1519.136,480.64 1519.496,480.136 1519.496,479.632 C1519.496,479.272 1519.316,478.876 1518.884,478.732 C1517.444,478.228 1517.192,477.364 1517.192,474.736 C1517.192,473.368 1517.264,471.496 1517.372,470.308 C1517.408,469.948 1517.408,469.624 1517.408,469.3 C1517.408,465.268 1515.14,463.792 1511.792,463.792 C1508.696,463.792 1505.672,465.34 1505.672,466.708 C1505.672,467.284 1506.14,467.68 1506.68,467.68 C1506.932,467.68 1507.22,467.572 1507.436,467.32 C1508.264,466.42 1509.704,465.592 1511.648,465.592 C1514.564,465.592 1515.392,467.14 1515.392,469.12 C1515.392,469.3 1515.356,469.516 1515.356,469.696 C1515.356,469.948 1515.212,470.056 1514.78,470.128 C1513.268,470.38 1510.352,470.92 1508.12,471.604 C1505.456,472.432 1504.268,474.268 1504.268,476.068 C1504.268,478.552 1506.464,481.036 1510.1,481.036 Z M1510.064,479.128 C1507.652,479.128 1506.212,477.616 1506.212,476.104 C1506.212,473.584 1509.2,472.864 1514.852,471.964 L1514.96,471.964 L1514.96,471.964 C1515.212,471.964 1515.32,472.072 1515.32,472.36 L1515.32,472.828 L1515.32,472.828 C1515.32,478.372 1511.9,479.128 1510.064,479.128 Z M1529.756,481.036 C1531.196,481.036 1532.06,480.856 1532.06,479.92 C1532.06,479.452 1531.736,478.984 1531.196,478.984 L1531.052,478.984 L1531.052,478.984 C1530.692,479.02 1530.368,479.056 1530.044,479.056 C1527.38,479.056 1527.17858,477.338675 1527.16493,474.764763 L1527.164,474.34 C1527.164,471.676 1527.272,467.968 1527.272,466.6 C1527.272,466.168 1527.272,466.096 1527.848,466.096 L1531.016,466.096 C1531.7,466.096 1532.024,465.628 1532.024,465.124 C1532.024,464.656 1531.7,464.188 1531.016,464.188 L1527.812,464.188 C1527.344,464.188 1527.272,464.188 1527.272,463.792 C1527.272,463.792 1527.344,460.912 1527.344,459.868 C1527.344,459.112 1526.84,458.752 1526.3,458.752 C1525.796,458.752 1525.256,459.112 1525.256,459.796 L1525.256,460.696 L1525.256,460.696 C1525.256,461.956 1525.22,463.684 1525.22,463.828 C1525.22,464.152 1525.148,464.188 1524.824,464.188 L1522.736,464.188 C1522.052,464.188 1521.728,464.656 1521.728,465.124 C1521.728,465.628 1522.052,466.096 1522.736,466.096 L1524.86,466.096 C1525.112,466.096 1525.22,466.132 1525.22,466.492 L1525.22,467.068 L1525.22,467.068 C1525.22,468.755304 1525.15412,472.847055 1525.1484,475.216025 L1525.14894,475.830545 C1525.16394,477.560069 1525.41906,481.036 1529.756,481.036 Z M1538,457.6 C1539.62,457.6 1539.8,456.16 1539.8,455.872 C1539.8,455.008 1539.152,454.18 1538.036,454.18 C1537.316,454.18 1536.308,454.72 1536.308,455.872 C1536.308,457.6 1537.82,457.6 1538,457.6 Z M1535.696,480.60415 C1536.56,480.568 1537.568,480.532 1538.576,480.532 C1539.584,480.532 1540.664,480.568 1541.636,480.60415 L1541.672,480.60415 C1542.392,480.60415 1542.752,480.1 1542.752,479.596 C1542.752,478.552 1541.78,478.588 1541.636,478.588 C1541.096,478.624 1540.952,478.624 1540.376,478.624 C1539.944,478.624 1539.728,478.3 1539.728,477.94 L1539.728,475.132 L1539.728,475.132 C1539.728,472.504 1539.764,469.768 1539.8,467.248 L1539.8,467.14 L1539.8,467.14 C1539.8,465.628 1539.116,464.188 1537.136,464.188 C1536.308,464.188 1536.416,464.152 1535.732,464.152 C1535.048,464.152 1534.688,464.692 1534.688,465.232 C1534.688,465.7 1535.012,466.204 1535.66,466.204 L1535.732,466.204 L1535.732,466.204 C1536.02,466.204 1536.2,466.168 1536.488,466.168 C1537.352,466.204 1537.712,466.78 1537.712,467.824 C1537.712,470.956 1537.676,474.484 1537.64,477.904 C1537.64,478.372 1537.424,478.624 1536.992,478.624 C1536.38,478.624 1536.164,478.588 1535.696,478.588 L1535.66,478.588 C1534.94,478.588 1534.58,479.092 1534.58,479.596 C1534.58,480.64 1535.552,480.60415 1535.696,480.60415 Z M1553.804,481.036 C1558.592,481.036 1562.192,477.58 1562.192,472.396 C1562.192,467.392 1558.592,463.792 1553.804,463.792 C1549.016,463.792 1545.488,467.392 1545.488,472.396 C1545.488,477.58 1549.016,481.036 1553.804,481.036 Z M1553.804,479.128 C1550.348,479.128 1547.576,476.428 1547.576,472.396 C1547.576,468.328 1550.348,465.664 1553.804,465.664 C1557.26,465.664 1560.068,468.328 1560.068,472.396 C1560.068,476.428 1557.26,479.128 1553.804,479.128 Z M1566.188,480.568 C1567.016,480.532 1567.916,480.496 1568.816,480.496 C1569.716,480.496 1570.688,480.532 1571.624,480.568 L1571.66,480.568 C1572.344,480.568 1572.704,480.064 1572.704,479.596 C1572.704,479.02 1572.272,478.588 1571.624,478.624 C1571.12,478.66 1571.192,478.66 1570.652,478.66 C1570.22,478.66 1570.004,478.444 1570.004,478.048 C1570.004,476.356 1569.968,474.808 1569.968,473.476 C1569.968,472.18 1570.004,471.1 1570.004,470.416 C1570.112,467.572 1572.884,465.664 1575.404,465.664 C1577.42,465.664 1579.328,466.888 1579.508,469.876 C1579.544,470.38 1579.544,471.388 1579.544,472.612 C1579.544,474.304 1579.544,476.356 1579.508,478.012 C1579.508,478.408 1579.328,478.66 1578.968,478.66 C1578.392,478.66 1578.32,478.624 1577.888,478.624 L1577.852,478.624 C1577.168,478.624 1576.808,479.128 1576.808,479.632 C1576.808,480.028 1577.06,480.604 1577.888,480.568 C1578.716,480.532 1579.58,480.496 1580.48,480.496 C1581.416,480.496 1582.352,480.532 1583.288,480.568 L1583.324,480.568 C1584.008,480.568 1584.368,480.1 1584.368,479.596 C1584.368,479.092 1584.008,478.624 1583.324,478.624 L1583.288,478.624 C1582.784,478.624 1582.784,478.66 1582.244,478.66 C1581.848,478.66 1581.668,478.408 1581.668,478.012 L1581.668,476.284 L1581.668,476.284 C1581.668,473.692 1581.632,470.74 1581.596,469.552 C1581.452,465.628 1578.572,463.792 1575.584,463.792 C1573.568,463.792 1571.516,464.62 1570.256,466.24 C1570.184,466.312 1570.112,466.348 1570.076,466.348 C1569.968,466.348 1569.932,466.276 1569.896,466.168 C1569.716,464.836 1568.492,464.152 1567.052,464.152 L1566.008,464.152 C1565.324,464.152 1564.964,464.692 1564.964,465.196 C1564.964,465.7 1565.288,466.204 1565.936,466.204 L1566.008,466.204 L1566.008,466.204 C1566.476,466.168 1566.44,466.168 1566.764,466.168 C1567.628,466.204 1567.952,466.852 1567.952,467.788 C1567.952,469.336 1567.988,470.704 1567.988,472.036 C1567.988,473.908 1567.952,475.78 1567.916,478.048 C1567.916,478.444 1567.664,478.66 1567.304,478.66 C1566.728,478.66 1566.62,478.624 1566.188,478.624 L1566.152,478.624 C1565.468,478.624 1565.108,479.128 1565.108,479.632 C1565.108,480.028 1565.36,480.604 1566.188,480.568 Z" id="Decoration"></path>
        </g>
    </g>
</svg>
