<?xml version="1.0" encoding="UTF-8"?>
<svg width="140px" height="37px" viewBox="0 0 140 36" version="1.1" xmlns="http://www.w3.org/2000/svg" xmlns:xlink="http://www.w3.org/1999/xlink">
    <!-- Generator: Sketch 60 (88103) - https://sketch.com -->
    <title>Delivery</title>
    <desc>Created with Sketch.</desc>
    <g id="web" stroke="none" stroke-width="1" fill="none" fill-rule="evenodd">
        <path d="M24.806,13.536 C24.806,5.976 19.982,1.044 12.206,0.612 C11.306,0.576 10.37,0.576 9.434,0.576 C7.706,0.612 5.978,0.684 4.07,0.684 C3.206,0.684 2.27,0.648 1.334,0.612 L1.262,0.612 L1.262,0.612 C0.542,0.612 0.218,1.116 0.182,1.62 C0.218,2.628 1.118,2.664 1.334,2.664 C1.802,2.664 2.162,2.628 2.738,2.628 C3.098,2.628 3.35,2.952 3.35,3.384 L3.35,23.796 C3.35,24.228 3.026,24.516 2.666,24.516 C2.09,24.516 1.73,24.48 1.262,24.48 L1.226,24.48 C0.506,24.48 0.146,25.02 0.146,25.56 C0.146,26.352 0.722,26.64 1.262,26.604 C2.99,26.532 4.394,26.532 5.546,26.532 C7.562,26.568 8.894,26.64 10.334,26.64 C15.086,26.64 24.806,25.884 24.806,13.536 Z M9.22433363,24.5876635 L8.38262369,24.5876635 C6.48733333,24.5834568 5.654,24.5266667 5.654,23.76 C5.618,20.232 5.582,15.696 5.582,11.34 C5.582,8.532 5.618,5.796 5.654,3.456 C5.654,2.70461538 5.78360947,2.60127811 8.87097345,2.59265544 L10.291952,2.59265544 C11.0748,2.59456 11.726,2.6016 11.99,2.628 C18.47,2.808 22.466,7.272 22.466,13.536 C22.466,24.1312 14.6531644,24.5731556 9.22433363,24.5876635 Z M37.046,27.036 C41.582,27.036 44.102,24.3 44.102,23.472 C44.102,22.896 43.562,22.428 43.022,22.428 C42.77,22.428 42.518,22.536 42.302,22.752 C41.186,24.012 39.71,25.128 37.082,25.128 C33.626,25.128 31.034,22.716 31.034,18.792 C31.034,18.288 31.106,18.144 31.466,18.144 C32.258,18.144 35.318,18.18 38.018,18.18 C39.35,18.18 40.574,18.18 41.402,18.144 C43.238,18.072 44.03,17.064 44.03,15.732 C44.03,13.68 41.87,9.828 36.938,9.828 C32.69,9.828 28.91,13.284 28.91,18.54 C28.91,23.616 32.474,27.036 37.046,27.036 Z M37.235,16.4154375 L34.2893174,16.415022 C31.5618897,16.4089908 31.322,16.3657674 31.322,16.056 C31.322,14.724 33.518,11.628 36.974,11.628 C40.646,11.628 41.906,14.328 41.906,15.372 C41.906,15.948 41.582,16.344 40.718,16.38 C39.962,16.407 38.639,16.41375 37.235,16.4154375 Z M48.134,26.6041498 C48.998,26.568 50.006,26.532 51.014,26.532 C52.022,26.532 53.102,26.568 54.074,26.6041498 L54.11,26.6041498 C54.83,26.6041498 55.19,26.1 55.19,25.596 C55.19,25.092 54.83,24.588 54.11,24.588 L53.642,24.588 C52.634,24.588 52.166,24.516 52.166,23.94 L52.1669492,19.3768912 C52.1730664,14.2078359 52.20875,7.1955 52.274,3.672 L52.274,3.564 L52.274,3.564 C52.274,1.98 51.518,0.648 49.322,0.648 L48.206,0.648 C47.522,0.648 47.162,1.188 47.162,1.728 C47.162,2.232 47.45,2.7 48.098,2.7 L48.17,2.7 L48.17,2.7 C48.638,2.664 48.638,2.664 48.962,2.664 C49.934,2.7 50.15,3.168 50.15,4.248 L50.15,9.036 L50.15,9.036 C50.15,14.148 50.114,20.772 50.078,23.94 C50.078,24.624 49.394,24.624 48.818,24.624 C48.638,24.624 48.422,24.588 48.134,24.588 L48.098,24.588 C47.378,24.588 47.018,25.092 47.018,25.596 C47.018,26.64 47.99,26.6041498 48.134,26.6041498 Z M60.518,3.6 C62.138,3.6 62.318,2.16 62.318,1.872 C62.318,1.008 61.67,0.18 60.554,0.18 C59.834,0.18 58.826,0.72 58.826,1.872 C58.826,3.6 60.338,3.6 60.518,3.6 Z M58.214,26.6041498 C59.078,26.568 60.086,26.532 61.094,26.532 C62.102,26.532 63.182,26.568 64.154,26.6041498 L64.19,26.6041498 C64.91,26.6041498 65.27,26.1 65.27,25.596 C65.27,24.552 64.298,24.588 64.154,24.588 C63.614,24.624 63.47,24.624 62.894,24.624 C62.462,24.624 62.246,24.3 62.246,23.94 L62.246,21.132 L62.246,21.132 C62.246,18.504 62.282,15.768 62.318,13.248 L62.318,13.14 L62.318,13.14 C62.318,11.628 61.634,10.188 59.654,10.188 C58.826,10.188 58.934,10.152 58.25,10.152 C57.566,10.152 57.206,10.692 57.206,11.232 C57.206,11.7 57.53,12.204 58.178,12.204 L58.25,12.204 L58.25,12.204 C58.538,12.204 58.718,12.168 59.006,12.168 C59.87,12.204 60.23,12.78 60.23,13.824 C60.23,16.956 60.194,20.484 60.158,23.904 C60.158,24.372 59.942,24.624 59.51,24.624 C58.898,24.624 58.682,24.588 58.214,24.588 L58.178,24.588 C57.458,24.588 57.098,25.092 57.098,25.596 C57.098,26.64 58.07,26.6041498 58.214,26.6041498 Z M76.358,26.784 C77.078,26.784 77.834,26.316 78.194,25.344 C79.274,22.608 81.65,16.488 83.162,12.528 C83.27,12.204 83.486,11.916 83.918,11.916 C84.458,11.916 84.386,11.952 84.89,11.952 L84.926,11.952 C85.538,11.952 85.862,11.484 85.862,11.016 C85.862,10.116 84.926,10.152 84.854,10.152 C83.918,10.188 83.018,10.188 82.154,10.188 C81.326,10.188 80.498,10.188 79.634,10.152 L79.562,10.152 L79.562,10.152 C78.914,10.152 78.59,10.62 78.59,11.052 C78.59,11.484 78.878,11.952 79.49,11.952 C79.634,11.952 79.886,11.916 80.174,11.916 C81.002,11.916 81.002,12.132 81.002,12.384 C81.002,12.42 81.002,12.456 80.966,12.492 C79.814,15.768 77.474,22.032 76.754,23.868 C76.646,24.192 76.466,24.372 76.286,24.372 C76.106,24.372 75.962,24.192 75.818,23.796 C75.134,21.852 72.758,15.408 71.714,12.492 C71.678,12.42 71.678,12.348 71.678,12.276 C71.678,12.06 71.786,11.916 72.074,11.916 C72.65,11.916 72.722,11.952 73.154,11.952 C73.766,11.952 74.09,11.484 74.09,11.016 C74.09,10.584 73.766,10.152 73.118,10.152 L73.046,10.152 L73.046,10.152 C72.182,10.188 71.354,10.188 70.49,10.188 C69.662,10.188 68.798,10.188 67.826,10.152 L67.754,10.152 L67.754,10.152 C67.106,10.152 66.782,10.62 66.782,11.088 C66.782,11.484 67.034,12.024 67.718,11.988 C68.222,11.988 68.222,11.952 68.762,11.952 C69.23,11.952 69.374,12.168 69.518,12.6 C70.562,15.48 73.406,22.752 74.45,25.344 C74.846,26.28 75.602,26.784 76.358,26.784 Z M96.77,27.036 C101.306,27.036 103.826,24.3 103.826,23.472 C103.826,22.896 103.286,22.428 102.746,22.428 C102.494,22.428 102.242,22.536 102.026,22.752 C100.91,24.012 99.434,25.128 96.806,25.128 C93.35,25.128 90.758,22.716 90.758,18.792 C90.758,18.288 90.83,18.144 91.19,18.144 C91.982,18.144 95.042,18.18 97.742,18.18 C99.074,18.18 100.298,18.18 101.126,18.144 C102.962,18.072 103.754,17.064 103.754,15.732 C103.754,13.68 101.594,9.828 96.662,9.828 C92.414,9.828 88.634,13.284 88.634,18.54 C88.634,23.616 92.198,27.036 96.77,27.036 Z M96.959,16.4154375 L94.0133174,16.415022 C91.2858897,16.4089908 91.046,16.3657674 91.046,16.056 C91.046,14.724 93.242,11.628 96.698,11.628 C100.37,11.628 101.63,14.328 101.63,15.372 C101.63,15.948 101.306,16.344 100.442,16.38 C99.686,16.407 98.363,16.41375 96.959,16.4154375 Z M107.894,26.568 C108.722,26.532 109.694,26.496 110.666,26.496 C111.638,26.496 112.682,26.532 113.618,26.568 L113.654,26.568 C114.338,26.568 114.698,26.064 114.698,25.596 C114.698,25.02 114.23,24.588 113.618,24.624 C113.114,24.66 112.97,24.66 112.43,24.66 C112.034,24.66 111.818,24.372 111.818,24.012 C111.818,22.284 111.782,20.664 111.782,19.296 C111.782,17.928 111.818,16.812 111.818,16.128 C111.89,13.464 114.59,11.844 117.074,11.844 L117.29,11.844 C117.938,11.844 118.298,11.34 118.298,10.836 C118.298,10.152 117.794,9.792 117.11,9.828 C115.058,9.9 112.97,10.728 111.998,12.06 C111.926,12.132 111.854,12.168 111.782,12.168 C111.746,12.168 111.674,12.168 111.674,12.06 C111.458,10.764 110.27,10.152 108.83,10.152 L107.822,10.152 C107.138,10.152 106.814,10.656 106.814,11.196 C106.814,11.7 107.138,12.204 107.786,12.204 L107.822,12.204 C108.29,12.168 108.254,12.168 108.578,12.168 C109.478,12.204 109.766,12.852 109.766,13.824 L109.766,16.632 L109.766,16.632 C109.766,19.044 109.73,21.24 109.694,24.012 C109.694,24.408 109.478,24.66 109.118,24.66 C108.542,24.66 108.362,24.624 107.894,24.624 L107.858,24.624 C107.174,24.624 106.814,25.128 106.814,25.632 C106.814,26.028 107.066,26.604 107.894,26.568 Z M122.15,36.108 C125.894,36.072 127.766,33.84 129.818,28.908 C131.258,25.416 136.73,12.312 136.802,12.204 C136.91,12.024 137.162,11.988 137.486,11.988 C137.738,11.988 138.026,12.024 138.314,12.024 C138.998,12.024 139.322,11.556 139.322,11.088 C139.322,10.62 138.998,10.152 138.314,10.152 L138.242,10.152 L138.242,10.152 C137.306,10.188 136.406,10.188 135.506,10.188 C134.642,10.188 133.778,10.188 132.914,10.152 L132.842,10.152 L132.842,10.152 C132.194,10.152 131.87,10.62 131.87,11.052 C131.87,11.196 131.978,12.024 132.878,11.988 C133.31,11.988 133.346,11.952 133.922,11.952 C134.246,11.952 134.426,12.096 134.426,12.348 C134.426,12.636 129.962,24.228 129.53,24.228 C129.206,24.228 127.082,18.72 124.778,12.6 C124.742,12.492 124.742,12.384 124.742,12.312 C124.742,12.06 124.886,11.952 125.21,11.952 C125.786,11.952 125.822,11.988 126.254,11.988 C126.902,11.988 127.226,11.52 127.226,11.052 C127.226,10.584 126.938,10.152 126.29,10.152 L126.218,10.152 L126.218,10.152 C125.354,10.188 124.526,10.188 123.626,10.188 C122.762,10.188 121.862,10.188 120.89,10.152 L120.818,10.152 L120.818,10.152 C120.17,10.152 119.846,10.62 119.846,11.088 C119.846,11.556 120.17,12.024 120.818,12.024 C121.322,12.024 121.286,11.988 121.826,11.988 C122.294,11.988 122.438,12.276 122.582,12.636 C123.914,16.092 127.226,24.012 128.198,26.46 C128.306,26.712 128.378,26.892 128.378,27.072 C128.378,27.216 128.342,27.36 128.27,27.54 C126.362,31.968 125.138,33.984 122.222,33.984 C121.394,33.984 121.034,34.488 121.034,35.028 C121.034,35.568 121.43,36.108 122.15,36.108 Z" id="Delivery" fill="#000000" fill-rule="nonzero"></path>
    </g>
</svg>
