<?xml version="1.0" encoding="UTF-8"?>
<svg width="30px" height="21px" viewBox="0 0 30 21" version="1.1" xmlns="http://www.w3.org/2000/svg" xmlns:xlink="http://www.w3.org/1999/xlink">
    <!-- Generator: Sketch 60 (88103) - https://sketch.com -->
    <title>delivery-truck copy</title>
    <desc>Created with Sketch.</desc>
    <g id="web" stroke="none" stroke-width="1" fill="none" fill-rule="evenodd">
        <g id="payment" transform="translate(-129.000000, -1700.000000)" fill="#000000" fill-rule="nonzero">
            <g id="shop" transform="translate(80.000000, 214.000000)">
                <g id="商品詳細">
                    <g id="delivery" transform="translate(2.000000, 1444.000000)">
                        <g id="delivery-truck-copy" transform="translate(47.000000, 42.000000)">
                            <path d="M1.05264706,13.9767639 L1.05264706,1.31920833 C1.05264706,0.615854167 1.62759804,0.0456458333 2.33691176,0.0456458333 L15.0942647,0.0456458333 C15.8035294,0.0456458333 16.3784804,0.615854167 16.3784804,1.31920833 L16.3784804,13.9768125 C16.3784804,14.2112639 16.1868627,14.4013333 15.9503922,14.4013333 L1.48073529,14.4013333 C1.24426471,14.4013333 1.05264706,14.2112639 1.05264706,13.9767639 Z M11.3546078,18.3129722 C11.3546078,19.7717917 10.1620098,20.9544028 8.69098039,20.9544028 C7.21995098,20.9544028 6.02735294,19.7717917 6.02735294,18.3129722 C6.02735294,16.8541042 7.21995098,15.6715417 8.69098039,15.6715417 C10.1620098,15.6715417 11.3546078,16.8541042 11.3546078,18.3129722 Z M10.0227451,18.3129722 C10.0227451,17.5835625 9.42647059,16.9922569 8.69093137,16.9922569 C7.95539216,16.9922569 7.35906863,17.5835625 7.35906863,18.3129722 C7.35906863,19.0423819 7.95539216,19.6337361 8.69093137,19.6337361 C9.42647059,19.6337361 10.0227451,19.0423819 10.0227451,18.3129722 Z M6.39681373,15.6714931 L0.428088235,15.6714931 C0.191666667,15.6714931 0,15.8615625 0,16.0960139 L0,17.3839653 C0,17.6184167 0.191666667,17.8084861 0.428088235,17.8084861 L5.21230392,17.8084861 C5.33720588,16.9585694 5.76980392,16.2078194 6.39681373,15.6714931 Z M25.2910784,18.3129722 C25.2910784,19.7717917 24.0984804,20.9544028 22.627451,20.9544028 C21.1563725,20.9544028 19.9638235,19.7717917 19.9638235,18.3129722 C19.9638235,16.8541042 21.1563725,15.6715417 22.627451,15.6715417 C24.0984804,15.6715417 25.2910784,16.8541042 25.2910784,18.3129722 Z M23.9593137,18.3129722 C23.9593137,17.5835625 23.3629902,16.9922569 22.627451,16.9922569 C21.8918627,16.9922569 21.2956373,17.5835625 21.2956373,18.3129722 C21.2956373,19.0423819 21.8919118,19.6337361 22.627451,19.6337361 C23.3629902,19.6337361 23.9593137,19.0423819 23.9593137,18.3129722 Z M30,16.0960139 L30,17.3839653 C30,17.6184167 29.8083333,17.8084861 29.5719118,17.8084861 L26.1060294,17.8084861 C25.8581373,16.1225069 24.394951,14.8224514 22.627549,14.8224514 C20.8598039,14.8224514 19.3965686,16.1225556 19.1486765,17.8084861 L12.1696569,17.8084861 C12.0447059,16.9586181 11.6121569,16.2078194 10.9851471,15.6714931 L17.6025,15.6714931 L17.6025,3.528875 C17.6025,3.05997222 17.9858333,2.67983333 18.4586765,2.67983333 L22.500098,2.67983333 C23.6380392,2.67983333 24.7016176,3.24036806 25.3383333,4.17559722 L27.9437255,8.0023125 C28.3258824,8.563625 28.530098,9.22541667 28.530098,9.90271528 L28.530098,15.6714931 L29.5719118,15.6714931 C29.8083333,15.6714931 30,15.8615625 30,16.0960139 Z M25.6572549,8.1003125 L23.5738725,5.16454167 C23.4936765,5.05156944 23.3630882,4.98434028 23.2237745,4.98434028 L19.9740196,4.98434028 C19.7376471,4.98434028 19.5459314,5.17440972 19.5459314,5.40886111 L19.5459314,8.34463194 C19.5459314,8.57913194 19.737598,8.76915278 19.9740196,8.76915278 L25.3072549,8.76915278 C25.6540196,8.76915278 25.8568627,8.38157639 25.6572549,8.1003125 Z" id="Shape"></path>
                        </g>
                    </g>
                </g>
            </g>
        </g>
    </g>
</svg>
