<?xml version="1.0" encoding="UTF-8"?>
<svg width="230px" height="28px" viewBox="0 0 230 28" version="1.1" xmlns="http://www.w3.org/2000/svg" xmlns:xlink="http://www.w3.org/1999/xlink">
    <!-- Generator: Sketch 60 (88103) - https://sketch.com -->
    <title>EventFlowers</title>
    <desc>Created with Sketch.</desc>
    <g id="web" stroke="none" stroke-width="1" fill="none" fill-rule="evenodd">
        <g id="Artboard" transform="translate(-996.000000, -958.000000)" fill="#000000" fill-rule="nonzero">
            <path d="M1009.926,984.604 C1013.31,984.604 1014.174,983.128 1015.146,980.032 C1015.182,979.888 1015.218,979.744 1015.218,979.6 C1015.218,978.916 1014.642,978.52 1014.102,978.52 C1013.67,978.52 1013.238,978.772 1013.094,979.312 C1012.41,982.264 1011.222,982.552 1009.746,982.588 C1008.918,982.624 1007.622,982.624 1006.326,982.624 C1004.598,982.624 1002.906,982.624 1002.474,982.588 C1002.006,982.552 1001.682,982.264 1001.682,981.796 C1001.646,979.528 1001.646,974.992 1001.646,972.544 C1001.646,972.184 1001.826,972.076 1002.15,972.076 C1002.834,972.04 1003.662,972.04 1004.526,972.04 C1005.714,972.04 1006.902,972.04 1007.73,972.076 C1008.162,972.076 1008.45,972.436 1008.45,972.832 L1008.44916,973.297796 C1008.44706,973.646776 1008.43971,973.922286 1008.414,974.308 L1008.414,974.38 L1008.414,974.38 C1008.414,975.064 1008.918,975.388 1009.386,975.388 C1009.674,975.388 1010.43,975.28 1010.394,974.308 C1010.358,973.192 1010.322,972.004 1010.322,970.852 C1010.322,969.88 1010.358,968.944 1010.394,968.08 L1010.394,968.008 L1010.394,968.008 C1010.394,967.324 1009.926,967 1009.422,967 C1008.99,967 1008.378,967.252 1008.414,968.08 C1008.414,968.548 1008.45,968.836 1008.45,969.412 C1008.45,970.1248 1008.07092,970.19608 1006.15802,970.203208 L1004.42554,970.203317 C1003.49016,970.20144 1002.6348,970.1944 1002.186,970.168 C1001.826,970.168 1001.646,969.988 1001.646,969.664 C1001.682,967.432 1001.682,962.464 1001.718,961.384 C1001.718,960.844 1002.042,960.592 1002.51,960.592 L1005.31676,960.59254 C1010.59549,960.599426 1011.18665,960.694109 1011.654,961.996 C1011.87,962.608 1012.086,963.112 1012.194,963.688 C1012.302,964.264 1012.77,964.552 1013.202,964.552 C1013.778,964.552 1014.354,964.156 1014.354,963.472 C1014.354,963.184 1013.994,962.032 1013.67,961.204 C1012.95,959.26 1011.474,958.648 1009.206,958.648 C1006.794,958.684 1004.346,958.72 1001.898,958.72 C1000.386,958.72 998.91,958.72 997.434,958.648 L997.398,958.648 C996.678,958.648 996.282,959.152 996.318,959.656 C996.318,960.16 996.678,960.664 997.398,960.664 L997.434,960.664 C997.902,960.664 998.262,960.628 998.838,960.628 C999.27,960.628 999.522,960.88 999.522,961.348 L999.521095,972.598711 C999.518911,979.169815 999.511455,980.482909 999.486,981.832 C999.486,982.264 999.162,982.516 998.802,982.516 C998.226,982.516 997.794,982.48 997.326,982.48 L997.254,982.48 L997.254,982.48 C996.534,982.48 996.21,983.02 996.174,983.524 C996.174,983.776 996.39,984.64 997.326,984.604 C998.37,984.532 999.774,984.532 1001.358,984.532 C1003.914,984.532 1006.974,984.568 1009.782,984.604 L1009.926,984.604 L1009.926,984.604 Z M1026.522,984.784 C1027.242,984.784 1027.998,984.316 1028.358,983.344 C1029.438,980.608 1031.814,974.488 1033.326,970.528 C1033.434,970.204 1033.65,969.916 1034.082,969.916 C1034.622,969.916 1034.55,969.952 1035.054,969.952 L1035.09,969.952 C1035.702,969.952 1036.026,969.484 1036.026,969.016 C1036.026,968.116 1035.09,968.152 1035.018,968.152 C1034.082,968.188 1033.182,968.188 1032.318,968.188 C1031.49,968.188 1030.662,968.188 1029.798,968.152 L1029.726,968.152 L1029.726,968.152 C1029.078,968.152 1028.754,968.62 1028.754,969.052 C1028.754,969.484 1029.042,969.952 1029.654,969.952 C1029.798,969.952 1030.05,969.916 1030.338,969.916 C1031.166,969.916 1031.166,970.132 1031.166,970.384 C1031.166,970.42 1031.166,970.456 1031.13,970.492 C1029.978,973.768 1027.638,980.032 1026.918,981.868 C1026.81,982.192 1026.63,982.372 1026.45,982.372 C1026.27,982.372 1026.126,982.192 1025.982,981.796 C1025.298,979.852 1022.922,973.408 1021.878,970.492 C1021.842,970.42 1021.842,970.348 1021.842,970.276 C1021.842,970.06 1021.95,969.916 1022.238,969.916 C1022.814,969.916 1022.886,969.952 1023.318,969.952 C1023.93,969.952 1024.254,969.484 1024.254,969.016 C1024.254,968.584 1023.93,968.152 1023.282,968.152 L1023.21,968.152 L1023.21,968.152 C1022.346,968.188 1021.518,968.188 1020.654,968.188 C1019.826,968.188 1018.962,968.188 1017.99,968.152 L1017.918,968.152 L1017.918,968.152 C1017.27,968.152 1016.946,968.62 1016.946,969.088 C1016.946,969.484 1017.198,970.024 1017.882,969.988 C1018.386,969.988 1018.386,969.952 1018.926,969.952 C1019.394,969.952 1019.538,970.168 1019.682,970.6 C1020.726,973.48 1023.57,980.752 1024.614,983.344 C1025.01,984.28 1025.766,984.784 1026.522,984.784 Z M1046.934,985.036 C1051.47,985.036 1053.99,982.3 1053.99,981.472 C1053.99,980.896 1053.45,980.428 1052.91,980.428 C1052.658,980.428 1052.406,980.536 1052.19,980.752 C1051.074,982.012 1049.598,983.128 1046.97,983.128 C1043.514,983.128 1040.922,980.716 1040.922,976.792 C1040.922,976.288 1040.994,976.144 1041.354,976.144 C1042.146,976.144 1045.206,976.18 1047.906,976.18 C1049.238,976.18 1050.462,976.18 1051.29,976.144 C1053.126,976.072 1053.918,975.064 1053.918,973.732 C1053.918,971.68 1051.758,967.828 1046.826,967.828 C1042.578,967.828 1038.798,971.284 1038.798,976.54 C1038.798,981.616 1042.362,985.036 1046.934,985.036 Z M1047.123,974.415438 L1044.17732,974.415022 C1041.44989,974.408991 1041.21,974.365767 1041.21,974.056 C1041.21,972.724 1043.406,969.628 1046.862,969.628 C1050.534,969.628 1051.794,972.328 1051.794,973.372 C1051.794,973.948 1051.47,974.344 1050.606,974.38 C1049.85,974.407 1048.527,974.41375 1047.123,974.415438 Z M1057.842,984.568 C1058.67,984.532 1059.57,984.496 1060.47,984.496 C1061.37,984.496 1062.342,984.532 1063.278,984.568 L1063.314,984.568 C1063.998,984.568 1064.358,984.064 1064.358,983.596 C1064.358,983.02 1063.926,982.588 1063.278,982.624 C1062.774,982.66 1062.846,982.66 1062.306,982.66 C1061.874,982.66 1061.658,982.444 1061.658,982.048 C1061.658,980.356 1061.622,978.808 1061.622,977.476 C1061.622,976.18 1061.658,975.1 1061.658,974.416 C1061.766,971.572 1064.538,969.664 1067.058,969.664 C1069.074,969.664 1070.982,970.888 1071.162,973.876 C1071.18969,974.263692 1071.19608,974.949609 1071.19756,975.802664 L1071.19716,978.132816 C1071.19506,979.444245 1071.18771,980.829143 1071.162,982.012 C1071.162,982.408 1070.982,982.66 1070.622,982.66 C1070.046,982.66 1069.974,982.624 1069.542,982.624 L1069.506,982.624 C1068.822,982.624 1068.462,983.128 1068.462,983.632 C1068.462,984.028 1068.714,984.604 1069.542,984.568 C1070.37,984.532 1071.234,984.496 1072.134,984.496 C1073.07,984.496 1074.006,984.532 1074.942,984.568 L1074.978,984.568 C1075.662,984.568 1076.022,984.1 1076.022,983.596 C1076.022,983.092 1075.662,982.624 1074.978,982.624 L1074.942,982.624 C1074.438,982.624 1074.438,982.66 1073.898,982.66 C1073.502,982.66 1073.322,982.408 1073.322,982.012 L1073.32121,979.601056 C1073.31574,977.191947 1073.28287,974.636696 1073.25,973.552 C1073.106,969.628 1070.226,967.792 1067.238,967.792 C1065.222,967.792 1063.17,968.62 1061.91,970.24 C1061.838,970.312 1061.766,970.348 1061.73,970.348 C1061.622,970.348 1061.586,970.276 1061.55,970.168 C1061.37,968.836 1060.146,968.152 1058.706,968.152 L1057.662,968.152 C1056.978,968.152 1056.618,968.692 1056.618,969.196 C1056.618,969.7 1056.942,970.204 1057.59,970.204 L1057.662,970.204 L1057.662,970.204 C1058.13,970.168 1058.094,970.168 1058.418,970.168 C1059.282,970.204 1059.606,970.852 1059.606,971.788 C1059.606,973.336 1059.642,974.704 1059.642,976.036 C1059.642,977.908 1059.606,979.78 1059.57,982.048 C1059.57,982.444 1059.318,982.66 1058.958,982.66 C1058.382,982.66 1058.274,982.624 1057.842,982.624 L1057.806,982.624 C1057.122,982.624 1056.762,983.128 1056.762,983.632 C1056.762,984.028 1057.014,984.604 1057.842,984.568 Z M1085.67,985.036 C1087.11,985.036 1087.974,984.856 1087.974,983.92 C1087.974,983.452 1087.65,982.984 1087.11,982.984 L1086.966,982.984 L1086.966,982.984 C1086.606,983.02 1086.282,983.056 1085.958,983.056 C1083.15,983.056 1083.078,981.148 1083.078,978.34 C1083.078,975.676 1083.186,971.968 1083.186,970.6 C1083.186,970.168 1083.186,970.096 1083.762,970.096 L1086.93,970.096 C1087.614,970.096 1087.938,969.628 1087.938,969.124 C1087.938,968.656 1087.614,968.188 1086.93,968.188 L1083.726,968.188 C1083.258,968.188 1083.186,968.188 1083.186,967.792 C1083.186,967.792 1083.258,964.912 1083.258,963.868 C1083.258,963.112 1082.754,962.752 1082.214,962.752 C1081.71,962.752 1081.17,963.112 1081.17,963.796 L1081.16908,965.066962 C1081.16347,966.270776 1081.134,967.697714 1081.134,967.828 C1081.134,968.152 1081.062,968.188 1080.738,968.188 L1078.65,968.188 C1077.966,968.188 1077.642,968.656 1077.642,969.124 C1077.642,969.628 1077.966,970.096 1078.65,970.096 L1080.774,970.096 C1081.026,970.096 1081.134,970.132 1081.134,970.492 L1081.134,971.068 C1081.134,972.832 1081.062,977.224 1081.062,979.528 C1081.062,981.112 1081.062,985.036 1085.67,985.036 Z M1108.746,984.604 C1109.466,984.604 1109.826,984.064 1109.826,983.524 C1109.826,982.984 1109.502,982.48 1108.782,982.48 C1108.242,982.48 1107.99,982.516 1107.414,982.516 C1106.802,982.516 1106.55,982.228 1106.55,981.76 C1106.514,979.492 1106.478,974.848 1106.478,972.4 C1106.478,972.04 1106.694,971.968 1107.018,971.968 C1107.50657,971.942286 1108.10535,971.934939 1108.73561,971.93284 L1110.59291,971.932972 C1111.42476,971.93524 1112.1984,971.9428 1112.778,971.968 C1113.21,971.968 1113.462,972.292 1113.462,972.724 L1113.46116,973.189796 C1113.45906,973.538776 1113.45171,973.814286 1113.426,974.2 L1113.426,974.272 L1113.426,974.272 C1113.426,974.956 1113.93,975.28 1114.47,975.28 C1115.118,975.28 1115.514,974.74 1115.478,974.2 C1115.442,973.084 1115.406,971.86 1115.406,970.672 C1115.406,969.7 1115.442,968.728 1115.478,967.864 L1115.478,967.792 L1115.478,967.792 C1115.478,967.108 1114.974,966.784 1114.47,966.784 C1113.894,966.784 1113.426,967.216 1113.426,967.864 C1113.426,968.368 1113.462,968.656 1113.462,969.268 C1113.462,969.950244 1113.22745,970.016804 1110.29777,970.023298 L1109.25,970.024 C1108.314,970.024 1107.45,969.988 1107.018,969.988 C1106.658,969.988 1106.514,969.808 1106.514,969.484 C1106.54169,968.625538 1106.54808,967.383645 1106.54956,966.118811 L1106.55,961.384 L1106.55,961.384 C1106.55,960.675368 1106.66528,960.600776 1109.24239,960.592924 L1111.36319,960.59284 C1112.29678,960.594939 1113.24086,960.602286 1114.038,960.628 C1116.378,960.7 1116.702,962.032 1117.134,963.832 C1117.242,964.408 1117.674,964.66 1118.106,964.66 C1118.646,964.66 1119.222,964.264 1119.222,963.544 C1119.222,963.436 1119.222,963.328 1119.186,963.184 C1118.502,960.628 1117.962,958.648 1114.11,958.648 C1111.662,958.684 1109.214,958.72 1106.766,958.72 C1105.29,958.72 1103.778,958.72 1102.302,958.648 L1102.266,958.648 C1101.546,958.648 1101.186,959.152 1101.15,959.656 C1101.186,960.304 1101.726,960.7 1102.302,960.664 C1102.77,960.664 1103.13,960.628 1103.706,960.628 C1104.102,960.628 1104.39,960.916 1104.39,961.348 L1104.3891,972.598711 C1104.38691,979.169815 1104.37945,980.482909 1104.354,981.832 C1104.354,982.264 1103.994,982.516 1103.634,982.516 C1103.058,982.516 1102.662,982.48 1102.194,982.48 L1102.122,982.48 L1102.122,982.48 C1101.402,982.48 1101.078,982.984 1101.078,983.524 C1101.078,983.74 1101.114,984.604 1102.194,984.568 C1102.914,984.532 1103.706,984.496 1104.498,984.496 C1105.902,984.496 1107.342,984.568 1108.71,984.604 L1108.746,984.604 Z M1122.426,984.60415 C1123.29,984.568 1124.298,984.532 1125.306,984.532 C1126.314,984.532 1127.394,984.568 1128.366,984.60415 L1128.402,984.60415 C1129.122,984.60415 1129.482,984.1 1129.482,983.596 C1129.482,983.092 1129.122,982.588 1128.402,982.588 L1127.934,982.588 C1126.926,982.588 1126.458,982.516 1126.458,981.94 L1126.458,978.916 L1126.458,978.916 C1126.458,973.696 1126.494,965.56 1126.566,961.672 L1126.566,961.564 L1126.566,961.564 C1126.566,959.98 1125.81,958.648 1123.614,958.648 L1122.498,958.648 C1121.814,958.648 1121.454,959.188 1121.454,959.728 C1121.454,960.232 1121.742,960.7 1122.39,960.7 L1122.462,960.7 L1122.462,960.7 C1122.93,960.664 1122.93,960.664 1123.254,960.664 C1124.226,960.7 1124.442,961.168 1124.442,962.248 L1124.44108,968.509524 C1124.43525,973.359625 1124.40262,979.069 1124.37,981.94 C1124.37,982.624 1123.686,982.624 1123.11,982.624 C1122.93,982.624 1122.714,982.588 1122.426,982.588 L1122.39,982.588 C1121.67,982.588 1121.31,983.092 1121.31,983.596 C1121.31,984.64 1122.282,984.60415 1122.426,984.60415 Z M1140.534,985.036 C1145.322,985.036 1148.922,981.58 1148.922,976.396 C1148.922,971.392 1145.322,967.792 1140.534,967.792 C1135.746,967.792 1132.218,971.392 1132.218,976.396 C1132.218,981.58 1135.746,985.036 1140.534,985.036 Z M1140.534,983.128 C1137.078,983.128 1134.306,980.428 1134.306,976.396 C1134.306,972.328 1137.078,969.664 1140.534,969.664 C1143.99,969.664 1146.798,972.328 1146.798,976.396 C1146.798,980.428 1143.99,983.128 1140.534,983.128 Z M1161.702,984.82 C1162.422,984.82 1163.178,984.352 1163.574,983.38 C1163.97,982.408 1164.654,980.752 1165.338,979.168 C1166.058,980.752 1166.67,982.408 1167.066,983.344 C1167.462,984.28 1168.218,984.784 1168.974,984.784 C1169.73,984.784 1170.486,984.316 1170.918,983.38 C1172.178,980.644 1174.878,974.452 1176.642,970.492 C1176.786,970.168 1176.966,969.88 1177.398,969.88 L1177.71196,969.880972 C1177.85484,969.88324 1177.8372,969.8908 1178.19,969.916 L1178.226,969.916 C1178.766,969.916 1179.054,969.484 1179.054,969.052 C1179.054,968.584 1178.766,968.152 1178.19,968.152 L1178.154,968.152 C1177.182,968.188 1176.426,968.188 1175.67,968.188 C1174.95,968.188 1174.23,968.188 1173.366,968.152 L1173.33,968.152 C1172.754,968.152 1172.43,968.656 1172.43,969.124 C1172.43,969.844 1172.934,969.88 1173.114,969.88 C1173.33,969.88 1173.546,969.844 1173.798,969.844 C1173.798,969.844 1174.554,969.916 1174.554,970.312 C1174.554,970.852 1170.702,979.636 1169.478,982.12 C1169.334,982.48 1169.154,982.66 1168.974,982.66 C1168.794,982.66 1168.614,982.48 1168.434,982.084 C1168.074,981.256 1167.282,979.384 1166.418,977.44 C1166.382,977.368 1166.346,977.296 1166.346,977.188 C1166.346,977.152 1168.362,972.364 1169.118,970.672 C1169.406,969.988 1169.442,969.88 1170.702,969.772 C1171.134,969.7 1171.35,969.34 1171.35,968.98 C1171.35,968.584 1171.062,968.152 1170.522,968.152 L1170.486,968.152 C1169.658,968.188 1169.082,968.188 1168.506,968.188 C1167.966,968.188 1167.426,968.188 1166.634,968.152 L1166.562,968.152 L1166.562,968.152 C1166.058,968.152 1165.77,968.548 1165.77,968.944 C1165.77,969.376 1166.058,969.808 1166.562,969.808 C1167.282,969.808 1167.39,970.096 1167.39,970.132 L1167.39,970.204 L1167.39,970.204 C1167.39,970.456 1165.518,975.208 1165.338,975.208 C1165.23,975.208 1163.214,970.636 1163.214,970.204 C1163.214,970.132 1163.214,970.06 1163.286,969.988 C1163.322,969.916 1163.43,969.844 1164.042,969.844 C1164.51,969.844 1164.798,969.376 1164.798,968.98 C1164.798,968.548 1164.546,968.152 1164.006,968.152 L1163.934,968.152 L1163.934,968.152 C1163.142,968.188 1162.602,968.188 1162.062,968.188 C1161.522,968.188 1160.982,968.188 1160.154,968.152 L1160.118,968.152 C1159.542,968.152 1159.29,968.584 1159.29,969.016 C1159.29,969.448 1159.542,969.88 1160.046,969.88 L1160.35477,969.880997 C1161.04491,969.888471 1161.15141,969.952 1161.342,970.492 C1161.954,971.896 1163.106,974.452 1164.258,977.008 C1164.294,977.08 1164.33,977.188 1164.33,977.26 C1164.33,977.548 1162.458,981.544 1162.17,982.156 C1162.026,982.48 1161.846,982.66 1161.666,982.66 C1161.486,982.66 1161.306,982.444 1161.162,982.084 C1160.37,980.14 1157.31,973.444 1156.122,970.492 C1156.086,970.42 1156.086,970.348 1156.086,970.312 C1156.086,969.916 1156.446,969.88 1156.77,969.88 C1156.95,969.88 1157.202,969.916 1157.382,969.916 C1158.138,969.916 1158.282,969.52 1158.282,969.088 C1158.282,968.62 1157.958,968.152 1157.346,968.152 L1157.31,968.152 C1156.446,968.188 1155.726,968.188 1155.006,968.188 C1154.25,968.188 1153.53,968.188 1152.558,968.152 L1152.486,968.152 L1152.486,968.152 C1151.874,968.152 1151.586,968.584 1151.586,969.016 C1151.586,969.484 1151.874,969.916 1152.486,969.916 C1152.666,969.916 1152.918,969.88 1153.134,969.88 C1153.782,969.88 1153.89,970.168 1154.07,970.6 C1155.402,973.768 1158.642,980.788 1159.794,983.38 C1160.226,984.316 1160.946,984.82 1161.702,984.82 Z M1189.962,985.036 C1194.498,985.036 1197.018,982.3 1197.018,981.472 C1197.018,980.896 1196.478,980.428 1195.938,980.428 C1195.686,980.428 1195.434,980.536 1195.218,980.752 C1194.102,982.012 1192.626,983.128 1189.998,983.128 C1186.542,983.128 1183.95,980.716 1183.95,976.792 C1183.95,976.288 1184.022,976.144 1184.382,976.144 C1185.174,976.144 1188.234,976.18 1190.934,976.18 C1192.266,976.18 1193.49,976.18 1194.318,976.144 C1196.154,976.072 1196.946,975.064 1196.946,973.732 C1196.946,971.68 1194.786,967.828 1189.854,967.828 C1185.606,967.828 1181.826,971.284 1181.826,976.54 C1181.826,981.616 1185.39,985.036 1189.962,985.036 Z M1190.151,974.415438 L1187.20532,974.415022 C1184.47789,974.408991 1184.238,974.365767 1184.238,974.056 C1184.238,972.724 1186.434,969.628 1189.89,969.628 C1193.562,969.628 1194.822,972.328 1194.822,973.372 C1194.822,973.948 1194.498,974.344 1193.634,974.38 C1192.878,974.407 1191.555,974.41375 1190.151,974.415438 Z M1201.086,984.568 C1201.914,984.532 1202.886,984.496 1203.858,984.496 C1204.83,984.496 1205.874,984.532 1206.81,984.568 L1206.846,984.568 C1207.53,984.568 1207.89,984.064 1207.89,983.596 C1207.89,983.02 1207.422,982.588 1206.81,982.624 C1206.306,982.66 1206.162,982.66 1205.622,982.66 C1205.226,982.66 1205.01,982.372 1205.01,982.012 C1205.01,980.284 1204.974,978.664 1204.974,977.296 C1204.974,975.928 1205.01,974.812 1205.01,974.128 C1205.082,971.464 1207.782,969.844 1210.266,969.844 L1210.482,969.844 C1211.13,969.844 1211.49,969.34 1211.49,968.836 C1211.49,968.152 1210.986,967.792 1210.302,967.828 C1208.25,967.9 1206.162,968.728 1205.19,970.06 C1205.118,970.132 1205.046,970.168 1204.974,970.168 C1204.938,970.168 1204.866,970.168 1204.866,970.06 C1204.65,968.764 1203.462,968.152 1202.022,968.152 L1201.014,968.152 C1200.33,968.152 1200.006,968.656 1200.006,969.196 C1200.006,969.7 1200.33,970.204 1200.978,970.204 L1201.014,970.204 C1201.482,970.168 1201.446,970.168 1201.77,970.168 C1202.67,970.204 1202.958,970.852 1202.958,971.824 L1202.958,974.632 L1202.958,974.632 C1202.958,977.044 1202.922,979.24 1202.886,982.012 C1202.886,982.408 1202.67,982.66 1202.31,982.66 C1201.734,982.66 1201.554,982.624 1201.086,982.624 L1201.05,982.624 C1200.366,982.624 1200.006,983.128 1200.006,983.632 C1200.006,984.028 1200.258,984.604 1201.086,984.568 Z M1219.986,985.072 C1224.09,985.072 1225.674,982.408 1225.674,980.428 C1225.674,978.808 1224.702,977.116 1222.47,975.964 C1221.354,975.388 1219.626,974.668 1218.618,974.2 C1217.43,973.624 1216.854,972.688 1216.854,971.824 C1216.854,970.636 1217.898,969.52 1219.77,969.52 L1219.8326,969.520494 C1220.33211,969.528889 1223.19,969.68 1223.19,972.4 C1223.19,973.048 1223.694,973.336 1224.198,973.336 C1224.342,973.336 1225.098,973.228 1225.098,972.472 L1225.098,972.4 L1225.098,972.4 C1225.07,971.756 1225.06378,971.286222 1225.0624,970.872099 L1225.06256,970.12525 C1225.06425,969.72025 1225.071,969.295 1225.098,968.728 L1225.098,968.692 C1225.098,968.116 1224.666,967.828 1224.198,967.828 C1223.838,967.828 1223.478,968.008 1223.37,968.404 C1223.334,968.512 1223.37,968.836 1223.19,968.836 C1223.118,968.836 1223.046,968.836 1222.974,968.764 C1222.434,968.332 1221.102,967.792 1219.806,967.792 C1216.602,967.792 1214.91,969.844 1214.91,971.932 C1214.91,973.516 1215.846,975.1 1217.826,975.928 C1222.002,977.656 1223.586,978.52 1223.586,980.428 C1223.586,982.156 1221.822,983.2 1219.986,983.2 C1217.934,983.2 1216.134,982.012 1216.134,980.824 C1216.134,980.572 1216.206,980.392 1216.206,980.14 C1216.206,979.492 1215.738,979.168 1215.234,979.168 C1214.73,979.168 1214.226,979.492 1214.226,980.104 L1214.226,980.176 L1214.226,980.176 C1214.262,981.04 1214.298,981.58 1214.298,982.12 C1214.298,982.66 1214.262,983.2 1214.226,983.992 L1214.226,984.064 L1214.226,984.064 C1214.226,984.64 1214.694,984.928 1215.162,984.928 C1215.594,984.928 1216.026,984.82 1216.026,983.92 C1216.026,983.812 1216.062,983.74 1216.134,983.74 C1216.206,983.74 1216.314,983.812 1216.386,983.884 C1217.142,984.532 1218.438,985.072 1219.986,985.072 Z" id="EventFlowers"></path>
        </g>
    </g>
</svg>
