<?xml version="1.0" encoding="UTF-8"?>
<svg width="93px" height="35px" viewBox="0 0 93 35" version="1.1" xmlns="http://www.w3.org/2000/svg" xmlns:xlink="http://www.w3.org/1999/xlink">
    <!-- Generator: Sketch 60 (88103) - https://sketch.com -->
    <title>FAQs</title>
    <desc>Created with Sketch.</desc>
    <g id="web" stroke="none" stroke-width="1" fill="none" fill-rule="evenodd">
        <g id="Artboard" transform="translate(-663.000000, -650.000000)" fill="#000000" fill-rule="nonzero">
            <path d="M671.602,676.604 C672.322,676.604 672.682,676.064 672.682,675.524 C672.682,674.984 672.358,674.48 671.638,674.48 C671.098,674.48 670.846,674.516 670.27,674.516 C669.658,674.516 669.406,674.228 669.406,673.76 C669.37,671.492 669.334,666.848 669.334,664.4 C669.334,664.04 669.55,663.968 669.874,663.968 C670.362571,663.942286 670.961347,663.934939 671.591609,663.93284 L673.448908,663.932972 C674.28076,663.93524 675.0544,663.9428 675.634,663.968 C676.066,663.968 676.318,664.292 676.318,664.724 L676.31716,665.189796 C676.315061,665.538776 676.307714,665.814286 676.282,666.2 L676.282,666.272 L676.282,666.272 C676.282,666.956 676.786,667.28 677.326,667.28 C677.974,667.28 678.37,666.74 678.334,666.2 C678.298,665.084 678.262,663.86 678.262,662.672 C678.262,661.7 678.298,660.728 678.334,659.864 L678.334,659.792 L678.334,659.792 C678.334,659.108 677.83,658.784 677.326,658.784 C676.75,658.784 676.282,659.216 676.282,659.864 C676.282,660.368 676.318,660.656 676.318,661.268 C676.318,661.950244 676.083454,662.016804 673.153773,662.023298 L672.106,662.024 C671.17,662.024 670.306,661.988 669.874,661.988 C669.514,661.988 669.37,661.808 669.37,661.484 C669.397692,660.625538 669.404083,659.383645 669.405558,658.118811 L669.406,653.384 L669.406,653.384 C669.406,652.675368 669.52128,652.600776 672.09839,652.592924 L674.21919,652.59284 C675.152776,652.594939 676.096857,652.602286 676.894,652.628 C679.234,652.7 679.558,654.032 679.99,655.832 C680.098,656.408 680.53,656.66 680.962,656.66 C681.502,656.66 682.078,656.264 682.078,655.544 C682.078,655.436 682.078,655.328 682.042,655.184 C681.358,652.628 680.818,650.648 676.966,650.648 C674.518,650.684 672.07,650.72 669.622,650.72 C668.146,650.72 666.634,650.72 665.158,650.648 L665.122,650.648 C664.402,650.648 664.042,651.152 664.006,651.656 C664.042,652.304 664.582,652.7 665.158,652.664 C665.626,652.664 665.986,652.628 666.562,652.628 C666.958,652.628 667.246,652.916 667.246,653.348 L667.245095,664.598711 C667.242911,671.169815 667.235455,672.482909 667.21,673.832 C667.21,674.264 666.85,674.516 666.49,674.516 C665.914,674.516 665.518,674.48 665.05,674.48 L664.978,674.48 L664.978,674.48 C664.258,674.48 663.934,674.984 663.934,675.524 C663.934,675.74 663.97,676.604 665.05,676.568 C665.77,676.532 666.562,676.496 667.354,676.496 C668.758,676.496 670.198,676.568 671.566,676.604 L671.602,676.604 Z M691.474,676.604 C692.194,676.604 692.554,676.1 692.554,675.56 C692.554,674.948 692.014,674.516 691.402,674.516 C690.862,674.552 690.646,674.552 690.07,674.552 C689.638,674.552 689.422,674.336 689.422,674.048 C689.422,673.904 690.862,669.224 691.294,667.856 C691.366,667.568 691.474,667.352 691.87,667.352 C692.374,667.316 694.642,667.316 696.91,667.316 C699.178,667.316 701.446,667.316 701.986,667.352 C702.382,667.352 702.49,667.532 702.598,667.82 C703.282,669.836 704.11,672.176 704.686,673.796 C704.722,673.868 704.722,673.94 704.722,674.012 C704.722,674.336 704.47,674.552 704.074,674.552 C703.498,674.552 703.246,674.516 702.706,674.516 L702.67,674.516 C701.986,674.516 701.626,675.056 701.626,675.56 C701.626,675.74 701.662,676.64 702.742,676.604 C703.75,676.568 704.866,676.532 705.946,676.532 C707.062,676.532 708.142,676.568 709.114,676.604 L709.186,676.604 L709.186,676.604 C709.906,676.604 710.266,676.1 710.266,675.56 C710.266,674.948 709.726,674.516 709.114,674.516 C708.754,674.516 708.538,674.552 708.178,674.552 C707.89,674.552 707.35,674.552 706.99,673.688 C705.262,669.224 701.41,658.244 699.358,652.412 C698.89,651.116 697.846,650.432 696.838,650.432 C695.866,650.432 694.894,651.044 694.462,652.34 C692.878,656.912 689.242,667.136 687.118,673.796 C686.974,674.264 686.578,674.552 686.218,674.552 C685.642,674.552 685.462,674.516 684.994,674.516 L684.958,674.516 C684.274,674.516 683.95,675.02 683.95,675.56 C683.95,675.992 684.238,676.64 685.066,676.604 C686.074,676.568 687.226,676.532 688.414,676.532 C689.422,676.532 690.43,676.568 691.402,676.604 L691.474,676.604 L691.474,676.604 Z M697.586745,665.479231 L696.560035,665.479231 C694.797901,665.473752 693.116909,665.444 692.626,665.444 C692.338,665.444 692.23,665.336 692.23,665.192 C692.23,664.724 695.542,655.22 696.118,653.636 C696.334,653.06 696.658,652.772 696.946,652.772 C697.234,652.772 697.522,653.024 697.666,653.492 C698.242,655.292 700.474,661.52 701.59,664.904 C701.626,665.012 701.662,665.12 701.662,665.192 C701.662,665.336 701.554,665.444 701.302,665.444 C700.940435,665.444 699.318393,665.474011 697.586745,665.479231 Z M738.958,684.092 C739.966,684.092 740.434,683.48 740.434,682.868 C740.434,682.328 740.038,681.788 739.318,681.788 C736.474,681.752 733.882,681.284 728.842,677.468 C728.626,677.324 728.554,677.18 728.554,677.108 C728.554,676.964 728.806,676.892 729.13,676.82 C735.574,675.668 739.822,670.628 739.822,663.608 C739.822,655.796 734.242,650.18 726.754,650.18 C719.266,650.18 713.65,655.796 713.65,663.608 C713.65,669.908 717.034,674.48 722.002,676.244 C723.082,676.64 723.91,676.712 724.702,677.108 C725.35,677.432 726.034,677.936 726.79,678.512 C730.75,681.536 734.494,684.056 738.958,684.092 Z M726.754,675.02 C720.814,675.02 715.99,670.448 715.99,663.608 C715.99,656.732 720.814,652.124 726.754,652.124 C732.694,652.124 737.518,656.732 737.518,663.608 C737.518,670.448 732.694,675.02 726.754,675.02 Z M750.262,677.072 C754.366,677.072 755.95,674.408 755.95,672.428 C755.95,670.808 754.978,669.116 752.746,667.964 C751.63,667.388 749.902,666.668 748.894,666.2 C747.706,665.624 747.13,664.688 747.13,663.824 C747.13,662.636 748.174,661.52 750.046,661.52 L750.108605,661.520494 C750.608111,661.528889 753.466,661.68 753.466,664.4 C753.466,665.048 753.97,665.336 754.474,665.336 C754.618,665.336 755.374,665.228 755.374,664.472 L755.374,664.4 L755.374,664.4 C755.346,663.756 755.339778,663.286222 755.338395,662.872099 L755.338562,662.12525 C755.34025,661.72025 755.347,661.295 755.374,660.728 L755.374,660.692 C755.374,660.116 754.942,659.828 754.474,659.828 C754.114,659.828 753.754,660.008 753.646,660.404 C753.61,660.512 753.646,660.836 753.466,660.836 C753.394,660.836 753.322,660.836 753.25,660.764 C752.71,660.332 751.378,659.792 750.082,659.792 C746.878,659.792 745.186,661.844 745.186,663.932 C745.186,665.516 746.122,667.1 748.102,667.928 C752.278,669.656 753.862,670.52 753.862,672.428 C753.862,674.156 752.098,675.2 750.262,675.2 C748.21,675.2 746.41,674.012 746.41,672.824 C746.41,672.572 746.482,672.392 746.482,672.14 C746.482,671.492 746.014,671.168 745.51,671.168 C745.006,671.168 744.502,671.492 744.502,672.104 L744.502,672.176 L744.502,672.176 C744.538,673.04 744.574,673.58 744.574,674.12 C744.574,674.66 744.538,675.2 744.502,675.992 L744.502,676.064 L744.502,676.064 C744.502,676.64 744.97,676.928 745.438,676.928 C745.87,676.928 746.302,676.82 746.302,675.92 C746.302,675.812 746.338,675.74 746.41,675.74 C746.482,675.74 746.59,675.812 746.662,675.884 C747.418,676.532 748.714,677.072 750.262,677.072 Z" id="FAQs"></path>
        </g>
    </g>
</svg>