<?xml version="1.0" encoding="UTF-8"?>
<svg width="161px" height="37px" viewBox="0 0 161 37" version="1.1" xmlns="http://www.w3.org/2000/svg" xmlns:xlink="http://www.w3.org/1999/xlink">
    <!-- Generator: Sketch 60 (88103) - https://sketch.com -->
    <title>Instagram</title>
    <desc>Created with Sketch.</desc>
    <g id="web" stroke="none" stroke-width="1" fill="none" fill-rule="evenodd">
        <g id="Artboard" transform="translate(-975.000000, -650.000000)" fill="#000000" fill-rule="nonzero">
            <path d="M976.39,676.568 C977.434,676.532 978.73,676.496 980.098,676.496 C981.214,676.496 982.33,676.532 983.302,676.568 L983.374,676.568 L983.374,676.568 C984.094,676.568 984.454,676.028 984.454,675.524 C984.454,675.236 984.238,674.408 983.302,674.444 C982.762,674.48 982.294,674.48 981.682,674.48 C981.214,674.48 981.034,674.156 981.034,673.796 C980.998,670.304 980.998,666.74 980.998,663.284 C980.998,659.828 980.998,656.444 981.034,653.384 C981.034,652.988 981.25,652.664 981.718,652.664 C982.33,652.664 982.798,652.664 983.338,652.7 L983.41,652.7 L983.41,652.7 C984.13,652.7 984.454,652.196 984.49,651.692 C984.49,651.548 984.418,650.612 983.338,650.648 C982.186,650.684 980.782,650.72 979.414,650.72 C978.298,650.72 977.218,650.684 976.39,650.648 L976.318,650.648 L976.318,650.648 C975.598,650.648 975.274,651.152 975.238,651.656 C975.274,652.664 976.174,652.7 976.39,652.7 C976.822,652.7 977.434,652.664 978.01,652.664 C978.442,652.664 978.73,652.952 978.73,653.384 C978.802,655.904 978.802,658.604 978.802,661.34 C978.802,665.516 978.766,669.8 978.694,673.796 C978.694,674.264 978.478,674.48 977.974,674.48 C977.398,674.48 976.822,674.444 976.39,674.444 L976.354,674.444 C975.634,674.444 975.274,674.984 975.274,675.524 C975.274,676.316 975.85,676.604 976.39,676.568 Z M987.55,676.568 C988.378,676.532 989.278,676.496 990.178,676.496 C991.078,676.496 992.05,676.532 992.986,676.568 L993.022,676.568 C993.706,676.568 994.066,676.064 994.066,675.596 C994.066,675.02 993.634,674.588 992.986,674.624 C992.482,674.66 992.554,674.66 992.014,674.66 C991.582,674.66 991.366,674.444 991.366,674.048 C991.366,672.356 991.33,670.808 991.33,669.476 C991.33,668.18 991.366,667.1 991.366,666.416 C991.474,663.572 994.246,661.664 996.766,661.664 C998.782,661.664 1000.69,662.888 1000.87,665.876 C1000.89769,666.263692 1000.90408,666.949609 1000.90556,667.802664 L1000.90516,670.132816 C1000.90306,671.444245 1000.89571,672.829143 1000.87,674.012 C1000.87,674.408 1000.69,674.66 1000.33,674.66 C999.754,674.66 999.682,674.624 999.25,674.624 L999.214,674.624 C998.53,674.624 998.17,675.128 998.17,675.632 C998.17,676.028 998.422,676.604 999.25,676.568 C1000.078,676.532 1000.942,676.496 1001.842,676.496 C1002.778,676.496 1003.714,676.532 1004.65,676.568 L1004.686,676.568 C1005.37,676.568 1005.73,676.1 1005.73,675.596 C1005.73,675.092 1005.37,674.624 1004.686,674.624 L1004.65,674.624 C1004.146,674.624 1004.146,674.66 1003.606,674.66 C1003.21,674.66 1003.03,674.408 1003.03,674.012 L1003.02921,671.601056 C1003.02374,669.191947 1002.99087,666.636696 1002.958,665.552 C1002.814,661.628 999.934,659.792 996.946,659.792 C994.93,659.792 992.878,660.62 991.618,662.24 C991.546,662.312 991.474,662.348 991.438,662.348 C991.33,662.348 991.294,662.276 991.258,662.168 C991.078,660.836 989.854,660.152 988.414,660.152 L987.37,660.152 C986.686,660.152 986.326,660.692 986.326,661.196 C986.326,661.7 986.65,662.204 987.298,662.204 L987.37,662.204 L987.37,662.204 C987.838,662.168 987.802,662.168 988.126,662.168 C988.99,662.204 989.314,662.852 989.314,663.788 C989.314,665.336 989.35,666.704 989.35,668.036 C989.35,669.908 989.314,671.78 989.278,674.048 C989.278,674.444 989.026,674.66 988.666,674.66 C988.09,674.66 987.982,674.624 987.55,674.624 L987.514,674.624 C986.83,674.624 986.47,675.128 986.47,675.632 C986.47,676.028 986.722,676.604 987.55,676.568 Z M1014.19,677.072 C1018.294,677.072 1019.878,674.408 1019.878,672.428 C1019.878,670.808 1018.906,669.116 1016.674,667.964 C1015.558,667.388 1013.83,666.668 1012.822,666.2 C1011.634,665.624 1011.058,664.688 1011.058,663.824 C1011.058,662.636 1012.102,661.52 1013.974,661.52 L1014.0366,661.520494 C1014.53611,661.528889 1017.394,661.68 1017.394,664.4 C1017.394,665.048 1017.898,665.336 1018.402,665.336 C1018.546,665.336 1019.302,665.228 1019.302,664.472 L1019.302,664.4 L1019.302,664.4 C1019.266,663.572 1019.266,663.032 1019.266,662.528 C1019.266,661.988 1019.266,661.484 1019.302,660.728 L1019.302,660.692 C1019.302,660.116 1018.87,659.828 1018.402,659.828 C1018.042,659.828 1017.682,660.008 1017.574,660.404 C1017.538,660.512 1017.574,660.836 1017.394,660.836 C1017.322,660.836 1017.25,660.836 1017.178,660.764 C1016.638,660.332 1015.306,659.792 1014.01,659.792 C1010.806,659.792 1009.114,661.844 1009.114,663.932 C1009.114,665.516 1010.05,667.1 1012.03,667.928 C1016.206,669.656 1017.79,670.52 1017.79,672.428 C1017.79,674.156 1016.026,675.2 1014.19,675.2 C1012.138,675.2 1010.338,674.012 1010.338,672.824 C1010.338,672.572 1010.41,672.392 1010.41,672.14 C1010.41,671.492 1009.942,671.168 1009.438,671.168 C1008.934,671.168 1008.43,671.492 1008.43,672.104 L1008.43,672.176 L1008.43,672.176 C1008.466,673.04 1008.502,673.58 1008.502,674.12 C1008.502,674.66 1008.466,675.2 1008.43,675.992 L1008.43,676.064 L1008.43,676.064 C1008.43,676.64 1008.898,676.928 1009.366,676.928 C1009.798,676.928 1010.23,676.82 1010.23,675.92 C1010.23,675.812 1010.266,675.74 1010.338,675.74 C1010.41,675.74 1010.518,675.812 1010.59,675.884 C1011.346,676.532 1012.642,677.072 1014.19,677.072 Z M1030.822,677.036 C1032.262,677.036 1033.126,676.856 1033.126,675.92 C1033.126,675.452 1032.802,674.984 1032.262,674.984 L1032.118,674.984 L1032.118,674.984 C1031.758,675.02 1031.434,675.056 1031.11,675.056 C1028.446,675.056 1028.24458,673.338675 1028.23093,670.764763 L1028.23,670.34 C1028.23,667.676 1028.338,663.968 1028.338,662.6 C1028.338,662.168 1028.338,662.096 1028.914,662.096 L1032.082,662.096 C1032.766,662.096 1033.09,661.628 1033.09,661.124 C1033.09,660.656 1032.766,660.188 1032.082,660.188 L1028.878,660.188 C1028.41,660.188 1028.338,660.188 1028.338,659.792 C1028.338,659.792 1028.41,656.912 1028.41,655.868 C1028.41,655.112 1027.906,654.752 1027.366,654.752 C1026.862,654.752 1026.322,655.112 1026.322,655.796 L1026.32108,657.066962 C1026.31547,658.270776 1026.286,659.697714 1026.286,659.828 C1026.286,660.152 1026.214,660.188 1025.89,660.188 L1023.802,660.188 C1023.118,660.188 1022.794,660.656 1022.794,661.124 C1022.794,661.628 1023.118,662.096 1023.802,662.096 L1025.926,662.096 C1026.178,662.096 1026.286,662.132 1026.286,662.492 L1026.286,663.068 L1026.286,663.068 C1026.286,664.755304 1026.22012,668.847055 1026.2144,671.216025 L1026.21494,671.830545 C1026.22994,673.560069 1026.48506,677.036 1030.822,677.036 Z M1042.414,677.036 C1044.502,677.036 1046.806,675.992 1047.886,674.264 C1047.922,674.192 1047.994,674.156 1048.03,674.156 C1048.102,674.156 1048.138,674.228 1048.174,674.336 C1048.498,675.668 1049.794,676.64 1050.838,676.64 C1051.45,676.64 1051.81,676.136 1051.81,675.632 C1051.81,675.272 1051.63,674.876 1051.198,674.732 C1049.758,674.228 1049.506,673.364 1049.506,670.736 C1049.506,669.368 1049.578,667.496 1049.686,666.308 C1049.722,665.948 1049.722,665.624 1049.722,665.3 C1049.722,661.268 1047.454,659.792 1044.106,659.792 C1041.01,659.792 1037.986,661.34 1037.986,662.708 C1037.986,663.284 1038.454,663.68 1038.994,663.68 C1039.246,663.68 1039.534,663.572 1039.75,663.32 C1040.578,662.42 1042.018,661.592 1043.962,661.592 C1046.878,661.592 1047.706,663.14 1047.706,665.12 C1047.706,665.3 1047.67,665.516 1047.67,665.696 C1047.67,665.948 1047.526,666.056 1047.094,666.128 C1045.582,666.38 1042.666,666.92 1040.434,667.604 C1037.77,668.432 1036.582,670.268 1036.582,672.068 C1036.582,674.552 1038.778,677.036 1042.414,677.036 Z M1042.378,675.128 C1039.966,675.128 1038.526,673.616 1038.526,672.104 C1038.526,669.584 1041.514,668.864 1047.166,667.964 L1047.274,667.964 L1047.274,667.964 C1047.526,667.964 1047.634,668.072 1047.634,668.36 L1047.634,668.828 L1047.634,668.828 C1047.634,674.372 1044.214,675.128 1042.378,675.128 Z M1062.898,686.216 C1067.254,686.216 1071.358,683.48 1071.394,677.504 L1071.39339,677.024251 C1071.38867,674.953325 1071.358,671.129231 1071.358,668.072 C1071.358,666.452 1071.358,665.012 1071.394,664.256 C1071.43,662.816 1071.97,662.276 1072.69,662.24 L1073.338,662.24 C1073.914,662.24 1074.202,661.736 1074.202,661.232 C1074.202,660.404 1073.698,660.152 1072.69,660.152 C1070.854,660.152 1069.738,661.34 1069.63,662.708 C1069.594,662.996 1069.558,663.104 1069.522,663.104 C1069.486,663.104 1069.378,662.888 1069.162,662.6 C1067.938,660.908 1065.49,659.828 1063.222,659.828 C1058.542,659.828 1055.014,663.32 1055.014,668.396 C1055.014,673.544 1058.506,676.964 1063.186,676.964 C1065.346,676.964 1067.614,675.956 1069.054,674.12 C1069.198,673.904 1069.306,673.796 1069.342,673.796 C1069.369,673.796 1069.37575,673.85675 1069.37744,674.023812 L1069.378,677.54 C1069.342,682.364 1066.174,684.2 1063.042,684.2 C1061.026,684.2 1059.046,683.444 1057.93,682.256 C1057.714,682.04 1057.462,681.932 1057.21,681.932 C1056.598,681.932 1056.022,682.472 1056.022,683.12 C1056.022,684.596 1060.126,686.216 1062.898,686.216 Z M1063.258,675.02 C1059.658,675.02 1057.138,672.5 1057.138,668.396 C1057.138,664.292 1059.658,661.736 1063.294,661.736 C1066.822,661.736 1069.378,664.292 1069.378,668.396 C1069.378,672.428 1066.642,675.02 1063.258,675.02 Z M1077.154,676.568 C1077.982,676.532 1078.954,676.496 1079.926,676.496 C1080.898,676.496 1081.942,676.532 1082.878,676.568 L1082.914,676.568 C1083.598,676.568 1083.958,676.064 1083.958,675.596 C1083.958,675.02 1083.49,674.588 1082.878,674.624 C1082.374,674.66 1082.23,674.66 1081.69,674.66 C1081.294,674.66 1081.078,674.372 1081.078,674.012 C1081.078,672.284 1081.042,670.664 1081.042,669.296 C1081.042,667.928 1081.078,666.812 1081.078,666.128 C1081.15,663.464 1083.85,661.844 1086.334,661.844 L1086.55,661.844 C1087.198,661.844 1087.558,661.34 1087.558,660.836 C1087.558,660.152 1087.054,659.792 1086.37,659.828 C1084.318,659.9 1082.23,660.728 1081.258,662.06 C1081.186,662.132 1081.114,662.168 1081.042,662.168 C1081.006,662.168 1080.934,662.168 1080.934,662.06 C1080.718,660.764 1079.53,660.152 1078.09,660.152 L1077.082,660.152 C1076.398,660.152 1076.074,660.656 1076.074,661.196 C1076.074,661.7 1076.398,662.204 1077.046,662.204 L1077.082,662.204 C1077.55,662.168 1077.514,662.168 1077.838,662.168 C1078.738,662.204 1079.026,662.852 1079.026,663.824 L1079.026,666.632 L1079.026,666.632 C1079.026,669.044 1078.99,671.24 1078.954,674.012 C1078.954,674.408 1078.738,674.66 1078.378,674.66 C1077.802,674.66 1077.622,674.624 1077.154,674.624 L1077.118,674.624 C1076.434,674.624 1076.074,675.128 1076.074,675.632 C1076.074,676.028 1076.326,676.604 1077.154,676.568 Z M1096.198,677.036 C1098.286,677.036 1100.59,675.992 1101.67,674.264 C1101.706,674.192 1101.778,674.156 1101.814,674.156 C1101.886,674.156 1101.922,674.228 1101.958,674.336 C1102.282,675.668 1103.578,676.64 1104.622,676.64 C1105.234,676.64 1105.594,676.136 1105.594,675.632 C1105.594,675.272 1105.414,674.876 1104.982,674.732 C1103.542,674.228 1103.29,673.364 1103.29,670.736 C1103.29,669.368 1103.362,667.496 1103.47,666.308 C1103.506,665.948 1103.506,665.624 1103.506,665.3 C1103.506,661.268 1101.238,659.792 1097.89,659.792 C1094.794,659.792 1091.77,661.34 1091.77,662.708 C1091.77,663.284 1092.238,663.68 1092.778,663.68 C1093.03,663.68 1093.318,663.572 1093.534,663.32 C1094.362,662.42 1095.802,661.592 1097.746,661.592 C1100.662,661.592 1101.49,663.14 1101.49,665.12 C1101.49,665.3 1101.454,665.516 1101.454,665.696 C1101.454,665.948 1101.31,666.056 1100.878,666.128 C1099.366,666.38 1096.45,666.92 1094.218,667.604 C1091.554,668.432 1090.366,670.268 1090.366,672.068 C1090.366,674.552 1092.562,677.036 1096.198,677.036 Z M1096.162,675.128 C1093.75,675.128 1092.31,673.616 1092.31,672.104 C1092.31,669.584 1095.298,668.864 1100.95,667.964 L1101.058,667.964 L1101.058,667.964 C1101.31,667.964 1101.418,668.072 1101.418,668.36 L1101.418,668.828 L1101.418,668.828 C1101.418,674.372 1097.998,675.128 1096.162,675.128 Z M1129.678,676.568 C1130.506,676.532 1131.334,676.496 1132.234,676.496 C1133.098,676.496 1134.034,676.532 1134.934,676.568 L1134.97,676.568 C1135.618,676.568 1135.942,676.1 1135.942,675.596 C1135.942,675.128 1135.618,674.66 1134.97,674.66 L1134.934,674.66 C1134.43,674.66 1134.538,674.696 1133.998,674.696 C1133.602,674.696 1133.422,674.444 1133.422,674.084 C1133.422,671.276 1133.386,666.704 1133.35,665.192 C1133.242,661.664 1130.686,659.792 1127.95,659.792 C1125.898,659.792 1123.738,660.836 1122.37,662.96 C1121.614,660.836 1119.634,659.828 1117.618,659.828 C1115.818,659.828 1113.982,660.584 1112.794,662.06 L1112.72819,662.125813 C1112.72425,662.12975 1112.722,662.132 1112.722,662.132 C1112.686,662.132 1112.686,662.096 1112.65,661.988 C1112.614,661.88 1112.362,660.116 1109.806,660.116 C1109.446,660.116 1109.086,660.152 1108.762,660.152 C1108.114,660.152 1107.79,660.656 1107.79,661.16 C1107.79,661.664 1108.114,662.168 1108.726,662.168 C1109.194,662.168 1109.194,662.132 1109.518,662.132 C1110.346,662.132 1110.634,662.852 1110.634,663.752 L1110.634,666.452 L1110.634,666.452 C1110.634,668.972 1110.598,671.672 1110.562,674.084 C1110.562,674.48 1110.31,674.696 1109.95,674.696 C1109.41,674.696 1109.302,674.66 1108.87,674.66 L1108.834,674.66 C1108.186,674.66 1107.862,675.128 1107.826,675.632 C1107.862,675.884 1107.97,676.604 1108.87,676.568 C1109.698,676.532 1110.562,676.496 1111.426,676.496 C1112.326,676.496 1113.262,676.532 1114.162,676.568 L1114.198,676.568 C1114.846,676.568 1115.17,676.1 1115.17,675.596 C1115.17,675.128 1114.846,674.66 1114.198,674.66 L1114.162,674.66 C1113.658,674.696 1113.766,674.696 1113.226,674.696 C1112.794,674.696 1112.578,674.444 1112.578,674.048 C1112.578,672.644 1112.542,670.988 1112.542,669.476 C1112.542,668 1112.578,666.704 1112.578,666.128 C1112.686,663.464 1115.134,661.664 1117.366,661.664 C1119.13,661.664 1120.75,662.78 1120.894,665.552 C1120.93,666.236 1120.966,668.036 1120.966,669.98 C1120.966,671.384 1120.93,672.824 1120.93,674.048 C1120.93,674.444 1120.678,674.696 1120.318,674.696 C1119.778,674.696 1119.67,674.66 1119.238,674.66 L1119.202,674.66 C1118.554,674.66 1118.23,675.164 1118.23,675.632 C1118.23,676.136 1118.59,676.604 1119.238,676.568 C1120.066,676.532 1120.894,676.496 1121.794,676.496 C1122.658,676.496 1123.594,676.532 1124.494,676.568 L1124.53,676.568 C1125.178,676.568 1125.502,676.064 1125.502,675.596 C1125.502,675.092 1125.142,674.624 1124.494,674.66 C1123.99,674.696 1124.062,674.696 1123.522,674.696 C1123.09,674.696 1122.874,674.48 1122.874,674.084 C1122.874,672.932 1122.838,671.564 1122.838,670.232 C1122.838,668.396 1122.874,666.668 1122.91,665.876 C1123.018,663.428 1125.502,661.664 1127.734,661.664 C1129.534,661.664 1131.154,662.78 1131.298,665.552 C1131.334,666.236 1131.37,668.18 1131.37,670.16 C1131.37,671.6 1131.334,673.04 1131.334,674.084 C1131.334,674.48 1131.082,674.696 1130.722,674.696 C1130.182,674.696 1130.11,674.66 1129.678,674.66 L1129.642,674.66 C1128.994,674.66 1128.67,675.128 1128.67,675.632 C1128.67,676.208 1129.138,676.604 1129.678,676.568 Z" id="Instagram"></path>
        </g>
    </g>
</svg>