<?xml version="1.0" encoding="UTF-8"?>
<svg width="274px" height="28px" viewBox="0 0 300 28" version="1.1" xmlns="http://www.w3.org/2000/svg" xmlns:xlink="http://www.w3.org/1999/xlink">
    <!-- Generator: Sketch 60 (88103) - https://sketch.com -->
    <title>ItemInformation</title>
    <desc>Created with Sketch.</desc>
    <g id="web" stroke="none" stroke-width="1" fill="none" fill-rule="evenodd">
        <g id="Artboard" transform="translate(-1898.000000, -1004.000000)" fill="#000000" fill-rule="nonzero">
            <path d="M1899.478,1030.568 C1900.522,1030.532 1901.818,1030.496 1903.186,1030.496 C1904.302,1030.496 1905.418,1030.532 1906.39,1030.568 L1906.462,1030.568 L1906.462,1030.568 C1907.182,1030.568 1907.542,1030.028 1907.542,1029.524 C1907.542,1029.236 1907.326,1028.408 1906.39,1028.444 C1905.85,1028.48 1905.382,1028.48 1904.77,1028.48 C1904.302,1028.48 1904.122,1028.156 1904.122,1027.796 C1904.086,1024.304 1904.086,1020.74 1904.086,1017.284 C1904.086,1013.828 1904.086,1010.444 1904.122,1007.384 C1904.122,1006.988 1904.338,1006.664 1904.806,1006.664 C1905.418,1006.664 1905.886,1006.664 1906.426,1006.7 L1906.498,1006.7 L1906.498,1006.7 C1907.218,1006.7 1907.542,1006.196 1907.578,1005.692 C1907.578,1005.548 1907.506,1004.612 1906.426,1004.648 C1905.274,1004.684 1903.87,1004.72 1902.502,1004.72 C1901.386,1004.72 1900.306,1004.684 1899.478,1004.648 L1899.406,1004.648 L1899.406,1004.648 C1898.686,1004.648 1898.362,1005.152 1898.326,1005.656 C1898.362,1006.664 1899.262,1006.7 1899.478,1006.7 C1899.91,1006.7 1900.522,1006.664 1901.098,1006.664 C1901.53,1006.664 1901.818,1006.952 1901.818,1007.384 C1901.89,1009.904 1901.89,1012.604 1901.89,1015.34 C1901.89,1019.516 1901.854,1023.8 1901.782,1027.796 C1901.782,1028.264 1901.566,1028.48 1901.062,1028.48 C1900.486,1028.48 1899.91,1028.444 1899.478,1028.444 L1899.442,1028.444 C1898.722,1028.444 1898.362,1028.984 1898.362,1029.524 C1898.362,1030.316 1898.938,1030.604 1899.478,1030.568 Z M1917.514,1031.036 C1918.954,1031.036 1919.818,1030.856 1919.818,1029.92 C1919.818,1029.452 1919.494,1028.984 1918.954,1028.984 L1918.81,1028.984 L1918.81,1028.984 C1918.45,1029.02 1918.126,1029.056 1917.802,1029.056 C1914.994,1029.056 1914.922,1027.148 1914.922,1024.34 C1914.922,1021.676 1915.03,1017.968 1915.03,1016.6 C1915.03,1016.168 1915.03,1016.096 1915.606,1016.096 L1918.774,1016.096 C1919.458,1016.096 1919.782,1015.628 1919.782,1015.124 C1919.782,1014.656 1919.458,1014.188 1918.774,1014.188 L1915.57,1014.188 C1915.102,1014.188 1915.03,1014.188 1915.03,1013.792 C1915.03,1013.792 1915.102,1010.912 1915.102,1009.868 C1915.102,1009.112 1914.598,1008.752 1914.058,1008.752 C1913.554,1008.752 1913.014,1009.112 1913.014,1009.796 L1913.01308,1011.06696 C1913.00747,1012.27078 1912.978,1013.69771 1912.978,1013.828 C1912.978,1014.152 1912.906,1014.188 1912.582,1014.188 L1910.494,1014.188 C1909.81,1014.188 1909.486,1014.656 1909.486,1015.124 C1909.486,1015.628 1909.81,1016.096 1910.494,1016.096 L1912.618,1016.096 C1912.87,1016.096 1912.978,1016.132 1912.978,1016.492 L1912.978,1017.068 C1912.978,1018.832 1912.906,1023.224 1912.906,1025.528 C1912.906,1027.112 1912.906,1031.036 1917.514,1031.036 Z M1931.41,1031.036 C1935.946,1031.036 1938.466,1028.3 1938.466,1027.472 C1938.466,1026.896 1937.926,1026.428 1937.386,1026.428 C1937.134,1026.428 1936.882,1026.536 1936.666,1026.752 C1935.55,1028.012 1934.074,1029.128 1931.446,1029.128 C1927.99,1029.128 1925.398,1026.716 1925.398,1022.792 C1925.398,1022.288 1925.47,1022.144 1925.83,1022.144 C1926.622,1022.144 1929.682,1022.18 1932.382,1022.18 C1933.714,1022.18 1934.938,1022.18 1935.766,1022.144 C1937.602,1022.072 1938.394,1021.064 1938.394,1019.732 C1938.394,1017.68 1936.234,1013.828 1931.302,1013.828 C1927.054,1013.828 1923.274,1017.284 1923.274,1022.54 C1923.274,1027.616 1926.838,1031.036 1931.41,1031.036 Z M1931.599,1020.41544 L1928.65332,1020.41502 C1925.92589,1020.40899 1925.686,1020.36577 1925.686,1020.056 C1925.686,1018.724 1927.882,1015.628 1931.338,1015.628 C1935.01,1015.628 1936.27,1018.328 1936.27,1019.372 C1936.27,1019.948 1935.946,1020.344 1935.082,1020.38 C1934.326,1020.407 1933.003,1020.41375 1931.599,1020.41544 Z M1963.018,1030.568 C1963.846,1030.532 1964.674,1030.496 1965.574,1030.496 C1966.438,1030.496 1967.374,1030.532 1968.274,1030.568 L1968.31,1030.568 C1968.958,1030.568 1969.282,1030.1 1969.282,1029.596 C1969.282,1029.128 1968.958,1028.66 1968.31,1028.66 L1968.274,1028.66 C1967.77,1028.66 1967.878,1028.696 1967.338,1028.696 C1966.942,1028.696 1966.762,1028.444 1966.762,1028.084 L1966.76146,1027.45704 C1966.75686,1024.63847 1966.72343,1020.596 1966.69,1019.192 C1966.582,1015.664 1964.026,1013.792 1961.29,1013.792 C1959.238,1013.792 1957.078,1014.836 1955.71,1016.96 C1954.954,1014.836 1952.974,1013.828 1950.958,1013.828 C1949.158,1013.828 1947.322,1014.584 1946.134,1016.06 L1946.06819,1016.12581 C1946.06425,1016.12975 1946.062,1016.132 1946.062,1016.132 C1946.026,1016.132 1946.026,1016.096 1945.99,1015.988 C1945.954,1015.88 1945.702,1014.116 1943.146,1014.116 C1942.786,1014.116 1942.426,1014.152 1942.102,1014.152 C1941.454,1014.152 1941.13,1014.656 1941.13,1015.16 C1941.13,1015.664 1941.454,1016.168 1942.066,1016.168 C1942.534,1016.168 1942.534,1016.132 1942.858,1016.132 C1943.686,1016.132 1943.974,1016.852 1943.974,1017.752 L1943.974,1020.452 L1943.974,1020.452 C1943.974,1022.972 1943.938,1025.672 1943.902,1028.084 C1943.902,1028.48 1943.65,1028.696 1943.29,1028.696 C1942.75,1028.696 1942.642,1028.66 1942.21,1028.66 L1942.174,1028.66 C1941.526,1028.66 1941.202,1029.128 1941.166,1029.632 C1941.202,1029.884 1941.31,1030.604 1942.21,1030.568 C1943.038,1030.532 1943.902,1030.496 1944.766,1030.496 C1945.666,1030.496 1946.602,1030.532 1947.502,1030.568 L1947.538,1030.568 C1948.186,1030.568 1948.51,1030.1 1948.51,1029.596 C1948.51,1029.128 1948.186,1028.66 1947.538,1028.66 L1947.502,1028.66 C1946.998,1028.696 1947.106,1028.696 1946.566,1028.696 C1946.134,1028.696 1945.918,1028.444 1945.918,1028.048 C1945.918,1026.644 1945.882,1024.988 1945.882,1023.476 C1945.882,1022 1945.918,1020.704 1945.918,1020.128 C1946.026,1017.464 1948.474,1015.664 1950.706,1015.664 C1952.47,1015.664 1954.09,1016.78 1954.234,1019.552 C1954.27,1020.236 1954.306,1022.036 1954.306,1023.98 C1954.306,1025.384 1954.27,1026.824 1954.27,1028.048 C1954.27,1028.444 1954.018,1028.696 1953.658,1028.696 C1953.118,1028.696 1953.01,1028.66 1952.578,1028.66 L1952.542,1028.66 C1951.894,1028.66 1951.57,1029.164 1951.57,1029.632 C1951.57,1030.136 1951.93,1030.604 1952.578,1030.568 C1953.406,1030.532 1954.234,1030.496 1955.134,1030.496 C1955.998,1030.496 1956.934,1030.532 1957.834,1030.568 L1957.87,1030.568 C1958.518,1030.568 1958.842,1030.064 1958.842,1029.596 C1958.842,1029.092 1958.482,1028.624 1957.834,1028.66 C1957.33,1028.696 1957.402,1028.696 1956.862,1028.696 C1956.43,1028.696 1956.214,1028.48 1956.214,1028.084 C1956.214,1026.932 1956.178,1025.564 1956.178,1024.232 C1956.178,1022.396 1956.214,1020.668 1956.25,1019.876 C1956.358,1017.428 1958.842,1015.664 1961.074,1015.664 C1962.874,1015.664 1964.494,1016.78 1964.638,1019.552 C1964.674,1020.236 1964.71,1022.18 1964.71,1024.16 C1964.71,1025.6 1964.674,1027.04 1964.674,1028.084 C1964.674,1028.48 1964.422,1028.696 1964.062,1028.696 C1963.522,1028.696 1963.45,1028.66 1963.018,1028.66 L1962.982,1028.66 C1962.334,1028.66 1962.01,1029.128 1962.01,1029.632 C1962.01,1030.208 1962.478,1030.604 1963.018,1030.568 Z M1982.998,1030.568 C1984.042,1030.532 1985.338,1030.496 1986.706,1030.496 C1987.822,1030.496 1988.938,1030.532 1989.91,1030.568 L1989.982,1030.568 L1989.982,1030.568 C1990.702,1030.568 1991.062,1030.028 1991.062,1029.524 C1991.062,1029.236 1990.846,1028.408 1989.91,1028.444 C1989.37,1028.48 1988.902,1028.48 1988.29,1028.48 C1987.822,1028.48 1987.642,1028.156 1987.642,1027.796 C1987.6132,1025.0024 1987.60744,1022.16272 1987.60629,1019.36912 L1987.6064,1014.99343 C1987.60778,1012.34 1987.614,1009.764 1987.642,1007.384 C1987.642,1006.988 1987.858,1006.664 1988.326,1006.664 C1988.938,1006.664 1989.406,1006.664 1989.946,1006.7 L1990.018,1006.7 L1990.018,1006.7 C1990.738,1006.7 1991.062,1006.196 1991.098,1005.692 C1991.098,1005.548 1991.026,1004.612 1989.946,1004.648 C1988.794,1004.684 1987.39,1004.72 1986.022,1004.72 C1984.906,1004.72 1983.826,1004.684 1982.998,1004.648 L1982.926,1004.648 L1982.926,1004.648 C1982.206,1004.648 1981.882,1005.152 1981.846,1005.656 C1981.882,1006.664 1982.782,1006.7 1982.998,1006.7 C1983.43,1006.7 1984.042,1006.664 1984.618,1006.664 C1985.05,1006.664 1985.338,1006.952 1985.338,1007.384 C1985.41,1009.904 1985.41,1012.604 1985.41,1015.34 C1985.41,1019.516 1985.374,1023.8 1985.302,1027.796 C1985.302,1028.264 1985.086,1028.48 1984.582,1028.48 C1984.006,1028.48 1983.43,1028.444 1982.998,1028.444 L1982.962,1028.444 C1982.242,1028.444 1981.882,1028.984 1981.882,1029.524 C1981.882,1030.316 1982.458,1030.604 1982.998,1030.568 Z M1994.158,1030.568 C1994.986,1030.532 1995.886,1030.496 1996.786,1030.496 C1997.686,1030.496 1998.658,1030.532 1999.594,1030.568 L1999.63,1030.568 C2000.314,1030.568 2000.674,1030.064 2000.674,1029.596 C2000.674,1029.02 2000.242,1028.588 1999.594,1028.624 C1999.09,1028.66 1999.162,1028.66 1998.622,1028.66 C1998.19,1028.66 1997.974,1028.444 1997.974,1028.048 C1997.974,1026.356 1997.938,1024.808 1997.938,1023.476 C1997.938,1022.18 1997.974,1021.1 1997.974,1020.416 C1998.082,1017.572 2000.854,1015.664 2003.374,1015.664 C2005.39,1015.664 2007.298,1016.888 2007.478,1019.876 C2007.514,1020.38 2007.514,1021.388 2007.514,1022.612 C2007.514,1024.304 2007.514,1026.356 2007.478,1028.012 C2007.478,1028.408 2007.298,1028.66 2006.938,1028.66 C2006.362,1028.66 2006.29,1028.624 2005.858,1028.624 L2005.822,1028.624 C2005.138,1028.624 2004.778,1029.128 2004.778,1029.632 C2004.778,1030.028 2005.03,1030.604 2005.858,1030.568 C2006.686,1030.532 2007.55,1030.496 2008.45,1030.496 C2009.386,1030.496 2010.322,1030.532 2011.258,1030.568 L2011.294,1030.568 C2011.978,1030.568 2012.338,1030.1 2012.338,1029.596 C2012.338,1029.092 2011.978,1028.624 2011.294,1028.624 L2011.258,1028.624 C2010.754,1028.624 2010.754,1028.66 2010.214,1028.66 C2009.818,1028.66 2009.638,1028.408 2009.638,1028.012 L2009.63721,1025.60106 C2009.63174,1023.19195 2009.59887,1020.6367 2009.566,1019.552 C2009.422,1015.628 2006.542,1013.792 2003.554,1013.792 C2001.538,1013.792 1999.486,1014.62 1998.226,1016.24 C1998.154,1016.312 1998.082,1016.348 1998.046,1016.348 C1997.938,1016.348 1997.902,1016.276 1997.866,1016.168 C1997.686,1014.836 1996.462,1014.152 1995.022,1014.152 L1993.978,1014.152 C1993.294,1014.152 1992.934,1014.692 1992.934,1015.196 C1992.934,1015.7 1993.258,1016.204 1993.906,1016.204 L1993.978,1016.204 L1993.978,1016.204 C1994.446,1016.168 1994.41,1016.168 1994.734,1016.168 C1995.598,1016.204 1995.922,1016.852 1995.922,1017.788 C1995.922,1019.336 1995.958,1020.704 1995.958,1022.036 C1995.958,1023.908 1995.922,1025.78 1995.886,1028.048 C1995.886,1028.444 1995.634,1028.66 1995.274,1028.66 C1994.698,1028.66 1994.59,1028.624 1994.158,1028.624 L1994.122,1028.624 C1993.438,1028.624 1993.078,1029.128 1993.078,1029.632 C1993.078,1030.028 1993.33,1030.604 1994.158,1030.568 Z M2016.082,1030.568 C2016.946,1030.532 2017.918,1030.496 2018.926,1030.496 C2019.934,1030.496 2020.978,1030.532 2021.95,1030.568 L2021.986,1030.568 C2022.67,1030.568 2023.03,1030.064 2023.03,1029.596 C2023.03,1029.02 2022.598,1028.588 2021.95,1028.624 C2021.41,1028.66 2021.302,1028.66 2020.726,1028.66 C2020.33,1028.66 2020.042,1028.408 2020.042,1028.048 C2020.006,1024.016 2020.006,1016.6 2020.006,1016.6 C2020.006,1016.168 2020.042,1016.096 2020.402,1016.096 L2024.218,1016.096 C2024.83,1016.096 2025.154,1015.592 2025.154,1015.124 C2025.154,1014.62 2024.83,1014.152 2024.218,1014.152 L2020.474,1014.152 C2020.114,1014.152 2020.006,1014.116 2020.006,1013.792 C2020.006,1013.432 2019.97,1012.964 2019.97,1012.388 C2019.97,1011.848 2020.006,1011.2 2020.006,1010.552 C2020.114,1008.212 2021.482,1006.304 2023.822,1006.304 L2024.254,1006.304 L2024.254,1006.304 C2024.938,1006.304 2025.334,1005.836 2025.334,1005.332 C2025.334,1004.36 2024.074,1004.324 2023.714,1004.324 C2020.906,1004.324 2018.026,1006.448 2017.918,1010.336 L2017.918,1011.272 L2017.918,1011.272 C2017.918,1012.424 2017.954,1013.396 2017.954,1013.756 C2017.954,1014.116 2017.846,1014.152 2017.45,1014.152 L2015.146,1014.152 C2014.534,1014.152 2014.21,1014.656 2014.21,1015.16 C2014.21,1015.628 2014.534,1016.096 2015.146,1016.096 L2017.45,1016.096 C2017.882,1016.096 2017.954,1016.168 2017.954,1016.6 L2017.954,1028.048 L2017.954,1028.048 C2017.954,1028.408 2017.702,1028.66 2017.342,1028.66 C2016.766,1028.66 2016.55,1028.624 2016.082,1028.624 L2016.046,1028.624 C2015.362,1028.624 2015.002,1029.128 2015.002,1029.596 C2015.002,1030.172 2015.47,1030.604 2016.082,1030.568 Z M2036.206,1031.036 C2040.994,1031.036 2044.594,1027.58 2044.594,1022.396 C2044.594,1017.392 2040.994,1013.792 2036.206,1013.792 C2031.418,1013.792 2027.89,1017.392 2027.89,1022.396 C2027.89,1027.58 2031.418,1031.036 2036.206,1031.036 Z M2036.206,1029.128 C2032.75,1029.128 2029.978,1026.428 2029.978,1022.396 C2029.978,1018.328 2032.75,1015.664 2036.206,1015.664 C2039.662,1015.664 2042.47,1018.328 2042.47,1022.396 C2042.47,1026.428 2039.662,1029.128 2036.206,1029.128 Z M2048.806,1030.568 C2049.634,1030.532 2050.606,1030.496 2051.578,1030.496 C2052.55,1030.496 2053.594,1030.532 2054.53,1030.568 L2054.566,1030.568 C2055.25,1030.568 2055.61,1030.064 2055.61,1029.596 C2055.61,1029.02 2055.142,1028.588 2054.53,1028.624 C2054.026,1028.66 2053.882,1028.66 2053.342,1028.66 C2052.946,1028.66 2052.73,1028.372 2052.73,1028.012 C2052.73,1026.284 2052.694,1024.664 2052.694,1023.296 C2052.694,1021.928 2052.73,1020.812 2052.73,1020.128 C2052.802,1017.464 2055.502,1015.844 2057.986,1015.844 L2058.202,1015.844 C2058.85,1015.844 2059.21,1015.34 2059.21,1014.836 C2059.21,1014.152 2058.706,1013.792 2058.022,1013.828 C2055.97,1013.9 2053.882,1014.728 2052.91,1016.06 C2052.838,1016.132 2052.766,1016.168 2052.694,1016.168 C2052.658,1016.168 2052.586,1016.168 2052.586,1016.06 C2052.37,1014.764 2051.182,1014.152 2049.742,1014.152 L2048.734,1014.152 C2048.05,1014.152 2047.726,1014.656 2047.726,1015.196 C2047.726,1015.7 2048.05,1016.204 2048.698,1016.204 L2048.734,1016.204 C2049.202,1016.168 2049.166,1016.168 2049.49,1016.168 C2050.39,1016.204 2050.678,1016.852 2050.678,1017.824 L2050.678,1020.632 L2050.678,1020.632 C2050.678,1023.044 2050.642,1025.24 2050.606,1028.012 C2050.606,1028.408 2050.39,1028.66 2050.03,1028.66 C2049.454,1028.66 2049.274,1028.624 2048.806,1028.624 L2048.77,1028.624 C2048.086,1028.624 2047.726,1029.128 2047.726,1029.632 C2047.726,1030.028 2047.978,1030.604 2048.806,1030.568 Z M2082.718,1030.568 C2083.546,1030.532 2084.374,1030.496 2085.274,1030.496 C2086.138,1030.496 2087.074,1030.532 2087.974,1030.568 L2088.01,1030.568 C2088.658,1030.568 2088.982,1030.1 2088.982,1029.596 C2088.982,1029.128 2088.658,1028.66 2088.01,1028.66 L2087.974,1028.66 C2087.47,1028.66 2087.578,1028.696 2087.038,1028.696 C2086.642,1028.696 2086.462,1028.444 2086.462,1028.084 C2086.462,1025.276 2086.426,1020.704 2086.39,1019.192 C2086.282,1015.664 2083.726,1013.792 2080.99,1013.792 C2078.938,1013.792 2076.778,1014.836 2075.41,1016.96 C2074.654,1014.836 2072.674,1013.828 2070.658,1013.828 C2068.858,1013.828 2067.022,1014.584 2065.834,1016.06 C2065.798,1016.096 2065.762,1016.132 2065.762,1016.132 C2065.726,1016.132 2065.726,1016.096 2065.69,1015.988 C2065.654,1015.88 2065.402,1014.116 2062.846,1014.116 C2062.486,1014.116 2062.126,1014.152 2061.802,1014.152 C2061.154,1014.152 2060.83,1014.656 2060.83,1015.16 C2060.83,1015.664 2061.154,1016.168 2061.766,1016.168 C2062.234,1016.168 2062.234,1016.132 2062.558,1016.132 C2063.386,1016.132 2063.674,1016.852 2063.674,1017.752 L2063.674,1020.452 L2063.674,1020.452 C2063.674,1022.972 2063.638,1025.672 2063.602,1028.084 C2063.602,1028.48 2063.35,1028.696 2062.99,1028.696 C2062.45,1028.696 2062.342,1028.66 2061.91,1028.66 L2061.874,1028.66 C2061.226,1028.66 2060.902,1029.128 2060.866,1029.632 C2060.902,1029.884 2061.01,1030.604 2061.91,1030.568 C2062.738,1030.532 2063.602,1030.496 2064.466,1030.496 C2065.366,1030.496 2066.302,1030.532 2067.202,1030.568 L2067.238,1030.568 C2067.886,1030.568 2068.21,1030.1 2068.21,1029.596 C2068.21,1029.128 2067.886,1028.66 2067.238,1028.66 L2067.202,1028.66 C2066.698,1028.696 2066.806,1028.696 2066.266,1028.696 C2065.834,1028.696 2065.618,1028.444 2065.618,1028.048 C2065.618,1026.644 2065.582,1024.988 2065.582,1023.476 C2065.582,1022 2065.618,1020.704 2065.618,1020.128 C2065.726,1017.464 2068.174,1015.664 2070.406,1015.664 C2072.17,1015.664 2073.79,1016.78 2073.934,1019.552 C2073.97,1020.236 2074.006,1022.036 2074.006,1023.98 C2074.006,1025.384 2073.97,1026.824 2073.97,1028.048 C2073.97,1028.444 2073.718,1028.696 2073.358,1028.696 C2072.818,1028.696 2072.71,1028.66 2072.278,1028.66 L2072.242,1028.66 C2071.594,1028.66 2071.27,1029.164 2071.27,1029.632 C2071.27,1030.136 2071.63,1030.604 2072.278,1030.568 C2073.106,1030.532 2073.934,1030.496 2074.834,1030.496 C2075.698,1030.496 2076.634,1030.532 2077.534,1030.568 L2077.57,1030.568 C2078.218,1030.568 2078.542,1030.064 2078.542,1029.596 C2078.542,1029.092 2078.182,1028.624 2077.534,1028.66 C2077.03,1028.696 2077.102,1028.696 2076.562,1028.696 C2076.13,1028.696 2075.914,1028.48 2075.914,1028.084 C2075.914,1026.932 2075.878,1025.564 2075.878,1024.232 C2075.878,1022.396 2075.914,1020.668 2075.95,1019.876 C2076.058,1017.428 2078.542,1015.664 2080.774,1015.664 C2082.574,1015.664 2084.194,1016.78 2084.338,1019.552 C2084.374,1020.236 2084.41,1022.18 2084.41,1024.16 C2084.41,1025.6 2084.374,1027.04 2084.374,1028.084 C2084.374,1028.48 2084.122,1028.696 2083.762,1028.696 C2083.222,1028.696 2083.15,1028.66 2082.718,1028.66 L2082.682,1028.66 C2082.034,1028.66 2081.71,1029.128 2081.71,1029.632 C2081.71,1030.208 2082.178,1030.604 2082.718,1030.568 Z M2097.658,1031.036 C2099.746,1031.036 2102.05,1029.992 2103.13,1028.264 C2103.166,1028.192 2103.238,1028.156 2103.274,1028.156 C2103.346,1028.156 2103.382,1028.228 2103.418,1028.336 C2103.742,1029.668 2105.038,1030.64 2106.082,1030.64 C2106.694,1030.64 2107.054,1030.136 2107.054,1029.632 C2107.054,1029.272 2106.874,1028.876 2106.442,1028.732 C2105.002,1028.228 2104.75,1027.364 2104.75,1024.736 C2104.75,1023.368 2104.822,1021.496 2104.93,1020.308 C2104.966,1019.948 2104.966,1019.624 2104.966,1019.3 C2104.966,1015.268 2102.698,1013.792 2099.35,1013.792 C2096.254,1013.792 2093.23,1015.34 2093.23,1016.708 C2093.23,1017.284 2093.698,1017.68 2094.238,1017.68 C2094.49,1017.68 2094.778,1017.572 2094.994,1017.32 C2095.822,1016.42 2097.262,1015.592 2099.206,1015.592 C2102.122,1015.592 2102.95,1017.14 2102.95,1019.12 C2102.95,1019.3 2102.914,1019.516 2102.914,1019.696 C2102.914,1019.948 2102.77,1020.056 2102.338,1020.128 C2100.826,1020.38 2097.91,1020.92 2095.678,1021.604 C2093.014,1022.432 2091.826,1024.268 2091.826,1026.068 C2091.826,1028.552 2094.022,1031.036 2097.658,1031.036 Z M2097.622,1029.128 C2095.21,1029.128 2093.77,1027.616 2093.77,1026.104 C2093.77,1023.584 2096.758,1022.864 2102.41,1021.964 L2102.518,1021.964 L2102.518,1021.964 C2102.77,1021.964 2102.878,1022.072 2102.878,1022.36 L2102.878,1022.828 L2102.878,1022.828 C2102.878,1028.372 2099.458,1029.128 2097.622,1029.128 Z M2117.314,1031.036 C2118.754,1031.036 2119.618,1030.856 2119.618,1029.92 C2119.618,1029.452 2119.294,1028.984 2118.754,1028.984 L2118.61,1028.984 L2118.61,1028.984 C2118.25,1029.02 2117.926,1029.056 2117.602,1029.056 C2114.938,1029.056 2114.73658,1027.33867 2114.72293,1024.76476 L2114.722,1024.34 C2114.722,1021.676 2114.83,1017.968 2114.83,1016.6 C2114.83,1016.168 2114.83,1016.096 2115.406,1016.096 L2118.574,1016.096 C2119.258,1016.096 2119.582,1015.628 2119.582,1015.124 C2119.582,1014.656 2119.258,1014.188 2118.574,1014.188 L2115.37,1014.188 C2114.902,1014.188 2114.83,1014.188 2114.83,1013.792 C2114.83,1013.792 2114.902,1010.912 2114.902,1009.868 C2114.902,1009.112 2114.398,1008.752 2113.858,1008.752 C2113.354,1008.752 2112.814,1009.112 2112.814,1009.796 L2112.814,1010.696 L2112.814,1010.696 C2112.814,1011.956 2112.778,1013.684 2112.778,1013.828 C2112.778,1014.152 2112.706,1014.188 2112.382,1014.188 L2110.294,1014.188 C2109.61,1014.188 2109.286,1014.656 2109.286,1015.124 C2109.286,1015.628 2109.61,1016.096 2110.294,1016.096 L2112.418,1016.096 C2112.67,1016.096 2112.778,1016.132 2112.778,1016.492 L2112.778,1017.068 L2112.778,1017.068 C2112.778,1018.7553 2112.71212,1022.84705 2112.7064,1025.21602 L2112.70694,1025.83055 C2112.72194,1027.56007 2112.97706,1031.036 2117.314,1031.036 Z M2125.558,1007.6 C2127.178,1007.6 2127.358,1006.16 2127.358,1005.872 C2127.358,1005.008 2126.71,1004.18 2125.594,1004.18 C2124.874,1004.18 2123.866,1004.72 2123.866,1005.872 C2123.866,1007.6 2125.378,1007.6 2125.558,1007.6 Z M2123.254,1030.60415 C2124.118,1030.568 2125.126,1030.532 2126.134,1030.532 C2127.142,1030.532 2128.222,1030.568 2129.194,1030.60415 L2129.23,1030.60415 C2129.95,1030.60415 2130.31,1030.1 2130.31,1029.596 C2130.31,1028.552 2129.338,1028.588 2129.194,1028.588 C2128.654,1028.624 2128.51,1028.624 2127.934,1028.624 C2127.502,1028.624 2127.286,1028.3 2127.286,1027.94 L2127.286,1025.132 L2127.286,1025.132 C2127.286,1022.504 2127.322,1019.768 2127.358,1017.248 L2127.358,1017.14 L2127.358,1017.14 C2127.358,1015.628 2126.674,1014.188 2124.694,1014.188 C2123.866,1014.188 2123.974,1014.152 2123.29,1014.152 C2122.606,1014.152 2122.246,1014.692 2122.246,1015.232 C2122.246,1015.7 2122.57,1016.204 2123.218,1016.204 L2123.29,1016.204 L2123.29,1016.204 C2123.578,1016.204 2123.758,1016.168 2124.046,1016.168 C2124.91,1016.204 2125.27,1016.78 2125.27,1017.824 C2125.27,1020.956 2125.234,1024.484 2125.198,1027.904 C2125.198,1028.372 2124.982,1028.624 2124.55,1028.624 C2123.938,1028.624 2123.722,1028.588 2123.254,1028.588 L2123.218,1028.588 C2122.498,1028.588 2122.138,1029.092 2122.138,1029.596 C2122.138,1030.64 2123.11,1030.60415 2123.254,1030.60415 Z M2141.362,1031.036 C2146.15,1031.036 2149.75,1027.58 2149.75,1022.396 C2149.75,1017.392 2146.15,1013.792 2141.362,1013.792 C2136.574,1013.792 2133.046,1017.392 2133.046,1022.396 C2133.046,1027.58 2136.574,1031.036 2141.362,1031.036 Z M2141.362,1029.128 C2137.906,1029.128 2135.134,1026.428 2135.134,1022.396 C2135.134,1018.328 2137.906,1015.664 2141.362,1015.664 C2144.818,1015.664 2147.626,1018.328 2147.626,1022.396 C2147.626,1026.428 2144.818,1029.128 2141.362,1029.128 Z M2153.746,1030.568 C2154.574,1030.532 2155.474,1030.496 2156.374,1030.496 C2157.274,1030.496 2158.246,1030.532 2159.182,1030.568 L2159.218,1030.568 C2159.902,1030.568 2160.262,1030.064 2160.262,1029.596 C2160.262,1029.02 2159.83,1028.588 2159.182,1028.624 C2158.678,1028.66 2158.75,1028.66 2158.21,1028.66 C2157.778,1028.66 2157.562,1028.444 2157.562,1028.048 C2157.562,1026.356 2157.526,1024.808 2157.526,1023.476 C2157.526,1022.18 2157.562,1021.1 2157.562,1020.416 C2157.67,1017.572 2160.442,1015.664 2162.962,1015.664 C2164.978,1015.664 2166.886,1016.888 2167.066,1019.876 C2167.102,1020.38 2167.102,1021.388 2167.102,1022.612 C2167.102,1024.304 2167.102,1026.356 2167.066,1028.012 C2167.066,1028.408 2166.886,1028.66 2166.526,1028.66 C2165.95,1028.66 2165.878,1028.624 2165.446,1028.624 L2165.41,1028.624 C2164.726,1028.624 2164.366,1029.128 2164.366,1029.632 C2164.366,1030.028 2164.618,1030.604 2165.446,1030.568 C2166.274,1030.532 2167.138,1030.496 2168.038,1030.496 C2168.974,1030.496 2169.91,1030.532 2170.846,1030.568 L2170.882,1030.568 C2171.566,1030.568 2171.926,1030.1 2171.926,1029.596 C2171.926,1029.092 2171.566,1028.624 2170.882,1028.624 L2170.846,1028.624 C2170.342,1028.624 2170.342,1028.66 2169.802,1028.66 C2169.406,1028.66 2169.226,1028.408 2169.226,1028.012 L2169.226,1026.284 L2169.226,1026.284 C2169.226,1023.692 2169.19,1020.74 2169.154,1019.552 C2169.01,1015.628 2166.13,1013.792 2163.142,1013.792 C2161.126,1013.792 2159.074,1014.62 2157.814,1016.24 C2157.742,1016.312 2157.67,1016.348 2157.634,1016.348 C2157.526,1016.348 2157.49,1016.276 2157.454,1016.168 C2157.274,1014.836 2156.05,1014.152 2154.61,1014.152 L2153.566,1014.152 C2152.882,1014.152 2152.522,1014.692 2152.522,1015.196 C2152.522,1015.7 2152.846,1016.204 2153.494,1016.204 L2153.566,1016.204 L2153.566,1016.204 C2154.034,1016.168 2153.998,1016.168 2154.322,1016.168 C2155.186,1016.204 2155.51,1016.852 2155.51,1017.788 C2155.51,1019.336 2155.546,1020.704 2155.546,1022.036 C2155.546,1023.908 2155.51,1025.78 2155.474,1028.048 C2155.474,1028.444 2155.222,1028.66 2154.862,1028.66 C2154.286,1028.66 2154.178,1028.624 2153.746,1028.624 L2153.71,1028.624 C2153.026,1028.624 2152.666,1029.128 2152.666,1029.632 C2152.666,1030.028 2152.918,1030.604 2153.746,1030.568 Z" id="ItemInformation"></path>
        </g>
    </g>
</svg>
