<?xml version="1.0" encoding="UTF-8"?>
<svg width="162px" height="41px" viewBox="0 0 162 41" version="1.1" xmlns="http://www.w3.org/2000/svg" xmlns:xlink="http://www.w3.org/1999/xlink">
    <!-- Generator: Sketch 60 (88103) - https://sketch.com -->
    <title>Group 6</title>
    <desc>Created with Sketch.</desc>
    <g id="web" stroke="none" stroke-width="1" fill="none" fill-rule="evenodd">
        <g id="Home" transform="translate(-636.000000, -1787.000000)" fill="#000000">
            <g id="shop" transform="translate(30.000000, 752.000000)">
                <g id="product2" transform="translate(535.000000, 1035.000000)">
                    <g id="Group-6" transform="translate(71.000000, 0.000000)">
                        <text id="新作" font-family="MS-PGothic, MS PGothic" font-size="21" font-weight="normal">
                            <tspan x="64" y="28">新作</tspan>
                        </text>
                        <g id="Group-5">
                            <path d="M6.15089332,11.079996 C6.09317712,11.0637954 6.03593792,11.0480712 5.97822172,11.0323471 C5.20835442,10.8193565 4.63500839,11.7070557 5.27751846,12.2650244 C7.56374768,14.2524604 10.1032604,15.9168368 12.4066614,17.8809249 C14.7892432,19.9126744 16.9753039,22.2536653 19.0425931,24.6027566 C21.0984345,26.9389826 22.9706335,29.4272087 24.7526807,31.9759489 C26.7283873,34.8010527 28.9459295,37.5761252 30.5920336,40.6070724 C31.0275285,41.4080506 32.3511851,40.8634235 31.9118742,40.054345 C30.3349341,37.1515734 28.258105,34.5394602 26.385429,31.8239489 C24.4516979,29.019334 22.4197062,26.2780923 20.1678205,23.7188693 C18.2064237,21.4903298 16.1343645,19.3003859 13.9244543,17.3134264 C11.4564906,15.0929872 8.64222969,13.2999587 6.13753751,11.1224035 C5.90381076,11.5336136 5.67008401,11.9443472 5.43683425,12.3555573 C5.49407345,12.3712815 5.55178965,12.3870056 5.60902885,12.4032062 C6.48717365,12.6462157 7.03810099,11.3253879 6.15089332,11.079996" id="Fill-34"></path>
                            <path d="M27.4406192,35.4596476 C27.4553703,35.4945667 27.4695946,35.5299708 27.4843458,35.5653749 C27.9700797,35.3776847 28.4558136,35.1904794 28.9420744,35.0023041 C27.9258263,32.7500209 27.7957002,30.0224497 27.4637996,27.6115755 C27.1645622,25.4378603 26.9438219,23.2549304 26.7873545,21.0681205 C26.4933854,16.9559092 27.1872157,12.6720122 26.5766239,8.61023967 C26.437015,7.6814881 24.8691797,7.86820839 25.0087887,8.79647498 C25.6620534,13.1409954 24.9376671,17.7876632 25.2906408,22.1918372 C25.4908348,24.6914641 25.7916526,27.1789664 26.1730749,29.6606488 C26.4812684,31.6621934 26.6361553,33.6841074 27.4843458,35.5653749 C27.875251,36.4320481 29.3029504,35.8762521 28.9420744,35.0023041 C28.9273232,34.967385 28.9125721,34.9319809 28.8978209,34.8965768 C28.5364181,34.0206889 27.0797431,34.5847297 27.4406192,35.4596476" id="Fill-35"></path>
                            <path d="M3.69559234,5.19617496 C1.31431168,4.91220709 -0.399239886,7.70124812 0.0809589307,9.8151208 C0.323585701,10.8839719 0.526785621,11.8654482 1.53520314,12.4716104 C2.56535596,13.0916731 3.80123608,13.0648649 4.95725154,12.8975622 C6.04907201,12.7401884 7.11915716,12.4512561 7.61401468,11.3799227 C8.13212393,10.2589447 8.09623538,8.89570037 7.69893405,7.74741772 C7.03625968,5.83410976 4.69491135,4.34327846 2.65937384,5.29546442 C1.78086274,5.70602635 2.36266152,7.08217832 3.24572187,6.66913415 C4.25969958,6.19453051 5.59920154,6.86076281 6.07434563,7.77720456 C6.3902659,8.38634542 6.56212653,9.18264692 6.46204299,9.86873711 C6.30736843,10.9351059 5.7887537,11.2721937 4.7636556,11.420135 C4.22684387,11.4980772 3.65161623,11.5829697 3.11328809,11.4747442 C2.17058199,11.2851013 1.90369254,10.7921291 1.68381203,9.95710473 C1.39063802,8.84158761 1.83090451,6.47403035 3.4964362,6.67260928 C4.4664378,6.7882815 4.66508847,5.31135073 3.69559234,5.19617496" id="Fill-36"></path>
                            <path d="M14.9896352,19.1816989 C14.7246008,17.39328 14.5075898,15.6633911 14.1184198,13.8934817 C13.8008316,12.4507405 13.7799913,10.8254053 13.3029295,9.45219978 C12.9898719,8.54973608 11.7367352,9.13103476 12.0497928,10.0329982 C12.5359156,11.4332176 12.5775962,13.2126319 12.9028862,14.6893907 C13.2476574,16.2556955 13.407131,17.7929853 13.641358,19.3737976 C13.7822566,20.326287 15.1309868,20.1361893 14.9896352,19.1816989" id="Fill-37"></path>
                            <path d="M13.3774826,3.24427299 C10.9891665,2.67871713 9.58763401,5.20977872 10.1081765,7.46204518 C10.6231016,9.6924063 12.7867231,10.4685521 14.6788388,9.72775354 C16.5606559,8.99043996 17.4758182,7.03986968 16.7530506,5.01163503 C16.3991567,4.01942305 15.7227324,3.3214395 14.7401617,3.07351096 C14.2668987,2.95402733 13.8273399,2.98389824 13.3601624,3.13623987 C12.8340026,3.30849544 12.6402035,3.59923894 12.2174969,3.87355345 C12.4510856,3.83870405 12.6842062,3.80435251 12.9173269,3.76950312 C12.8616213,3.73714297 12.8059158,3.70478282 12.7502103,3.67192482 C12.8934531,3.93528665 13.037164,4.19864849 13.1804068,4.46151248 C13.1907053,4.37737609 13.2010038,4.29274185 13.2113023,4.20860546 C13.3259901,3.25323426 11.9333518,3.05857551 11.818664,4.01245317 C11.8088336,4.09658956 11.7985351,4.18072595 11.7882366,4.26536019 C11.744702,4.62530463 11.9394373,4.8921514 12.2189012,5.05445 C12.2746067,5.08681015 12.3298442,5.11966815 12.3855497,5.1520283 C12.6167979,5.28644739 12.8845589,5.17841427 13.0858478,5.04797797 C13.4205491,4.83091604 13.51464,4.54465318 13.9846261,4.49486833 C14.6390491,4.42566739 15.1684857,4.83539668 15.4133092,5.45820511 C15.8664433,6.60873291 15.4914842,7.67562217 14.4536761,8.21230281 C13.5773672,8.66584276 12.3808685,8.71512976 11.7629584,7.79261656 C11.3360387,7.15487267 11.3449329,6.34586892 11.5485624,5.62448649 C11.7765337,4.81747413 12.4370422,4.54614672 13.1930458,4.72537217 C14.0768445,4.93446852 14.2533234,3.4518758 13.3774826,3.24427299" id="Fill-38"></path>
                            <path d="M17.9780418,22.31583 C17.0190893,22.6802107 15.6500003,21.8666971 14.7308813,21.5811307 C13.8791349,21.3166173 13.0150941,21.1082456 12.164823,20.8323959 C10.6841021,20.3514135 9.27517967,19.885546 7.71872611,20.1711125 C7.94346522,20.2720594 8.1686961,20.3735462 8.3934352,20.4744931 C8.36196189,20.4248294 8.33098035,20.3757055 8.29999881,20.3265816 C7.75954306,19.470422 6.59994828,20.4723339 7.13991226,21.3279536 C7.1708938,21.3765377 7.20187534,21.4262014 7.23285688,21.4753253 C7.37301147,21.6966528 7.66807375,21.8218918 7.90756597,21.7781661 C9.94939699,21.402989 12.2066235,22.4891133 14.1727218,23.0802197 C15.6268871,23.5174764 17.0353178,24.3844325 18.5489873,23.808981 C19.4464684,23.4678127 18.8725723,21.9762812 17.9780418,22.31583" id="Fill-39"></path>
                            <path d="M6.7109818,17.5785445 C6.69376233,17.5326097 6.67654286,17.486675 6.65932339,17.4407403 C6.542231,17.1279007 6.20030153,16.9823601 5.88444726,17.0017011 C3.52488793,17.145791 1.95004443,18.2511255 2.00121086,20.7311169 C2.04745743,22.9862699 3.35859705,24.3256297 5.66059415,23.9315581 C6.62439247,23.7671602 7.69544348,23.4673757 8.29074514,22.6420013 C8.86587543,21.8451547 9.07939685,20.5691365 8.9741121,19.6175625 C8.72615173,17.3744976 6.46252945,16.6342233 4.49213014,17.2831117 C3.5908139,17.579995 4.16643617,18.9164536 5.06283256,18.6210209 C6.5225516,18.1399151 7.6590366,18.9256406 7.48831786,20.4559921 C7.33137469,21.8654627 6.55797451,22.3697776 5.19025664,22.5370767 C3.77481623,22.7101781 3.39106805,21.6575477 3.47618143,20.3916835 C3.58195817,18.8149137 4.66924468,18.5262503 6.07287745,18.4406666 C5.81458541,18.2946426 5.55678535,18.148135 5.2984933,18.0016274 C5.31522079,18.0475621 5.33293224,18.0939804 5.34965973,18.1394316 C5.67732164,19.016543 7.03765974,18.4532382 6.7109818,17.5785445" id="Fill-40"></path>
                            <path d="M24.7180481,0.306905812 C22.8660983,1.19231362 22.7183793,3.79428778 23.3083053,5.5825229 C24.0877487,7.94510349 26.7818392,8.70658407 28.7796081,7.28216746 C30.7284539,5.89258982 30.1432777,2.317115 28.4285974,0.986763636 C27.5465582,0.302426514 26.2755098,-0.208711103 25.186379,0.0844340346 C24.3979111,0.296951817 23.4925978,0.927537369 23.9542791,1.88809784 C24.3646624,2.74115517 25.6817839,2.17029358 25.2680757,1.31026846 C25.5449895,1.88560934 25.2581011,1.36551313 25.7088578,1.47849096 C26.1334906,1.58400331 26.4887761,1.62979168 26.8944097,1.81742448 C27.5935813,2.141427 28.0348383,2.55551317 28.3260015,3.31301215 C28.5577921,3.91522882 28.6746374,4.68815649 28.4528214,5.31227195 C28.1312594,6.21858314 27.2824689,6.40969984 26.4327284,6.42861243 C25.1773544,6.45747901 24.6800496,5.61338028 24.4895823,4.40098375 C24.351363,3.52005524 24.3599126,2.11853281 25.2690257,1.68354325 C26.1016669,1.28538347 25.5540141,-0.0932447671 24.7180481,0.306905812" id="Fill-41"></path>
                            <path d="M25.6272591,19.9989423 C27.0427808,20.0486638 27.7992841,18.3332724 28.5533006,17.3976478 C29.1093629,16.7072841 29.6027562,15.9829758 30.1230077,15.2691856 C30.4731578,14.789182 30.9098508,14.3885415 30.9924146,13.788537 C31.1182498,12.871558 29.638567,12.6846243 29.5127318,13.600169 C29.4714499,13.9023227 28.9979515,14.3110907 28.8164106,14.5697381 C28.4692447,15.0645625 28.1245656,15.5612993 27.7545206,16.0408249 C27.4113337,16.4854497 27.0447703,16.9123852 26.697107,17.3541415 C26.6259827,17.4449789 25.9291641,18.5804456 25.8232238,18.5766209 C24.869761,18.5436326 24.6673304,19.9654759 25.6272591,19.9989423" id="Fill-42"></path>
                            <path d="M31.4787383,9.6708003 C29.8281423,9.57555826 29.9346949,11.7062308 30.0683699,12.8584631 C30.3197371,15.0308654 31.8100199,16.4619507 34.0229229,15.8630059 C35.9694444,15.33672 36.3869367,13.2625054 35.6749719,11.5206561 C35.2574796,10.4995043 34.5435774,9.92166981 33.5211572,9.59765048 C32.3781388,9.23582891 31.9078546,8.66830415 30.6950927,9.25006612 C29.8528432,9.65459933 30.4098224,11.0144986 31.2573996,10.6080016 C31.7422138,10.3757878 31.8516723,10.5692175 32.2895064,10.7474281 C32.8406738,10.9722779 33.4799891,11.0012433 33.9226666,11.4357237 C34.6205858,12.1215646 34.9199017,13.823648 33.9396181,14.3543523 C32.6784233,15.0362657 31.6894218,14.0376971 31.526687,12.8108421 C31.4893936,12.5305163 31.4622711,12.246263 31.4559748,11.9639734 C31.4482256,11.6041156 31.6342082,11.1509795 31.2879124,11.130851 C32.2178256,11.1848542 32.4134949,9.72480352 31.4787383,9.6708003" id="Fill-43"></path>
                        </g>
                        <g id="Group-5" transform="translate(144.000000, 20.500000) scale(-1, 1) translate(-144.000000, -20.500000) translate(126.000000, 0.000000)">
                            <path d="M6.15089332,11.079996 C6.09317712,11.0637954 6.03593792,11.0480712 5.97822172,11.0323471 C5.20835442,10.8193565 4.63500839,11.7070557 5.27751846,12.2650244 C7.56374768,14.2524604 10.1032604,15.9168368 12.4066614,17.8809249 C14.7892432,19.9126744 16.9753039,22.2536653 19.0425931,24.6027566 C21.0984345,26.9389826 22.9706335,29.4272087 24.7526807,31.9759489 C26.7283873,34.8010527 28.9459295,37.5761252 30.5920336,40.6070724 C31.0275285,41.4080506 32.3511851,40.8634235 31.9118742,40.054345 C30.3349341,37.1515734 28.258105,34.5394602 26.385429,31.8239489 C24.4516979,29.019334 22.4197062,26.2780923 20.1678205,23.7188693 C18.2064237,21.4903298 16.1343645,19.3003859 13.9244543,17.3134264 C11.4564906,15.0929872 8.64222969,13.2999587 6.13753751,11.1224035 C5.90381076,11.5336136 5.67008401,11.9443472 5.43683425,12.3555573 C5.49407345,12.3712815 5.55178965,12.3870056 5.60902885,12.4032062 C6.48717365,12.6462157 7.03810099,11.3253879 6.15089332,11.079996" id="Fill-34"></path>
                            <path d="M27.4406192,35.4596476 C27.4553703,35.4945667 27.4695946,35.5299708 27.4843458,35.5653749 C27.9700797,35.3776847 28.4558136,35.1904794 28.9420744,35.0023041 C27.9258263,32.7500209 27.7957002,30.0224497 27.4637996,27.6115755 C27.1645622,25.4378603 26.9438219,23.2549304 26.7873545,21.0681205 C26.4933854,16.9559092 27.1872157,12.6720122 26.5766239,8.61023967 C26.437015,7.6814881 24.8691797,7.86820839 25.0087887,8.79647498 C25.6620534,13.1409954 24.9376671,17.7876632 25.2906408,22.1918372 C25.4908348,24.6914641 25.7916526,27.1789664 26.1730749,29.6606488 C26.4812684,31.6621934 26.6361553,33.6841074 27.4843458,35.5653749 C27.875251,36.4320481 29.3029504,35.8762521 28.9420744,35.0023041 C28.9273232,34.967385 28.9125721,34.9319809 28.8978209,34.8965768 C28.5364181,34.0206889 27.0797431,34.5847297 27.4406192,35.4596476" id="Fill-35"></path>
                            <path d="M3.69559234,5.19617496 C1.31431168,4.91220709 -0.399239886,7.70124812 0.0809589307,9.8151208 C0.323585701,10.8839719 0.526785621,11.8654482 1.53520314,12.4716104 C2.56535596,13.0916731 3.80123608,13.0648649 4.95725154,12.8975622 C6.04907201,12.7401884 7.11915716,12.4512561 7.61401468,11.3799227 C8.13212393,10.2589447 8.09623538,8.89570037 7.69893405,7.74741772 C7.03625968,5.83410976 4.69491135,4.34327846 2.65937384,5.29546442 C1.78086274,5.70602635 2.36266152,7.08217832 3.24572187,6.66913415 C4.25969958,6.19453051 5.59920154,6.86076281 6.07434563,7.77720456 C6.3902659,8.38634542 6.56212653,9.18264692 6.46204299,9.86873711 C6.30736843,10.9351059 5.7887537,11.2721937 4.7636556,11.420135 C4.22684387,11.4980772 3.65161623,11.5829697 3.11328809,11.4747442 C2.17058199,11.2851013 1.90369254,10.7921291 1.68381203,9.95710473 C1.39063802,8.84158761 1.83090451,6.47403035 3.4964362,6.67260928 C4.4664378,6.7882815 4.66508847,5.31135073 3.69559234,5.19617496" id="Fill-36"></path>
                            <path d="M14.9896352,19.1816989 C14.7246008,17.39328 14.5075898,15.6633911 14.1184198,13.8934817 C13.8008316,12.4507405 13.7799913,10.8254053 13.3029295,9.45219978 C12.9898719,8.54973608 11.7367352,9.13103476 12.0497928,10.0329982 C12.5359156,11.4332176 12.5775962,13.2126319 12.9028862,14.6893907 C13.2476574,16.2556955 13.407131,17.7929853 13.641358,19.3737976 C13.7822566,20.326287 15.1309868,20.1361893 14.9896352,19.1816989" id="Fill-37"></path>
                            <path d="M13.3774826,3.24427299 C10.9891665,2.67871713 9.58763401,5.20977872 10.1081765,7.46204518 C10.6231016,9.6924063 12.7867231,10.4685521 14.6788388,9.72775354 C16.5606559,8.99043996 17.4758182,7.03986968 16.7530506,5.01163503 C16.3991567,4.01942305 15.7227324,3.3214395 14.7401617,3.07351096 C14.2668987,2.95402733 13.8273399,2.98389824 13.3601624,3.13623987 C12.8340026,3.30849544 12.6402035,3.59923894 12.2174969,3.87355345 C12.4510856,3.83870405 12.6842062,3.80435251 12.9173269,3.76950312 C12.8616213,3.73714297 12.8059158,3.70478282 12.7502103,3.67192482 C12.8934531,3.93528665 13.037164,4.19864849 13.1804068,4.46151248 C13.1907053,4.37737609 13.2010038,4.29274185 13.2113023,4.20860546 C13.3259901,3.25323426 11.9333518,3.05857551 11.818664,4.01245317 C11.8088336,4.09658956 11.7985351,4.18072595 11.7882366,4.26536019 C11.744702,4.62530463 11.9394373,4.8921514 12.2189012,5.05445 C12.2746067,5.08681015 12.3298442,5.11966815 12.3855497,5.1520283 C12.6167979,5.28644739 12.8845589,5.17841427 13.0858478,5.04797797 C13.4205491,4.83091604 13.51464,4.54465318 13.9846261,4.49486833 C14.6390491,4.42566739 15.1684857,4.83539668 15.4133092,5.45820511 C15.8664433,6.60873291 15.4914842,7.67562217 14.4536761,8.21230281 C13.5773672,8.66584276 12.3808685,8.71512976 11.7629584,7.79261656 C11.3360387,7.15487267 11.3449329,6.34586892 11.5485624,5.62448649 C11.7765337,4.81747413 12.4370422,4.54614672 13.1930458,4.72537217 C14.0768445,4.93446852 14.2533234,3.4518758 13.3774826,3.24427299" id="Fill-38"></path>
                            <path d="M17.9780418,22.31583 C17.0190893,22.6802107 15.6500003,21.8666971 14.7308813,21.5811307 C13.8791349,21.3166173 13.0150941,21.1082456 12.164823,20.8323959 C10.6841021,20.3514135 9.27517967,19.885546 7.71872611,20.1711125 C7.94346522,20.2720594 8.1686961,20.3735462 8.3934352,20.4744931 C8.36196189,20.4248294 8.33098035,20.3757055 8.29999881,20.3265816 C7.75954306,19.470422 6.59994828,20.4723339 7.13991226,21.3279536 C7.1708938,21.3765377 7.20187534,21.4262014 7.23285688,21.4753253 C7.37301147,21.6966528 7.66807375,21.8218918 7.90756597,21.7781661 C9.94939699,21.402989 12.2066235,22.4891133 14.1727218,23.0802197 C15.6268871,23.5174764 17.0353178,24.3844325 18.5489873,23.808981 C19.4464684,23.4678127 18.8725723,21.9762812 17.9780418,22.31583" id="Fill-39"></path>
                            <path d="M6.7109818,17.5785445 C6.69376233,17.5326097 6.67654286,17.486675 6.65932339,17.4407403 C6.542231,17.1279007 6.20030153,16.9823601 5.88444726,17.0017011 C3.52488793,17.145791 1.95004443,18.2511255 2.00121086,20.7311169 C2.04745743,22.9862699 3.35859705,24.3256297 5.66059415,23.9315581 C6.62439247,23.7671602 7.69544348,23.4673757 8.29074514,22.6420013 C8.86587543,21.8451547 9.07939685,20.5691365 8.9741121,19.6175625 C8.72615173,17.3744976 6.46252945,16.6342233 4.49213014,17.2831117 C3.5908139,17.579995 4.16643617,18.9164536 5.06283256,18.6210209 C6.5225516,18.1399151 7.6590366,18.9256406 7.48831786,20.4559921 C7.33137469,21.8654627 6.55797451,22.3697776 5.19025664,22.5370767 C3.77481623,22.7101781 3.39106805,21.6575477 3.47618143,20.3916835 C3.58195817,18.8149137 4.66924468,18.5262503 6.07287745,18.4406666 C5.81458541,18.2946426 5.55678535,18.148135 5.2984933,18.0016274 C5.31522079,18.0475621 5.33293224,18.0939804 5.34965973,18.1394316 C5.67732164,19.016543 7.03765974,18.4532382 6.7109818,17.5785445" id="Fill-40"></path>
                            <path d="M24.7180481,0.306905812 C22.8660983,1.19231362 22.7183793,3.79428778 23.3083053,5.5825229 C24.0877487,7.94510349 26.7818392,8.70658407 28.7796081,7.28216746 C30.7284539,5.89258982 30.1432777,2.317115 28.4285974,0.986763636 C27.5465582,0.302426514 26.2755098,-0.208711103 25.186379,0.0844340346 C24.3979111,0.296951817 23.4925978,0.927537369 23.9542791,1.88809784 C24.3646624,2.74115517 25.6817839,2.17029358 25.2680757,1.31026846 C25.5449895,1.88560934 25.2581011,1.36551313 25.7088578,1.47849096 C26.1334906,1.58400331 26.4887761,1.62979168 26.8944097,1.81742448 C27.5935813,2.141427 28.0348383,2.55551317 28.3260015,3.31301215 C28.5577921,3.91522882 28.6746374,4.68815649 28.4528214,5.31227195 C28.1312594,6.21858314 27.2824689,6.40969984 26.4327284,6.42861243 C25.1773544,6.45747901 24.6800496,5.61338028 24.4895823,4.40098375 C24.351363,3.52005524 24.3599126,2.11853281 25.2690257,1.68354325 C26.1016669,1.28538347 25.5540141,-0.0932447671 24.7180481,0.306905812" id="Fill-41"></path>
                            <path d="M25.6272591,19.9989423 C27.0427808,20.0486638 27.7992841,18.3332724 28.5533006,17.3976478 C29.1093629,16.7072841 29.6027562,15.9829758 30.1230077,15.2691856 C30.4731578,14.789182 30.9098508,14.3885415 30.9924146,13.788537 C31.1182498,12.871558 29.638567,12.6846243 29.5127318,13.600169 C29.4714499,13.9023227 28.9979515,14.3110907 28.8164106,14.5697381 C28.4692447,15.0645625 28.1245656,15.5612993 27.7545206,16.0408249 C27.4113337,16.4854497 27.0447703,16.9123852 26.697107,17.3541415 C26.6259827,17.4449789 25.9291641,18.5804456 25.8232238,18.5766209 C24.869761,18.5436326 24.6673304,19.9654759 25.6272591,19.9989423" id="Fill-42"></path>
                            <path d="M31.4787383,9.6708003 C29.8281423,9.57555826 29.9346949,11.7062308 30.0683699,12.8584631 C30.3197371,15.0308654 31.8100199,16.4619507 34.0229229,15.8630059 C35.9694444,15.33672 36.3869367,13.2625054 35.6749719,11.5206561 C35.2574796,10.4995043 34.5435774,9.92166981 33.5211572,9.59765048 C32.3781388,9.23582891 31.9078546,8.66830415 30.6950927,9.25006612 C29.8528432,9.65459933 30.4098224,11.0144986 31.2573996,10.6080016 C31.7422138,10.3757878 31.8516723,10.5692175 32.2895064,10.7474281 C32.8406738,10.9722779 33.4799891,11.0012433 33.9226666,11.4357237 C34.6205858,12.1215646 34.9199017,13.823648 33.9396181,14.3543523 C32.6784233,15.0362657 31.6894218,14.0376971 31.526687,12.8108421 C31.4893936,12.5305163 31.4622711,12.246263 31.4559748,11.9639734 C31.4482256,11.6041156 31.6342082,11.1509795 31.2879124,11.130851 C32.2178256,11.1848542 32.4134949,9.72480352 31.4787383,9.6708003" id="Fill-43"></path>
                        </g>
                    </g>
                </g>
            </g>
        </g>
    </g>
</svg>