<?xml version="1.0" encoding="UTF-8"?>
<svg width="188px" height="64px" viewBox="0 0 188 64" version="1.1" xmlns="http://www.w3.org/2000/svg" xmlns:xlink="http://www.w3.org/1999/xlink">
    <!-- Generator: Sketch 60 (88103) - https://sketch.com -->
    <title>Group 4</title>
    <desc>Created with Sketch.</desc>
    <g id="web" stroke="none" stroke-width="1" fill="none" fill-rule="evenodd">
        <g id="Home" transform="translate(-615.000000, -1098.000000)" fill="#000000">
            <g id="Group-4" transform="translate(609.000000, 1080.000000)">
                <text id="Noriko" font-family="BradleyHandITCTT-Bold, Bradley Hand" font-size="18" font-style="expanded" font-weight="bold">
                    <tspan x="81.18" y="48">Noriko </tspan>
                </text>
                <g id="Group" transform="translate(50.000000, 55.000000) rotate(143.000000) translate(-50.000000, -55.000000) translate(27.000000, 4.000000)">
                    <path d="M38.2462622,99.4557884 C38.3568966,97.0469762 37.7161753,94.6484619 37.2671041,92.298303 C36.7339682,89.5071254 36.1128475,86.7231116 35.3932883,83.9762598 C33.7999786,77.8902032 31.8185773,71.8722023 29.8036373,65.9222571 C25.8112162,54.1302707 21.05263,42.6566236 16.2300152,31.2044677 C16.0871487,30.8650849 15.1001504,31.5496711 15.2809114,31.9781531 C20.0817477,43.3783718 24.8141998,54.8005294 28.7883271,66.5383399 C30.6760811,72.1126358 32.4880462,77.7415553 34.0604486,83.4192779 C34.8240002,86.1773231 35.4603658,88.9779031 36.0283472,91.7847514 C36.5558207,94.3883281 37.3594446,97.2023401 37.2370499,99.8771067 C37.2104802,100.449312 38.2279683,99.8506904 38.2462622,99.4557884" id="Fill-134"></path>
                    <path d="M42.7599902,94.8754796 C42.7881302,94.9060249 42.8171927,94.9361339 42.8453327,94.9662429 C43.1479525,95.2847874 44.1370026,94.5294443 43.8509899,94.2126452 C41.4724721,91.5774533 39.3190739,88.7712073 36.9580859,86.1224882 C36.6679215,85.7969619 35.6678,86.5562323 35.95289,86.8760859 C38.313878,89.5252414 40.4668149,92.331051 42.8453327,94.9662429 C43.1807055,94.7148982 43.5156171,94.4635536 43.8509899,94.2126452 C43.8223887,94.1825362 43.7937874,94.1519909 43.7647249,94.1218819 C43.4607211,93.8011556 42.4684419,94.5687169 42.7599902,94.8754796" id="Fill-135"></path>
                    <path d="M42.3771027,88.6588035 C41.0591992,86.6584975 39.6920283,84.6952005 38.1889321,82.8401886 C37.0632596,81.4503004 35.8135387,79.7136254 34.434051,78.5983338 C34.0755425,78.3091164 33.1812509,79.1498115 33.4755358,79.3878561 C34.8532639,80.5013201 36.106064,82.2416503 37.2304169,83.629254 C38.7335131,85.4847228 40.1002441,87.4484767 41.4181475,89.4483258 C41.6499683,89.8001384 42.6247594,89.0348317 42.3771027,88.6588035" id="Fill-136"></path>
                    <path d="M43.2839401,81.9974879 C41.5114458,79.8996555 39.5179412,78.0382853 37.3995944,76.2907509 C36.4396771,75.4987346 35.4329992,74.7616583 34.4774933,73.9661258 C33.6944726,73.3134376 33.0918775,72.4440656 32.2590081,71.8748862 C31.936977,71.6546864 31.0308787,72.4585698 31.4336381,72.7341493 C32.3887028,73.387277 33.1862811,74.4517962 34.1047313,75.1849168 C35.0778827,75.9615499 36.0598569,76.7258764 37.0122748,77.5271227 C38.9228454,79.1340105 40.7121029,80.8503389 42.3226994,82.7569797 C42.5997343,83.0853017 43.5565636,82.3200962 43.2839401,81.9974879" id="Fill-137"></path>
                    <path d="M42.8243254,78.7322888 C42.8359056,78.7793468 42.847949,78.8264049 42.8599924,78.8734629 C43.2078611,78.636802 43.556193,78.4010549 43.904525,78.164394 C41.489825,75.6639209 39.0024014,73.2210139 36.70304,70.6154597 C34.5236493,68.1446834 32.5077708,65.2659184 30.0157152,63.1026185 C29.6604351,62.7946852 28.6988166,63.6252827 29.0063863,63.8920973 C31.4961259,66.0521991 33.5170997,68.9382741 35.6937111,71.4044817 C37.9926093,74.0100359 40.4800329,76.4533997 42.8947329,78.9538728 C43.1967441,79.2654611 44.0305174,78.6057346 43.9397287,78.2448039 C43.9276854,78.1972889 43.915642,78.1506878 43.9040618,78.1036297 C43.7864071,77.6389885 42.7201037,78.3201881 42.8243254,78.7322888" id="Fill-138"></path>
                    <path d="M42.137205,72.5437055 C40.716125,69.2429583 37.5065137,66.2860867 35.0201825,63.7863404 C33.716222,62.4759452 32.3644303,61.2219455 30.9969928,59.9826179 C29.770814,58.871212 28.1776309,57.8363757 27.1803269,56.5168104 C26.9174785,56.1688083 25.9389493,56.9551372 26.2062679,57.3090998 C27.203572,58.6286651 28.7967551,59.6630428 30.0224868,60.7744488 C31.3899243,62.0137764 32.7421631,63.2682345 34.0456765,64.5786298 C36.5320077,67.0779176 39.7420661,70.0352477 41.1635931,73.3359948 C41.3137922,73.6849139 42.3254009,72.9811152 42.137205,72.5437055" id="Fill-139"></path>
                    <path d="M42.8183614,65.4897439 C39.5121867,62.4229333 35.9993476,59.5877979 32.3959222,56.8600673 C30.6529313,55.5401405 28.8698821,54.2699217 27.1460099,52.9264723 C26.24834,52.2270087 24.8485759,50.4929958 23.7283093,50.3296693 C23.3350097,50.2724162 22.4960616,51.1520716 23.0705339,51.235954 C23.5680761,51.308297 24.555422,52.430723 24.9537289,52.7453928 C25.7548947,53.3773955 26.5542397,54.0102858 27.3704274,54.6232041 C29.0205559,55.8627991 30.6907136,57.0762087 32.3294619,58.3304499 C35.6106001,60.8411514 38.8043385,63.4526005 41.8269187,66.2571122 C42.1601309,66.5660124 43.117433,65.7671327 42.8183614,65.4897439" id="Fill-140"></path>
                    <path d="M39.8954729,59.7518458 C39.9010186,59.7868634 39.9070265,59.8214141 39.9125722,59.8559648 C40.2601026,59.6145768 40.6071709,59.3727219 40.9542391,59.1313339 C37.4193187,55.7061453 33.8927169,52.2851589 30.287551,48.9351415 C28.6478729,47.4111753 27.0012627,45.8900106 25.2409657,44.5079825 C24.5154035,43.9383629 23.7745907,43.3888199 23.0074358,42.8780298 C22.1279805,42.2930024 20.8094907,41.8424425 20.0571244,41.0958672 C19.7253068,40.7667018 18.7488018,41.603389 19.050118,41.9026728 C20.3316364,43.1749791 22.4755109,43.9575058 23.9317188,45.0771353 C25.8075512,46.5189268 27.5479761,48.1316042 29.2810068,49.7414801 C32.8857105,53.0919645 36.4118502,56.5129509 39.9476949,59.9381394 C40.2721183,60.252831 41.0503646,59.589831 40.989824,59.2135085 C40.9842783,59.1789578 40.9782705,59.1444071 40.9731869,59.1098564 C40.8973957,58.6457564 39.8247653,59.3166937 39.8954729,59.7518458" id="Fill-141"></path>
                    <path d="M40.3062894,55.6979539 C40.354261,55.7271436 40.4031294,55.7563332 40.4511011,55.7855229 C40.7573129,55.9714386 41.6181135,55.2816645 41.359425,54.958782 C34.4707793,46.3559165 26.633908,37.3506827 16.3585504,32.8384108 C15.9756735,32.670458 15.097388,33.5313284 15.5192699,33.716795 C25.7282742,38.1994281 33.5360037,47.1844536 40.3820577,55.7343287 C40.6851312,55.4585987 40.9873081,55.1833178 41.2899333,54.9071388 C41.2419616,54.8783982 41.1935415,54.8492085 41.1455698,54.8195698 C40.799008,54.6098533 39.8893391,55.4455757 40.3062894,55.6979539" id="Fill-142"></path>
                    <path d="M35.7984733,87.3936432 C34.6370336,88.7957768 33.8296913,90.3204023 33.1702832,91.915324 C32.5087766,93.5169806 31.7832702,95.1864077 31.9144174,96.8966654 C31.944319,97.2940278 33.1676602,96.7186101 33.1372341,96.3174593 C33.0228737,94.8265085 33.6429377,93.3747046 34.2005757,91.9776223 C34.8379511,90.380175 35.6049,88.8252422 36.7668643,87.4226877 C37.2930269,86.7874972 36.0969644,87.0333231 35.7984733,87.3936432" id="Fill-143"></path>
                    <path d="M35.2151895,79.5260152 C33.535764,79.5462522 32.4633302,82.128975 31.9217068,83.2513712 C31.2036382,84.7381758 30.5823933,86.2905022 30.1474235,87.8675114 C29.8721884,88.865147 29.194422,90.341181 29.4844019,91.372475 C29.6136641,91.8297808 30.7440939,91.1584075 30.6300679,90.7545064 C30.4319969,90.0521674 30.8246984,89.2807163 30.9986863,88.6003675 C31.3117662,87.3765473 31.6592505,86.193566 32.1300991,85.0101359 C32.5046154,84.0681489 32.9017403,83.1261618 33.3951975,82.2303991 C33.5116809,82.019473 34.3305053,80.4442589 34.5044932,80.4424637 C34.9306161,80.4370784 35.8059619,79.5188767 35.2151895,79.5260152" id="Fill-144"></path>
                    <path d="M30.9799035,73.3980723 C29.8219508,75.0857324 28.9507724,77.0103191 28.0425033,78.8358917 C27.2156527,80.4974721 26.3856359,82.0153938 25.9400955,83.8095824 C25.8120874,84.3236601 26.8940494,83.7715681 26.9881331,83.3936348 C27.4146758,81.6772429 28.2275043,80.2212051 29.0159072,78.6365374 C29.8816578,76.896276 30.7116746,75.0366673 31.8144436,73.4285721 C32.2712921,72.7633211 31.2386335,73.021465 30.9799035,73.3980723" id="Fill-145"></path>
                    <path d="M30.3542827,69.9299898 C28.8462425,71.2475963 27.7048209,72.8156984 26.7749639,74.5664345 C26.0931,75.8512488 24.7868168,78.0583422 25.0805787,79.5617709 C25.1697815,80.0185836 26.2514232,79.3559091 26.1692259,78.9350766 C25.923101,77.6766781 26.9711166,75.9623777 27.5212781,74.8633855 C28.3465203,73.2164912 29.3473658,71.658409 30.7577967,70.4264264 C31.3289745,69.9272572 30.9432076,69.4157908 30.3542827,69.9299898" id="Fill-146"></path>
                    <path d="M29.3235473,65.3616822 C27.9757473,66.5511032 27.486086,68.5245975 26.5737594,69.9789546 C25.3737444,71.8910455 24.5205318,73.938825 23.3146055,75.8371753 C22.9520394,76.4074104 24.1678181,75.9681405 24.3742246,75.6430893 C25.3707887,74.0749428 25.989023,72.3612318 26.9895281,70.7913678 C27.4708149,70.0352052 27.9698359,69.287201 28.3959496,68.5048454 C28.8787142,67.618147 29.2205904,66.3209481 30.0191225,65.6158834 C30.6669138,65.0439307 29.7772476,64.9610577 29.3235473,65.3616822" id="Fill-147"></path>
                    <path d="M28.3788207,60.2121781 C28.3390015,60.2151187 28.2987026,60.2184795 28.2588834,60.2218402 C27.9149031,60.2504065 27.5373403,60.4583524 27.396294,60.7452758 C26.640209,62.2786143 25.9373762,63.7959893 24.9332608,65.2222042 C24.5691311,65.7405986 24.1886898,66.2510113 23.851426,66.7836889 C23.5515827,67.2575536 23.298275,68.228808 22.8569056,68.5619415 C22.2572189,69.0143814 22.6573299,69.4823647 23.2709293,69.0194225 C23.6897505,68.7030927 23.8298373,68.437174 24.0687525,68.002378 C24.5916793,67.0491876 25.1822507,66.1510293 25.8188781,65.2511906 C26.877685,63.7552403 27.6332902,62.1681299 28.4282349,60.555814 C28.140865,60.7305725 27.8530154,60.904911 27.5656455,61.0796696 C27.6054647,61.0763089 27.6452839,61.0729481 27.6851031,61.0695874 C28.0938496,61.03598 28.929573,60.1659679 28.3788207,60.2121781" id="Fill-148"></path>
                    <path d="M25.7281175,58.083345 C24.271959,60.9211099 22.1175606,63.3891705 20.8096806,66.3081106 C20.5379133,66.9141903 21.6419679,66.4645725 21.7971323,66.1184216 C23.1045533,63.2020051 25.2598698,60.7305797 26.7155692,57.8936559 C27.0167167,57.3060826 25.9002673,57.7481295 25.7281175,58.083345" id="Fill-149"></path>
                    <path d="M22.9857544,50.5460832 C21.50358,51.8886304 20.5522841,53.768801 19.5076677,55.3967852 C18.3130723,57.2605464 17.4974717,59.031465 16.8937463,61.0986163 C16.7494807,61.5934889 17.8902741,61.0588883 17.997402,60.6918361 C18.5125683,58.9273949 19.171048,57.3896624 20.157101,55.7940651 C21.1364883,54.2092635 22.2334783,52.0920204 23.6580417,50.8017242 C24.2889062,50.2299865 23.4266454,50.1466441 22.9857544,50.5460832" id="Fill-150"></path>
                    <path d="M20.8236019,44.14386 C18.466909,46.4034367 17.3501502,49.6761175 16.0933988,52.6348788 C14.7025636,55.9089405 13.6585282,59.2543476 12.6999428,62.6816868 C12.554496,63.2022778 13.6448926,62.6365781 13.7535232,62.2480911 C14.6171136,59.1609082 15.5297924,56.1082473 16.7660903,53.1499463 C17.9992066,50.1994703 19.1273284,46.6584388 21.4653859,44.4158929 C22.0844439,43.823036 21.2522155,43.7332789 20.8236019,44.14386" id="Fill-151"></path>
                    <path d="M19.8952799,42.0463553 C19.8499611,42.0328641 19.8046423,42.0189378 19.7593235,42.0050115 C19.4616329,41.9140552 19.1556269,42.1964984 18.9864089,42.4158379 C15.9097185,46.4009408 14.3277175,51.5184274 11.1653787,55.4495658 C10.6677032,56.0684165 11.3944674,56.1519744 11.7524445,55.7072026 C14.9775644,51.6981639 16.6210992,46.5032122 19.7539185,42.4454313 C19.4961417,42.5825185 19.2387807,42.7191705 18.9814197,42.8558225 C19.0263228,42.870184 19.0716416,42.8836751 19.1169604,42.8976014 C19.4944786,43.0124936 20.2744613,42.1621178 19.8952799,42.0463553" id="Fill-152"></path>
                    <path d="M15.3054009,33.6982602 C15.1487092,32.783924 14.3519861,33.0061794 13.8545523,33.5489458 C12.5848525,34.9335366 12.1657645,37.794109 11.4917417,39.5249548 C9.62595033,44.3120263 7.70253959,48.9124547 6.3213317,53.8823077 C6.18702457,54.3658632 7.18147767,53.8394012 7.28220801,53.478129 C8.28204998,49.8799949 9.4535066,46.4298881 10.8653896,42.9814976 C11.5016903,41.4278554 12.1848328,39.8978117 12.7622705,38.3188547 C13.0918204,37.4182486 13.3919388,36.5051995 13.7322664,35.6084549 C13.9254366,35.0991555 14.1219229,34.0560999 14.5944851,33.7175681 C14.4054602,33.7793534 14.2164354,33.8411387 14.0274105,33.902924 C14.1314571,34.0316433 14.2350891,34.1603626 14.3391357,34.2886528 C14.4125072,34.7168591 15.373798,34.096432 15.3054009,33.6982602" id="Fill-153"></path>
                    <path d="M40.2863149,65.2596519 C41.3684743,66.6202648 42.117627,68.7334626 42.6465728,70.3462715 C42.8294793,70.9053726 44.3489066,74.6113637 43.8451273,75.136216 C44.09095,75.0356935 44.3372222,74.9342813 44.5825955,74.833314 C43.6855896,74.2372952 42.1540285,72.2864459 41.7693407,71.326144 C41.5868835,70.8715686 40.6094348,71.5547662 40.7217852,71.93862 C41.1150117,73.2792174 41.5352024,74.5997992 42.0641482,75.899031 C42.6106207,77.2409628 43.2618038,78.5010531 43.0833913,79.980425 C43.3651662,79.7589195 43.6464917,79.5378588 43.928716,79.3167981 C43.3364045,79.2585306 43.2442771,78.2848851 42.6928612,78.0335787 C42.5023149,77.9468446 42.2200906,78.1149753 42.078529,78.2266176 C40.3263117,79.6081357 42.5962398,82.5032744 42.8977884,84.0048858 C43.212819,83.7575825 43.5274002,83.5111688 43.8419814,83.2638655 C43.0186775,82.8506555 43.0137341,81.8645558 42.1436923,81.5096133 C41.8039446,81.3708388 41.2552251,81.8298622 41.2021957,82.1541142 C40.7038091,85.2040399 42.6115195,88.2748707 43.0326089,91.2456238 C43.370559,91.0156673 43.7085091,90.785266 44.0464592,90.5553095 C43.2860715,89.6950855 42.849253,88.5844446 42.172454,87.6588364 C41.9068576,87.2945533 41.2224187,88.0079967 41.1621989,88.2521864 C40.5092182,90.9066937 43.1678788,93.4842523 42.6214063,96.2446197 C42.9584576,96.0471329 43.2950595,95.8492013 43.6316614,95.6512697 C43.0802455,94.6740658 42.6074749,93.6964172 41.9392145,92.787711 C41.8493342,92.6662833 41.6394636,92.7249956 41.5293601,92.7690299 C40.4242813,93.2058137 40.151045,94.533957 39.8939872,95.5698731 C39.5731144,96.8597644 39.3794222,98.3885079 38.5417374,99.4755749 C37.9921191,100.189463 38.273894,99.9724055 37.7907871,99.354592 C37.3099273,98.7390025 36.785026,98.1687816 36.1972086,97.6528251 C35.7734227,97.2818702 35.3046967,96.9860848 34.9523658,96.5506353 C34.5937432,96.1076243 34.3870184,95.6201344 33.8980693,95.2812043 C33.4149624,94.947167 33.0549916,94.7906008 32.4941383,94.9636242 C30.9774074,95.4306538 32.0267605,96.4679043 31.5090497,97.3694938 C31.8330683,97.208035 32.1575364,97.0461314 32.4820044,96.8846726 C31.5840998,95.5049337 30.9881931,93.5260626 30.6165378,91.9337141 C30.3900394,90.9645164 30.5698001,89.8280777 30.0997258,88.9429454 C29.9150217,88.5955644 29.1986754,89.2360621 29.1267711,89.4277666 C28.942067,89.9192597 28.7479254,90.6718445 28.3452615,91.0125538 C28.5501887,90.9480592 28.7551159,90.8844542 28.960043,90.8199596 C27.7480066,90.0411322 28.0010197,86.7234429 27.9448445,85.5394116 C27.8688956,83.9461735 28.2890863,81.9250473 27.5412818,80.4759211 C27.4761185,80.3504903 27.2195101,80.4149849 27.130978,80.45724 C25.5270632,81.2258372 25.9885988,83.6655109 25.0466527,84.9896511 C25.3594364,84.8926868 25.67222,84.7957226 25.985453,84.6987583 C25.6151459,83.5151719 25.878046,81.6724065 25.9045607,80.418988 C25.9342212,78.9987732 26.2177937,77.6781914 26.3939591,76.2695412 C26.4649646,75.7006547 25.578295,76.289112 25.4583047,76.4639145 C24.7797081,77.4535724 24.6642119,78.8595539 23.90697,79.7820486 C24.2197536,79.6850843 24.5325372,79.5876753 24.8457702,79.4907111 C24.2763782,77.3717311 25.2138302,74.8613357 25.0754145,72.7156683 C25.0574384,72.4381193 24.5999474,72.6275999 24.494338,72.6858674 C23.401393,73.2903371 22.9699673,74.5975752 22.3785547,75.6277091 C22.7030227,75.4662503 23.0274908,75.3043467 23.3515094,75.1428879 C22.365522,73.0541536 23.2441024,70.4939418 23.1218651,68.3451608 C23.1164723,68.2504205 23.0032231,68.1988249 22.9227802,68.1974905 C21.2851602,68.1685791 21.6869254,70.0980786 21.0011383,70.9889932 C21.3026869,70.8657863 21.6037861,70.7430242 21.9053346,70.6198174 C20.4483742,69.1778079 21.3489753,66.2195089 21.5907534,64.437235 C21.6684999,63.8625662 20.6816137,64.483938 20.5867899,64.7468089 C20.1342424,66.0002274 19.6488885,67.9986693 18.5083069,68.8628965 C18.7361536,68.8153039 18.9644497,68.7681562 19.191847,68.7210084 C18.5074081,67.4084329 18.4431437,65.3223673 18.3132666,63.8616766 C18.1757496,62.3129175 17.9928431,60.8032999 18.1896811,59.2536512 C18.2624842,58.6780928 17.2796426,59.2999094 17.1852682,59.5641147 C16.6778937,60.987443 16.2437716,62.4245598 15.8820032,63.8914776 C15.6375287,64.8838043 15.5027081,66.4063208 14.9162389,67.2229554 C14.5675031,67.7082214 15.247448,68.6307161 14.4825662,66.7964017 C14.318984,66.403652 14.1545029,66.0149055 13.9850785,65.6234902 C13.7284701,65.032809 12.4022856,61.7756111 13.1658191,61.106202 C13.7194821,60.6213808 13.346928,60.1232159 12.777536,60.6218256 C10.646473,62.489944 13.0516711,67.0864048 14.17922,69.0034502 C14.2542701,69.1311049 14.4911048,69.0612729 14.5895238,69.0225761 C15.5440531,68.6453941 15.6905581,67.6886506 15.9575027,66.8039631 C16.703959,64.3300406 17.2832378,61.8000745 18.1523808,59.3630696 C17.8175765,59.4662609 17.4827722,59.5694522 17.1479679,59.6730883 C16.9403443,61.3094711 17.1196556,62.8293188 17.2657111,64.4737078 C17.4099691,66.0914094 17.4549093,68.0369213 18.2126006,69.4891609 C18.3298944,69.7146695 18.7986204,69.4215528 18.8961406,69.3477177 C20.3562469,68.2410799 20.961591,66.1857049 21.5534531,64.5462086 C21.2186488,64.6493999 20.8838445,64.753036 20.5494896,64.8557825 C20.2969258,66.7145603 19.3963248,69.8739044 20.9260883,71.3884147 C21.1907859,71.650396 21.6783868,71.2171705 21.8307339,71.0196837 C22.0644228,70.7154472 22.168684,70.3729589 22.2567668,70.0033383 C22.617187,68.4857145 21.890055,69.9953321 21.8469124,70.6981004 C21.7484934,72.2922281 21.6860266,74.4574663 22.3727124,75.9114852 C22.5506755,76.2895567 23.2580338,75.579227 23.3456672,75.4271087 C23.6296891,74.9311678 24.0701028,73.655065 24.6084861,73.3570556 C24.4152433,73.347715 24.2215512,73.3374849 24.027859,73.3276995 C24.1685218,75.5067262 23.2207335,77.9544061 23.7977653,80.103187 C23.9177556,80.5502011 24.6111825,79.9653021 24.7361162,79.8122943 C25.5356018,78.8390936 25.5868336,77.5167326 26.2879003,76.494605 C25.9760155,76.5595443 25.6641307,76.6240389 25.3522459,76.6889783 C25.1927083,77.9659706 24.8462196,79.181582 24.8435232,80.4643566 C24.8394785,81.9926554 24.4781596,83.8420926 24.9378975,85.3107895 C25.0713698,85.7395672 25.7495171,85.1978128 25.8762483,85.0198968 C26.4550778,84.2068205 26.7979713,83.1032962 27.0118865,82.1434392 C27.3655657,80.5537594 26.8226884,82.4401142 26.8285306,83.0815015 C26.835721,83.9159278 26.771906,84.8135142 26.8285306,85.6359311 C26.9345894,87.1780183 26.5903477,90.7078725 28.118763,91.6895243 C28.2827946,91.7953843 28.6171495,91.5952288 28.7335446,91.497375 C29.4764056,90.8684418 29.7550347,90.1274215 30.0934342,89.2271663 C29.7694156,89.3881803 29.4449475,89.5500839 29.1204795,89.7115427 C29.4202304,90.2759814 29.316868,90.9356051 29.3910193,91.5431883 C29.4907865,92.3673844 29.7235766,93.1079599 29.99142,93.887677 C30.4232951,95.1459881 30.7684356,96.5248374 31.5027581,97.6528251 C31.7324023,98.0059885 32.3714516,97.3512574 32.4757128,97.1688935 C32.630307,96.9002403 32.5570545,96.7805917 32.6550241,96.5493009 C32.9156771,95.9368249 32.1503459,95.9150302 32.9336532,96.1013973 C33.52192,96.2415061 33.7884153,97.1755654 34.1223208,97.559864 C34.4544286,97.9423835 35.1676292,98.360931 35.4754694,98.6415935 C36.265967,99.3634878 37.2618413,101.678176 38.5925198,100.834409 C39.115174,100.502595 39.2796551,99.7904863 39.5088499,99.2749746 C39.9528588,98.2782 40.4152932,97.4015187 40.679092,96.3380256 C40.7977341,95.8585419 40.8718854,95.3692728 41.0004143,94.892013 C41.0979345,94.5108279 41.2192729,94.1372042 41.3644297,93.7706972 C41.3176919,93.8187345 41.2709541,93.8672166 41.2242164,93.9156987 C41.7414777,94.2057019 42.3769318,95.9310427 42.6528645,96.419867 C42.8690267,96.8028312 43.6181794,96.0529151 43.6631196,95.8260722 C43.9053471,94.6015651 43.6388519,93.3512601 43.2168636,92.1934715 C42.7795958,90.9920934 41.8825899,89.1395427 42.2039121,87.8331941 C41.8673102,88.0315705 41.5302589,88.2290573 41.1932076,88.4269889 C41.8695572,89.3525971 42.3068251,90.463238 43.0667635,91.3239068 C43.3629192,91.658389 44.1282504,90.9698539 44.0801644,90.6331478 C43.6721076,87.7558007 41.7603526,84.6911969 42.2439089,81.7346771 C41.9302265,81.9499555 41.6165441,82.1643444 41.3028617,82.3796228 C42.1459393,82.7234455 42.1922277,83.7282263 43.0011508,84.1338749 C43.3310117,84.2993368 44.0145517,83.7375669 43.9453438,83.3928546 C43.7781664,82.5610971 41.8538282,79.1940361 42.4663627,78.710994 C42.261885,78.7750438 42.0569578,78.8395384 41.8520306,78.9035881 C42.5787132,79.2340672 42.4043453,80.139215 43.2788811,80.2250595 C43.5975069,80.2561948 44.086456,79.878568 44.1246551,79.5614327 C44.2621721,78.424994 43.9839924,77.4411183 43.5925635,76.3713981 C42.9728385,74.6780822 42.2780634,73.061715 41.7693407,71.326144 C41.4201555,71.5303027 41.0709704,71.7344614 40.7217852,71.93862 C41.228261,73.2013791 42.5921952,74.939174 43.7417649,75.7028786 C43.9516355,75.8420979 44.358344,75.5258521 44.4796825,75.3995318 C45.5245415,74.309796 44.452269,72.3980882 44.1201611,71.1918174 C43.5175134,69.0038949 42.696007,66.289341 41.2655613,64.4910546 C40.9977179,64.1547933 40.0153257,64.9198323 40.2863149,65.2596519" id="Fill-154"></path>
                    <path d="M13.1816266,61.9199329 C13.2151321,61.9020314 13.248159,61.8850479 13.2811859,61.8680644 C13.0897257,61.7868191 12.8977869,61.7060327 12.705848,61.6247874 C12.2008718,62.8875329 11.5068286,63.9744762 11.1138566,65.281746 C11.4723658,65.0770261 11.8313536,64.8732242 12.1898628,64.6689633 C10.6002647,62.13062 10.2360117,58.4406125 10.5993074,55.6075827 C10.6663185,55.0833896 9.85548459,55.5290914 9.7066243,55.687451 C9.38736445,56.0294159 9.20499863,56.2873813 9.02502606,56.7197718 C8.77660648,57.316948 9.02023956,58.077074 8.43485006,57.6667161 C8.14574518,57.4638323 8.01315901,56.8345251 7.86669197,56.5164289 C7.33586862,55.3615516 6.70117813,54.1699532 6.9448112,52.8640605 C6.58630202,53.0678624 6.22731418,53.2725823 5.86880499,53.4763842 C5.92241384,53.5645147 5.97602269,53.6531043 6.02915289,53.7412348 C6.24406695,54.0974291 7.31720125,53.3533686 7.07213222,52.9485189 C7.01852337,52.8599294 6.96539317,52.7717988 6.91178432,52.6832093 C6.6762883,52.2944251 5.88077125,53.055469 5.83577811,53.295992 C5.6069832,54.5224754 6.04782026,55.6360415 6.54896728,56.7477716 C6.80360932,57.3109809 7.25354074,58.7541185 7.89876155,59.0322806 C9.7578399,59.8346357 9.74683094,56.6385265 10.3829574,55.9591869 C10.0852368,55.9862686 9.78751623,56.0128914 9.48979565,56.0395142 C9.10304608,59.0598214 9.46442717,62.7764516 11.1468835,65.4616792 C11.4000896,65.8660698 12.156836,65.0705999 12.2228897,64.8488965 C12.5904933,63.6265442 13.2649117,62.5951414 13.7354251,61.4182314 C13.9120472,60.9775787 13.4353113,61.0326603 13.1600873,61.1744954 C13.1270604,61.1923969 13.0935549,61.2093804 13.0600494,61.2263639 C12.5029002,61.5141652 12.3932893,62.3266187 13.1816266,61.9199329" id="Fill-155"></path>
                    <path d="M39.1875094,59.5952005 C40.3191743,60.0543307 41.1566455,61.6914313 41.6906069,62.6063188 C42.4545297,63.9158306 43.4219364,65.2088997 43.9088269,66.6158028 C44.2525431,66.3818108 44.595769,66.1478189 44.9389949,65.9134053 C43.7641817,65.6473712 42.7869685,65.0714558 42.0666844,64.2257119 C41.7921037,63.9031824 40.7124131,64.6186497 40.9982712,64.954249 C41.7538585,65.8417321 42.7810846,66.4572785 44.0216011,66.7380689 C44.3692399,66.8169094 45.1802337,66.4054208 45.0517691,66.0356714 C44.5428141,64.5651056 43.5553042,63.2429456 42.7590201,61.8782033 C42.1706328,60.869719 41.3478713,59.2747791 40.1049032,58.770537 C39.6940128,58.6035805 38.7256254,59.4075854 39.1875094,59.5952005" id="Fill-156"></path>
                    <path d="M39.2956848,58.8733715 C40.2936516,59.2567624 41.0868224,59.6969685 41.8431016,60.4301979 C42.2716124,60.845799 42.5227596,61.2430581 43.1352558,61.4278194 C43.5122129,61.5418972 44.0542366,61.123612 44.1261281,60.7800365 C44.3626131,59.6441795 43.7349818,58.5069805 43.2052554,57.5178589 C42.4376249,56.0853997 41.7835073,54.6784402 40.6006092,53.5220046 C40.271895,53.2007973 39.2649417,53.9966577 39.5695345,54.294602 C40.5140557,55.2184085 40.9879717,56.181583 41.6033057,57.3183346 C42.2247884,58.4667178 43.3159304,59.8284935 43.0297835,61.2010059 C43.3599166,60.9853765 43.6900497,60.7688524 44.0201828,60.553223 C43.2790387,60.3290937 42.8997167,59.6039168 42.3397201,59.1328426 C41.7116159,58.6045058 40.9524989,58.29493 40.1806118,57.9987751 C39.7705467,57.8408557 38.8520389,58.7029259 39.2956848,58.8733715" id="Fill-157"></path>
                    <path d="M40.4200139,54.7611019 C40.2107587,54.286739 39.5278548,53.2291578 39.6476229,52.7362098 C39.4460509,52.9393185 39.244931,53.1424273 39.043811,53.3450935 C40.8480152,52.4875234 42.2766449,55.3872431 43.971024,55.1637792 C44.3068266,55.1190865 44.7077106,54.7593318 44.7081676,54.4181623 C44.7117782,51.5626929 42.7661121,49.1165384 41.1395262,46.9288054 C39.1671947,44.2751171 37.2793789,41.7178944 34.7877511,39.5058238 C30.9420664,36.0914735 26.1224186,33.0709506 20.900531,32.4877322 C19.7037543,32.3536539 18.6073115,32.2536483 17.4096309,32.1700153 C16.1129721,32.0793022 15.019693,31.6991925 13.7316214,32.0562921 C11.5531985,32.6611932 10.5272607,34.7148479 9.20710026,36.3622852 C7.40289605,38.613296 6.470061,41.3169871 5.19238433,43.8684572 C3.98882826,46.271689 3.15361549,49.233359 2.86029672,51.8843923 C2.73194151,53.0393241 2.21354917,56.461197 4.27898335,55.8288607 C5.69902584,55.3938806 7.59768864,53.2924356 7.12268397,51.7759791 C6.78281384,52.004753 6.44339566,52.2335269 6.10352553,52.4623007 C6.11934395,52.4972584 6.13471042,52.5322161 6.15052885,52.5671738 C6.30102985,52.9025908 7.32470784,52.2246768 7.13533871,51.8025293 C7.11952029,51.7675716 7.10415382,51.7330564 7.08833539,51.6980987 C6.93512266,51.3564867 5.96115972,52.0397107 6.06917695,52.3848628 C6.12476741,53.2371228 5.84229556,53.9269844 5.22221335,54.45312 C4.78833659,54.44604 4.35400787,54.4385174 3.92013111,54.4314374 C3.60783023,54.1385007 3.8970814,53.023394 3.91470765,52.5485887 C3.96397074,51.2184258 4.26045319,50.0431389 4.54156918,48.7510312 C5.17069049,45.8641441 6.42079791,43.5476428 7.58367803,40.8651919 C8.6688219,38.3637245 9.98627061,36.1928066 11.8415457,34.142692 C13.865852,31.9053987 17.8353724,33.1705137 20.4969352,33.4099076 C25.7011966,33.8776329 30.4661578,37.4163264 34.2422415,40.7036784 C36.4884577,42.6599825 38.1557195,45.009229 39.9228634,47.3735205 C41.6190504,49.641789 43.6582712,52.0538708 43.6546556,55.0274884 C43.9000671,54.7792445 44.1459306,54.530558 44.3913421,54.282314 C43.6786092,54.3765671 42.6074759,53.261018 41.9760948,52.925601 C41.2846037,52.5578813 40.4127826,52.1383888 39.6037832,52.3640651 C37.8628527,52.849933 38.8779436,54.2628439 39.3665069,55.3699855 C39.5653671,55.8213382 40.5772942,55.1190865 40.4200139,54.7611019" id="Fill-158"></path>
                    <path d="M7.10065405,54.5163212 C7.0818091,54.5660493 7.06338292,54.6162176 7.04453797,54.6655056 C6.80206624,55.3088911 7.80294263,54.8208511 7.9457455,54.4670331 C9.29797556,51.1123631 10.722654,47.8831137 12.3248938,44.6609055 C13.1754293,42.9503451 13.9108012,41.1724536 14.6185339,39.3928018 C14.9707252,38.5073767 15.4682319,37.7086457 15.8233546,36.831582 C16.1223612,36.0927008 16.1516755,35.1575475 16.7283311,34.5766523 C16.4779026,34.660266 16.2274741,34.7434396 15.9766269,34.8270533 C16.0038474,34.8723808 16.0319054,34.9181483 16.0591259,34.9639158 C16.2647453,35.3045316 17.1981986,34.5779725 16.9716404,34.2039112 C16.9440011,34.1577036 16.9163618,34.1123762 16.8891414,34.0666087 C16.7300062,33.8034455 16.2421313,34.2109523 16.1370184,34.3170097 C15.2169659,35.2420414 15.0729067,36.6903188 14.5125834,37.8397872 C13.5523284,39.8091101 12.8035556,41.8902113 11.8801529,43.8854984 C10.2167717,47.4800077 8.53287047,50.9733003 7.04453797,54.6655056 C7.34480089,54.5990547 7.6450638,54.5330439 7.9457455,54.4670331 C7.96417167,54.4168649 7.98301662,54.3675768 8.0014428,54.3178486 C8.24223942,53.679744 7.23801282,54.1510613 7.10065405,54.5163212" id="Fill-159"></path>
                    <path d="M9.50339973,57.7069332 C9.53245172,57.722415 9.56150371,57.7370122 9.5905557,57.7516094 C9.91144814,57.915717 10.3437065,57.4543579 10.475761,57.2194761 C11.9151551,54.6636442 12.8998415,51.8808926 14.5566853,49.4294525 C16.2452222,46.9324516 18.1873037,44.58098 20.1945321,42.3692874 C20.2926926,42.2609145 20.5871742,41.7668223 20.2020152,41.7867276 C20.1615185,41.7889393 20.1210218,41.791151 20.0809652,41.7933626 C19.7015286,41.8128255 18.9254884,42.7231582 19.4449027,42.6961756 C19.4849593,42.6944062 19.525456,42.6921945 19.5650723,42.6899828 C19.5677134,42.4962386 19.5703545,42.3016096 19.5729956,42.1078653 C18.7344495,43.0319105 17.8985445,43.6878985 17.1493553,44.7565884 C16.09468,46.261424 14.9603319,47.6941585 13.9008146,49.1928014 C12.0775821,51.772962 11.0625232,54.6950502 9.52893027,57.4189708 C9.82385198,57.2415931 10.1192139,57.063773 10.4141356,56.8868376 C10.3855238,56.8717981 10.3564718,56.8572009 10.3274198,56.8421614 C9.96603066,56.6577062 9.08962896,57.4959377 9.50339973,57.7069332" id="Fill-160"></path>
                    <path d="M18.0512786,35.1942981 C15.6362235,29.0733127 13.2948402,22.9095772 10.4009181,16.9882435 C8.98780003,14.09534 7.42641739,11.2915748 5.72413735,8.55511823 C4.9008545,7.23123171 4.06283728,5.91689573 3.24922386,4.58755177 C2.57881008,3.49105902 2.00969509,1.97525216 1.12379117,1.05021432 C0.808383585,0.721402927 -0.17467508,1.52774123 0.120472744,1.83563239 C0.887120368,2.63651324 1.32777008,3.85943692 1.90195001,4.8090333 C2.68839695,6.10927086 3.50062902,7.39268129 4.30733571,8.6801848 C6.01053665,11.3998143 7.60553206,14.1676512 9.03568673,17.0382701 C12.0705062,23.1310587 14.4846405,29.4994486 16.9779719,35.8200858 C17.1616911,36.2857882 18.2004641,35.5731361 18.0512786,35.1942981" id="Fill-161"></path>
                </g>
                <g id="Group-2" transform="translate(157.878551, 51.050796) scale(1, -1) rotate(-21.000000) translate(-157.878551, -51.050796) translate(128.878551, 8.050796)">
                    <path d="M0.995346441,1.62438416 C1.03675122,1.51969773 1.07771551,1.41545867 1.11867981,1.31166699 C0.931036898,1.47272304 0.742953508,1.63422648 0.554870118,1.79617729 C7.30957452,6.15855955 13.9387432,10.6730503 19.2737924,16.8101808 C24.1793772,22.4534061 28.8612,28.560115 32.582344,35.0793062 C39.6955961,47.541466 43.669133,61.9282457 44.5122047,76.2693928 C44.5562523,77.0133823 45.334574,76.0085715 45.3094668,75.5840098 C44.4716809,61.3318909 40.571263,47.1285362 33.6465348,34.6708502 C29.8042598,27.7593084 24.8585917,21.2906709 19.661852,15.3767819 C14.3501481,9.33270601 7.75974132,4.87950603 1.07551313,0.562308944 C0.849548778,0.416911115 0.563239169,0.916184891 0.511262963,1.04681925 C0.470298665,1.15105831 0.429334367,1.25574475 0.387929592,1.3599838 C0.0958937906,2.10173642 0.698024923,2.37866337 0.995346441,1.62438416" id="Fill-187"></path>
                    <path d="M45.2759911,72.3943197 C47.3890812,73.2717167 48.3539871,75.7398881 48.7156022,77.8078509 C49.0201675,79.5477739 49.182782,82.8338578 48.2542622,84.4561239 C48.4186735,84.3502764 48.5830849,84.2444289 48.7474962,84.1377066 C46.9596351,83.1094112 45.3051898,80.7457752 44.1462246,79.1068884 C43.5487736,78.2631701 42.8772027,77.3674028 42.6499017,76.3500421 C42.4908809,75.6357901 43.2720594,70.4475129 45.0410536,71.8550223 C45.4552264,72.185249 46.0508806,71.0261751 45.7171166,70.7606815 C43.3488745,68.8755462 41.7546236,74.2510248 41.7389012,75.9091566 C41.7222803,77.6661377 42.6445112,79.0474039 43.6413111,80.4417917 C44.8159987,82.0841775 46.4349563,84.3187846 48.2169776,85.3440182 C48.3966622,85.4476788 48.6441776,85.1419457 48.7102117,85.0260383 C49.809881,83.1050374 49.8516576,79.9024943 49.6346886,77.7579888 C49.3876223,75.3226215 48.2812149,72.2154286 45.8069589,71.188008 C45.3766144,71.0095544 44.8429514,72.2145539 45.2759911,72.3943197" id="Fill-188"></path>
                    <path d="M42.6493172,58.0237699 C43.9491962,57.3106301 45.8891505,58.6787312 46.9728945,59.3432375 C47.9461597,59.939566 50.2741048,61.1649482 50.610802,62.3962392 C50.7664367,62.9657511 51.4770957,61.865816 51.3631097,61.4494769 C50.960213,59.976382 48.6379671,58.7946335 47.4915308,58.0901296 C46.267058,57.3379013 44.2604657,55.9997984 42.7917997,56.806569 C42.4283597,57.0056481 42.1420794,58.3028443 42.6493172,58.0237699" id="Fill-189"></path>
                    <path d="M46.2894718,59.5806026 C46.5417262,57.857318 49.8322952,58.762618 50.7309516,59.1296902 C52.0796119,59.679647 53.3503436,60.5124014 54.3215232,61.574956 C55.5719844,62.942463 56.9269511,66.0693102 56.6237953,67.9954619 C56.8467702,67.7317781 57.0697451,67.4685287 57.2922696,67.2052792 C55.4517131,66.337338 53.4507949,65.3938104 51.6899689,64.3877284 C50.2250914,63.5501956 45.4561312,61.3946779 46.3038863,59.0905938 C46.5710057,58.3655719 45.9583878,58.0862494 45.6836107,58.8338604 C44.9272978,60.8881617 46.4300135,62.7765202 48.19129,63.8885971 C50.8665383,65.5788669 53.8958438,67.0523687 56.7598325,68.4029338 C57.1215474,68.5732206 57.3958741,67.8221343 57.4287572,67.6127511 C57.6472276,66.2248272 57.0026274,64.2422027 56.5116322,62.96288 C55.7981125,61.1049298 54.382785,59.6301248 52.6390762,58.6075354 C50.2998668,57.2356844 46.006136,56.3951108 45.4845098,59.9637479 C45.3619863,60.8025839 46.2210027,60.0506289 46.2894718,59.5806026" id="Fill-190"></path>
                    <path d="M39.0271648,49.2867131 C38.454923,49.1472601 38.107375,49.5049682 37.6963793,49.9197855 C36.5167367,51.1080138 35.5957345,52.7916322 34.6169423,54.1804072 C33.3326312,56.0017078 32.3857649,58.5676433 32.1780444,60.8657404 C32.1004523,61.7272501 32.8565712,60.9635789 32.9006209,60.4761574 C33.0796486,58.4906121 33.9796362,56.3222284 35.0404659,54.7683234 C35.6365512,53.8944178 37.5654426,50.2673113 38.5490843,50.5077017 C38.9843275,50.6139517 39.4013851,49.3783537 39.0271648,49.2867131" id="Fill-191"></path>
                    <path d="M34.0873123,55.8524538 C34.3136427,55.6553813 34.9316342,58.2520506 34.9518272,58.4990424 C35.0469028,59.6623781 34.7595726,60.7775308 34.3212151,61.8375553 C34.0195815,62.5689808 32.2876069,66.4583418 31.2884717,65.7282185 C31.0394241,65.5459047 30.6385079,62.3250276 30.6372458,62.3094007 C30.4933704,60.7072097 31.5194297,55.6358477 33.9383886,56.22012 C34.3897874,56.3290742 34.8277241,55.1175556 34.4360631,55.0229261 C32.1500417,54.4707757 30.8484315,57.8583397 30.3271984,59.5490831 C29.8938892,60.9555038 29.7441241,62.3241595 30.004951,63.7861425 C30.1972057,64.8661347 30.24264,66.6384852 30.826135,67.5752308 C30.9140589,67.716307 31.0814929,67.6108254 31.1723616,67.5457134 C34.0338849,65.4951173 38.098998,57.617425 34.3944149,54.6635075 C34.3195324,54.6036043 34.1651397,54.7056133 34.1163398,54.7481531 C34.0873123,54.7737639 34.0582848,54.7989406 34.0288366,54.8245513 C33.7250995,55.0889063 33.5509345,56.3190903 34.0873123,55.8524538" id="Fill-192"></path>
                    <path d="M36.2820593,40.8644637 C37.7143046,38.936291 42.1355461,40.3033577 43.91364,40.8301383 C44.8279772,41.1010802 45.8037024,41.3930751 46.6549222,41.8397631 C47.2151968,42.1340463 47.6401583,42.5917184 48.2726288,42.6754724 C48.6794332,42.72902 49.1221193,41.4548608 48.6072373,41.3866676 C48.0910583,41.3180168 47.6228658,40.8182388 47.1659134,40.577961 C46.5866171,40.2740667 45.9506881,40.0873364 45.3372392,39.8768072 C43.9542772,39.4012859 42.5254904,39.0850344 41.0833019,38.8809127 C39.2425229,38.6200395 37.2685923,38.3202643 36.0252667,39.994429 C35.7343216,40.3861963 35.7615572,41.5656175 36.2820593,40.8644637" id="Fill-193"></path>
                    <path d="M42.1496412,39.1512152 C43.4537763,35.2300243 48.4604253,37.4104935 50.446926,39.211675 C51.935045,40.561365 53.7792764,42.6805045 54.5788825,44.5391011 C54.7611101,44.1841714 54.9433377,43.8292416 55.1255653,43.4738769 C54.2447253,43.7209358 53.2400583,43.3816647 52.3442888,43.2472612 C50.8974454,43.0302147 49.4848519,42.8758028 48.0788451,42.4665027 C47.0675915,42.1720328 41.8488559,40.4952507 42.4416445,38.8745788 C42.7073017,38.1494955 42.1092438,37.8711193 41.8361219,38.6175157 C41.0149998,40.8619244 43.1354268,41.9123599 44.9572639,42.7409643 C46.6886459,43.5282472 48.5675664,43.9858283 50.4420958,44.2737737 C51.7163719,44.469507 53.491225,45.0614916 54.7856998,44.6991675 C55.1396166,44.5999959 55.487386,43.9927877 55.3328218,43.6335083 C54.735203,42.2451066 53.6115392,41.0111167 52.6762504,39.8358469 C51.3545513,38.1738535 49.7448007,36.7423904 47.6713578,36.1042998 C44.7917222,35.2182803 42.3696317,36.3909404 41.4281955,39.2221142 C41.1502435,40.057678 41.9573142,39.7297159 42.1496412,39.1512152" id="Fill-194"></path>
                    <path d="M30.3012062,29.4985626 C28.8341476,30.9714652 27.8966249,32.6392591 27.2216285,34.5010644 C26.4823704,36.5419233 26.6293254,38.7908715 25.8995322,40.7894965 C25.5901796,41.6359317 26.503791,41.3051005 26.7179965,40.7177871 C27.1424223,39.5550387 27.1035664,38.1947594 27.3371998,36.9853779 C27.8074556,34.5573761 28.7290374,32.2103224 30.5966105,30.3353191 C30.9617562,29.9692931 30.9443208,28.8531778 30.3012062,29.4985626" id="Fill-195"></path>
                    <path d="M27.3869776,37.9671707 C30.0371882,38.4207851 29.041836,42.0258491 28.3501588,43.6193496 C27.6141246,45.3150032 26.6085361,46.8216509 25.4547659,48.2945475 C25.6502293,48.3224484 25.8452053,48.3498993 26.0411561,48.3778001 C26.0933122,46.5588426 25.1398798,44.8703892 24.9780497,43.0622319 C24.8776371,41.9430465 25.5927114,36.6202781 27.9255987,37.8042656 C28.3496713,38.0198224 28.9657954,36.7989337 28.50224,36.5635763 C26.3692031,35.480842 24.9210193,38.6223914 24.436504,40.0975381 C24.0129188,41.388179 23.9778231,42.7193211 24.1342913,44.0482131 C24.3331668,45.7411667 25.2076339,47.3666181 25.157915,49.067222 C25.1471914,49.4596344 25.5663896,49.3772818 25.7443052,49.1500246 C27.4820284,46.9314544 29.0978916,44.4698765 29.7671465,41.7616908 C30.2073047,39.9818845 30.452487,37.1521949 27.963619,36.7260314 C27.4308472,36.6351286 26.9429199,37.8911183 27.3869776,37.9671707" id="Fill-196"></path>
                    <path d="M25.8699773,24.3972167 C26.1151046,23.611235 30.1533253,23.9504534 30.7688772,23.962012 C32.8743289,24.0027182 34.4220933,24.8334265 36.3525843,25.5143761 C36.820513,25.6792111 37.3262588,24.2821337 36.8911352,24.1283547 C35.4668457,23.6263114 34.2065818,22.8815385 32.6884331,22.6543877 C31.4997027,22.4774916 30.275889,22.5282487 29.0803241,22.558904 C27.3949604,22.602123 25.7337449,22.5156851 25.1209268,24.4791317 C24.8211243,25.4399993 25.6631227,25.0595721 25.8699773,24.3972167" id="Fill-197"></path>
                    <path d="M31.5170645,23.940688 C30.7787541,23.0947974 32.6276622,22.0879971 33.2102562,21.8922304 C33.612971,21.7568555 34.2116735,21.7438854 34.6452631,21.7633405 C35.9097873,21.8200845 37.1179316,22.2509334 38.2007867,22.828506 C39.7431842,23.6508884 42.1885576,25.6113929 42.6212522,27.312091 C42.7733888,26.9902716 42.9255255,26.6688575 43.0776622,26.3470381 C42.3071347,26.7073623 40.7477337,26.3944598 39.9020328,26.3519018 C38.7695094,26.2947525 37.7076849,26.0272452 36.5970872,25.8626877 C35.9898828,25.7723026 35.3871531,25.7994587 34.7799488,25.7419041 C33.3999796,25.6117982 32.4294371,24.9353289 31.3752194,24.1717171 C31.174757,24.5271776 30.9738471,24.8822328 30.7738321,25.2376933 C30.7993373,25.2559324 30.8248426,25.2741715 30.8503479,25.2924107 C31.1640179,25.5161441 31.7752494,24.4570582 31.379694,24.1749596 C31.3537413,24.1567205 31.328236,24.1384813 31.3027308,24.1202422 C30.9935353,23.8997513 30.3814089,24.9543787 30.7013434,25.1858131 C31.4763456,25.7471731 32.2978836,26.411483 33.2532125,26.7065517 C34.326671,27.0380987 35.5683747,26.8998865 36.6780776,27.0956533 C37.7564581,27.2865562 38.7569805,27.4608413 39.8631037,27.5078578 C40.7468388,27.5451467 42.1330724,27.8069796 42.9322374,27.43328 C43.2772297,27.2723702 43.4732176,26.7993686 43.3890949,26.468227 C43.0369433,25.0836739 41.1750588,23.3169096 39.9803384,22.4762881 C38.2401633,21.2526447 36.0731105,20.365412 33.8393861,20.70466 C32.0947364,20.9701407 29.3365879,23.2293617 30.842741,24.954784 C31.1461195,25.3017329 31.7994123,24.264534 31.5170645,23.940688" id="Fill-198"></path>
                    <path d="M19.1538109,15.5348674 C17.2083141,17.2186598 16.2999371,19.7987156 15.4557072,22.1790458 C14.9959114,23.4752156 14.6316635,24.817336 14.5504703,26.1985826 C14.4831831,27.3500764 14.8743459,28.7690843 14.565722,29.8860015 C14.3216938,30.770891 15.1318315,30.4337686 15.3031896,29.8118436 C15.7768914,28.0943845 15.2134733,26.1576365 15.5530493,24.3851277 C16.0348256,21.8746802 17.2500321,18.3132841 19.2161636,16.6122034 C19.5377964,16.3337703 19.7221633,15.0430599 19.1538109,15.5348674" id="Fill-199"></path>
                    <path d="M16.3487165,22.500703 C16.9940526,24.6762194 18.027671,26.8108444 17.6478799,29.1594973 C17.3421944,31.0492081 16.6192791,32.7770928 15.8944339,34.4967122 C16.0333818,34.3357561 16.1715579,34.1743651 16.3097339,34.0129741 C15.5389587,34.0247195 14.4393399,32.7392464 14.0271277,32.1280485 C13.2023171,30.9039126 13.1042816,29.3991913 13.3709845,27.9458019 C13.6531261,26.4097594 14.1900055,24.8189048 15.2182205,23.7313641 C15.788679,23.1284315 16.2688214,22.9383294 16.7736657,22.2644891 C17.0484739,21.8986404 17.0311054,20.7889139 16.5447875,21.4375232 C16.1314173,21.9878188 15.4324319,22.2749295 14.9723598,22.794774 C14.5022525,23.3267989 14.0877244,24.0367455 13.7700739,24.6966652 C13.1683521,25.946902 12.7484205,27.4611937 12.5774373,28.8710815 C12.4230506,30.1465493 12.5469459,31.395046 13.0965623,32.541314 C13.5724591,33.5335861 14.9260438,35.2545105 16.0113817,35.2380982 C16.2078387,35.2353698 16.3575937,34.9178079 16.4266818,34.7542418 C17.2159834,32.8814967 18.1017766,30.9574196 18.4313921,28.8863071 C18.8351131,26.3484221 17.7007574,23.9188561 17.0114211,21.5949991 C16.8489292,21.0473136 16.2317686,22.1070132 16.3487165,22.500703" id="Fill-200"></path>
                </g>
            </g>
        </g>
    </g>
</svg>