<?xml version="1.0" encoding="UTF-8"?>
<svg width="300px" height="28px" viewBox="0 0 350 28" version="1.1" xmlns="http://www.w3.org/2000/svg" xmlns:xlink="http://www.w3.org/1999/xlink">
    <!-- Generator: Sketch 60 (88103) - https://sketch.com -->
    <title>OrderInformation</title>
    <desc>Created with Sketch.</desc>
    <g id="web" stroke="none" stroke-width="1" fill="none" fill-rule="evenodd">
        <g id="Artboard" transform="translate(-1907.000000, -338.000000)" fill="#000000" fill-rule="nonzero">
            <path d="M1920.872,365.036 C1928.36,365.036 1933.94,359.744 1933.94,351.644 C1933.94,343.832 1928.36,338.18 1920.872,338.18 C1913.384,338.18 1907.804,343.832 1907.804,351.644 C1907.804,359.744 1913.384,365.036 1920.872,365.036 Z M1920.872,363.02 C1914.932,363.02 1910.108,358.484 1910.108,351.644 C1910.108,344.768 1914.932,340.16 1920.872,340.16 C1926.812,340.16 1931.6,344.768 1931.6,351.644 C1931.6,358.484 1926.812,363.02 1920.872,363.02 Z M1938.584,364.568 C1939.412,364.532 1940.384,364.496 1941.356,364.496 C1942.328,364.496 1943.372,364.532 1944.308,364.568 L1944.344,364.568 C1945.028,364.568 1945.388,364.064 1945.388,363.596 C1945.388,363.02 1944.92,362.588 1944.308,362.624 C1943.804,362.66 1943.66,362.66 1943.12,362.66 C1942.724,362.66 1942.508,362.372 1942.508,362.012 C1942.508,360.284 1942.472,358.664 1942.472,357.296 C1942.472,355.928 1942.508,354.812 1942.508,354.128 C1942.58,351.464 1945.28,349.844 1947.764,349.844 L1947.98,349.844 C1948.628,349.844 1948.988,349.34 1948.988,348.836 C1948.988,348.152 1948.484,347.792 1947.8,347.828 C1945.748,347.9 1943.66,348.728 1942.688,350.06 C1942.616,350.132 1942.544,350.168 1942.472,350.168 C1942.436,350.168 1942.364,350.168 1942.364,350.06 C1942.148,348.764 1940.96,348.152 1939.52,348.152 L1938.512,348.152 C1937.828,348.152 1937.504,348.656 1937.504,349.196 C1937.504,349.7 1937.828,350.204 1938.476,350.204 L1938.512,350.204 C1938.98,350.168 1938.944,350.168 1939.268,350.168 C1940.168,350.204 1940.456,350.852 1940.456,351.824 L1940.456,354.632 L1940.456,354.632 C1940.456,357.044 1940.42,359.24 1940.384,362.012 C1940.384,362.408 1940.168,362.66 1939.808,362.66 C1939.232,362.66 1939.052,362.624 1938.584,362.624 L1938.548,362.624 C1937.864,362.624 1937.504,363.128 1937.504,363.632 C1937.504,364.028 1937.756,364.604 1938.584,364.568 Z M1959.932,364.964 C1962.092,364.964 1964.432,363.992 1965.944,361.94 C1966.016,361.868 1966.052,361.832 1966.088,361.832 C1966.196,361.832 1966.232,361.976 1966.268,362.192 C1966.52,364.1 1968.032,364.748 1969.544,364.748 C1970.012,364.748 1970.984,364.64 1970.984,363.632 C1970.984,363.092 1970.66,362.588 1970.048,362.588 L1970.012,362.588 C1969.868,362.588 1969.724,362.624 1969.544,362.624 C1968.752,362.624 1968.14,362.192 1968.14,360.464 L1968.14047,354.570699 C1968.1448,349.87088 1968.1784,344.6024 1968.212,341.78 L1968.212,341.636 L1968.212,341.636 C1968.212,340.088 1967.6,338.648 1965.332,338.648 C1965.008,338.648 1964.504,338.684 1964.144,338.684 C1963.424,338.684 1963.028,339.224 1963.028,339.764 C1963.028,340.232 1963.352,340.7 1964.036,340.7 L1964.108,340.7 L1964.108,340.7 C1964.468,340.664 1964.54,340.664 1964.684,340.664 C1966.0311,340.664 1966.11801,341.19958 1966.12361,343.272791 L1966.124,343.724 C1966.124,345.812 1966.088,348.368 1966.088,350.204 C1966.088,350.672 1966.052,350.852 1965.98,350.852 C1965.908,350.852 1965.8,350.672 1965.62,350.42 C1964.396,348.836 1962.236,347.828 1959.932,347.828 C1955.252,347.828 1951.76,351.32 1951.76,356.36 C1951.76,361.58 1955.252,364.964 1959.932,364.964 Z M1960.004,362.984 C1956.404,362.984 1953.884,360.464 1953.884,356.36 C1953.884,352.22 1956.368,349.7 1960.004,349.7 C1963.424,349.7 1966.088,352.328 1966.088,356.36 C1966.088,360.356 1963.388,362.984 1960.004,362.984 Z M1982.216,365.036 C1986.752,365.036 1989.272,362.3 1989.272,361.472 C1989.272,360.896 1988.732,360.428 1988.192,360.428 C1987.94,360.428 1987.688,360.536 1987.472,360.752 C1986.356,362.012 1984.88,363.128 1982.252,363.128 C1978.796,363.128 1976.204,360.716 1976.204,356.792 C1976.204,356.288 1976.276,356.144 1976.636,356.144 C1977.428,356.144 1980.488,356.18 1983.188,356.18 C1984.52,356.18 1985.744,356.18 1986.572,356.144 C1988.408,356.072 1989.2,355.064 1989.2,353.732 C1989.2,351.68 1987.04,347.828 1982.108,347.828 C1977.86,347.828 1974.08,351.284 1974.08,356.54 C1974.08,361.616 1977.644,365.036 1982.216,365.036 Z M1982.405,354.415437 L1979.45932,354.415022 C1976.73189,354.408991 1976.492,354.365767 1976.492,354.056 C1976.492,352.724 1978.688,349.628 1982.144,349.628 C1985.816,349.628 1987.076,352.328 1987.076,353.372 C1987.076,353.948 1986.752,354.344 1985.888,354.38 C1985.132,354.407 1983.809,354.41375 1982.405,354.415437 Z M1993.34,364.568 C1994.168,364.532 1995.14,364.496 1996.112,364.496 C1997.084,364.496 1998.128,364.532 1999.064,364.568 L1999.1,364.568 C1999.784,364.568 2000.144,364.064 2000.144,363.596 C2000.144,363.02 1999.676,362.588 1999.064,362.624 C1998.56,362.66 1998.416,362.66 1997.876,362.66 C1997.48,362.66 1997.264,362.372 1997.264,362.012 C1997.264,360.284 1997.228,358.664 1997.228,357.296 C1997.228,355.928 1997.264,354.812 1997.264,354.128 C1997.336,351.464 2000.036,349.844 2002.52,349.844 L2002.736,349.844 C2003.384,349.844 2003.744,349.34 2003.744,348.836 C2003.744,348.152 2003.24,347.792 2002.556,347.828 C2000.504,347.9 1998.416,348.728 1997.444,350.06 C1997.372,350.132 1997.3,350.168 1997.228,350.168 C1997.192,350.168 1997.12,350.168 1997.12,350.06 C1996.904,348.764 1995.716,348.152 1994.276,348.152 L1993.268,348.152 C1992.584,348.152 1992.26,348.656 1992.26,349.196 C1992.26,349.7 1992.584,350.204 1993.232,350.204 L1993.268,350.204 C1993.736,350.168 1993.7,350.168 1994.024,350.168 C1994.924,350.204 1995.212,350.852 1995.212,351.824 L1995.212,354.632 L1995.212,354.632 C1995.212,357.044 1995.176,359.24 1995.14,362.012 C1995.14,362.408 1994.924,362.66 1994.564,362.66 C1993.988,362.66 1993.808,362.624 1993.34,362.624 L1993.304,362.624 C1992.62,362.624 1992.26,363.128 1992.26,363.632 C1992.26,364.028 1992.512,364.604 1993.34,364.568 Z M2017.424,364.568 C2018.468,364.532 2019.764,364.496 2021.132,364.496 C2022.248,364.496 2023.364,364.532 2024.336,364.568 L2024.408,364.568 L2024.408,364.568 C2025.128,364.568 2025.488,364.028 2025.488,363.524 C2025.488,363.236 2025.272,362.408 2024.336,362.444 C2023.796,362.48 2023.328,362.48 2022.716,362.48 C2022.248,362.48 2022.068,362.156 2022.068,361.796 C2022.0392,359.0024 2022.03344,356.16272 2022.03229,353.36912 L2022.0324,348.993432 C2022.03378,346.34 2022.04,343.764 2022.068,341.384 C2022.068,340.988 2022.284,340.664 2022.752,340.664 C2023.364,340.664 2023.832,340.664 2024.372,340.7 L2024.444,340.7 L2024.444,340.7 C2025.164,340.7 2025.488,340.196 2025.524,339.692 C2025.524,339.548 2025.452,338.612 2024.372,338.648 C2023.22,338.684 2021.816,338.72 2020.448,338.72 C2019.332,338.72 2018.252,338.684 2017.424,338.648 L2017.352,338.648 L2017.352,338.648 C2016.632,338.648 2016.308,339.152 2016.272,339.656 C2016.308,340.664 2017.208,340.7 2017.424,340.7 C2017.856,340.7 2018.468,340.664 2019.044,340.664 C2019.476,340.664 2019.764,340.952 2019.764,341.384 C2019.836,343.904 2019.836,346.604 2019.836,349.34 C2019.836,353.516 2019.8,357.8 2019.728,361.796 C2019.728,362.264 2019.512,362.48 2019.008,362.48 C2018.432,362.48 2017.856,362.444 2017.424,362.444 L2017.388,362.444 C2016.668,362.444 2016.308,362.984 2016.308,363.524 C2016.308,364.316 2016.884,364.604 2017.424,364.568 Z M2028.584,364.568 C2029.412,364.532 2030.312,364.496 2031.212,364.496 C2032.112,364.496 2033.084,364.532 2034.02,364.568 L2034.056,364.568 C2034.74,364.568 2035.1,364.064 2035.1,363.596 C2035.1,363.02 2034.668,362.588 2034.02,362.624 C2033.516,362.66 2033.588,362.66 2033.048,362.66 C2032.616,362.66 2032.4,362.444 2032.4,362.048 C2032.4,360.356 2032.364,358.808 2032.364,357.476 C2032.364,356.18 2032.4,355.1 2032.4,354.416 C2032.508,351.572 2035.28,349.664 2037.8,349.664 C2039.816,349.664 2041.724,350.888 2041.904,353.876 C2041.94,354.38 2041.94,355.388 2041.94,356.612 C2041.94,358.304 2041.94,360.356 2041.904,362.012 C2041.904,362.408 2041.724,362.66 2041.364,362.66 C2040.788,362.66 2040.716,362.624 2040.284,362.624 L2040.248,362.624 C2039.564,362.624 2039.204,363.128 2039.204,363.632 C2039.204,364.028 2039.456,364.604 2040.284,364.568 C2041.112,364.532 2041.976,364.496 2042.876,364.496 C2043.812,364.496 2044.748,364.532 2045.684,364.568 L2045.72,364.568 C2046.404,364.568 2046.764,364.1 2046.764,363.596 C2046.764,363.092 2046.404,362.624 2045.72,362.624 L2045.684,362.624 C2045.18,362.624 2045.18,362.66 2044.64,362.66 C2044.244,362.66 2044.064,362.408 2044.064,362.012 L2044.064,360.284 L2044.064,360.284 C2044.064,357.692 2044.028,354.74 2043.992,353.552 C2043.848,349.628 2040.968,347.792 2037.98,347.792 C2035.964,347.792 2033.912,348.62 2032.652,350.24 C2032.58,350.312 2032.508,350.348 2032.472,350.348 C2032.364,350.348 2032.328,350.276 2032.292,350.168 C2032.112,348.836 2030.888,348.152 2029.448,348.152 L2028.404,348.152 C2027.72,348.152 2027.36,348.692 2027.36,349.196 C2027.36,349.7 2027.684,350.204 2028.332,350.204 L2028.404,350.204 L2028.404,350.204 C2028.872,350.168 2028.836,350.168 2029.16,350.168 C2030.024,350.204 2030.348,350.852 2030.348,351.788 C2030.348,353.336 2030.384,354.704 2030.384,356.036 C2030.384,357.908 2030.348,359.78 2030.312,362.048 C2030.312,362.444 2030.06,362.66 2029.7,362.66 C2029.124,362.66 2029.016,362.624 2028.584,362.624 L2028.548,362.624 C2027.864,362.624 2027.504,363.128 2027.504,363.632 C2027.504,364.028 2027.756,364.604 2028.584,364.568 Z M2050.508,364.568 C2051.372,364.532 2052.344,364.496 2053.352,364.496 C2054.36,364.496 2055.404,364.532 2056.376,364.568 L2056.412,364.568 C2057.096,364.568 2057.456,364.064 2057.456,363.596 C2057.456,363.02 2057.024,362.588 2056.376,362.624 C2055.836,362.66 2055.728,362.66 2055.152,362.66 C2054.756,362.66 2054.468,362.408 2054.468,362.048 C2054.44267,359.210667 2054.43516,354.69758 2054.43294,352.272252 L2054.432,350.6 C2054.432,350.168 2054.468,350.096 2054.828,350.096 L2058.644,350.096 C2059.256,350.096 2059.58,349.592 2059.58,349.124 C2059.58,348.62 2059.256,348.152 2058.644,348.152 L2054.9,348.152 C2054.54,348.152 2054.432,348.116 2054.432,347.792 C2054.432,347.432 2054.396,346.964 2054.396,346.388 C2054.396,345.848 2054.432,345.2 2054.432,344.552 C2054.54,342.212 2055.908,340.304 2058.248,340.304 L2058.68,340.304 L2058.68,340.304 C2059.364,340.304 2059.76,339.836 2059.76,339.332 C2059.76,338.36 2058.5,338.324 2058.14,338.324 C2055.332,338.324 2052.452,340.448 2052.344,344.336 L2052.344,345.272 C2052.344,346.424 2052.38,347.396 2052.38,347.756 C2052.38,348.116 2052.272,348.152 2051.876,348.152 L2049.572,348.152 C2048.96,348.152 2048.636,348.656 2048.636,349.16 C2048.636,349.628 2048.96,350.096 2049.572,350.096 L2051.876,350.096 C2052.308,350.096 2052.38,350.168 2052.38,350.6 L2052.38,362.048 L2052.38,362.048 C2052.38,362.408 2052.128,362.66 2051.768,362.66 C2051.192,362.66 2050.976,362.624 2050.508,362.624 L2050.472,362.624 C2049.788,362.624 2049.428,363.128 2049.428,363.596 C2049.428,364.172 2049.896,364.604 2050.508,364.568 Z M2070.632,365.036 C2075.42,365.036 2079.02,361.58 2079.02,356.396 C2079.02,351.392 2075.42,347.792 2070.632,347.792 C2065.844,347.792 2062.316,351.392 2062.316,356.396 C2062.316,361.58 2065.844,365.036 2070.632,365.036 Z M2070.632,363.128 C2067.176,363.128 2064.404,360.428 2064.404,356.396 C2064.404,352.328 2067.176,349.664 2070.632,349.664 C2074.088,349.664 2076.896,352.328 2076.896,356.396 C2076.896,360.428 2074.088,363.128 2070.632,363.128 Z M2083.232,364.568 C2084.06,364.532 2085.032,364.496 2086.004,364.496 C2086.976,364.496 2088.02,364.532 2088.956,364.568 L2088.992,364.568 C2089.676,364.568 2090.036,364.064 2090.036,363.596 C2090.036,363.02 2089.568,362.588 2088.956,362.624 C2088.452,362.66 2088.308,362.66 2087.768,362.66 C2087.372,362.66 2087.156,362.372 2087.156,362.012 C2087.156,360.284 2087.12,358.664 2087.12,357.296 C2087.12,355.928 2087.156,354.812 2087.156,354.128 C2087.228,351.464 2089.928,349.844 2092.412,349.844 L2092.628,349.844 C2093.276,349.844 2093.636,349.34 2093.636,348.836 C2093.636,348.152 2093.132,347.792 2092.448,347.828 C2090.396,347.9 2088.308,348.728 2087.336,350.06 C2087.264,350.132 2087.192,350.168 2087.12,350.168 C2087.084,350.168 2087.012,350.168 2087.012,350.06 C2086.796,348.764 2085.608,348.152 2084.168,348.152 L2083.16,348.152 C2082.476,348.152 2082.152,348.656 2082.152,349.196 C2082.152,349.7 2082.476,350.204 2083.124,350.204 L2083.16,350.204 C2083.628,350.168 2083.592,350.168 2083.916,350.168 C2084.816,350.204 2085.104,350.852 2085.104,351.824 L2085.104,354.632 L2085.104,354.632 C2085.104,357.044 2085.068,359.24 2085.032,362.012 C2085.032,362.408 2084.816,362.66 2084.456,362.66 C2083.88,362.66 2083.7,362.624 2083.232,362.624 L2083.196,362.624 C2082.512,362.624 2082.152,363.128 2082.152,363.632 C2082.152,364.028 2082.404,364.604 2083.232,364.568 Z M2117.144,364.568 C2117.972,364.532 2118.8,364.496 2119.7,364.496 C2120.564,364.496 2121.5,364.532 2122.4,364.568 L2122.436,364.568 C2123.084,364.568 2123.408,364.1 2123.408,363.596 C2123.408,363.128 2123.084,362.66 2122.436,362.66 L2122.4,362.66 C2121.896,362.66 2122.004,362.696 2121.464,362.696 C2121.068,362.696 2120.888,362.444 2120.888,362.084 C2120.888,359.276 2120.852,354.704 2120.816,353.192 C2120.708,349.664 2118.152,347.792 2115.416,347.792 C2113.364,347.792 2111.204,348.836 2109.836,350.96 C2109.08,348.836 2107.1,347.828 2105.084,347.828 C2103.284,347.828 2101.448,348.584 2100.26,350.06 C2100.224,350.096 2100.188,350.132 2100.188,350.132 C2100.152,350.132 2100.152,350.096 2100.116,349.988 C2100.08,349.88 2099.828,348.116 2097.272,348.116 C2096.912,348.116 2096.552,348.152 2096.228,348.152 C2095.58,348.152 2095.256,348.656 2095.256,349.16 C2095.256,349.664 2095.58,350.168 2096.192,350.168 C2096.66,350.168 2096.66,350.132 2096.984,350.132 C2097.812,350.132 2098.1,350.852 2098.1,351.752 L2098.1,354.452 L2098.1,354.452 C2098.1,356.972 2098.064,359.672 2098.028,362.084 C2098.028,362.48 2097.776,362.696 2097.416,362.696 C2096.876,362.696 2096.768,362.66 2096.336,362.66 L2096.3,362.66 C2095.652,362.66 2095.328,363.128 2095.292,363.632 C2095.328,363.884 2095.436,364.604 2096.336,364.568 C2097.164,364.532 2098.028,364.496 2098.892,364.496 C2099.792,364.496 2100.728,364.532 2101.628,364.568 L2101.664,364.568 C2102.312,364.568 2102.636,364.1 2102.636,363.596 C2102.636,363.128 2102.312,362.66 2101.664,362.66 L2101.628,362.66 C2101.124,362.696 2101.232,362.696 2100.692,362.696 C2100.26,362.696 2100.044,362.444 2100.044,362.048 C2100.044,360.644 2100.008,358.988 2100.008,357.476 C2100.008,356 2100.044,354.704 2100.044,354.128 C2100.152,351.464 2102.6,349.664 2104.832,349.664 C2106.596,349.664 2108.216,350.78 2108.36,353.552 C2108.396,354.236 2108.432,356.036 2108.432,357.98 C2108.432,359.384 2108.396,360.824 2108.396,362.048 C2108.396,362.444 2108.144,362.696 2107.784,362.696 C2107.244,362.696 2107.136,362.66 2106.704,362.66 L2106.668,362.66 C2106.02,362.66 2105.696,363.164 2105.696,363.632 C2105.696,364.136 2106.056,364.604 2106.704,364.568 C2107.532,364.532 2108.36,364.496 2109.26,364.496 C2110.124,364.496 2111.06,364.532 2111.96,364.568 L2111.996,364.568 C2112.644,364.568 2112.968,364.064 2112.968,363.596 C2112.968,363.092 2112.608,362.624 2111.96,362.66 C2111.456,362.696 2111.528,362.696 2110.988,362.696 C2110.556,362.696 2110.34,362.48 2110.34,362.084 C2110.34,360.932 2110.304,359.564 2110.304,358.232 C2110.304,356.396 2110.34,354.668 2110.376,353.876 C2110.484,351.428 2112.968,349.664 2115.2,349.664 C2117,349.664 2118.62,350.78 2118.764,353.552 C2118.8,354.236 2118.836,356.18 2118.836,358.16 C2118.836,359.6 2118.8,361.04 2118.8,362.084 C2118.8,362.48 2118.548,362.696 2118.188,362.696 C2117.648,362.696 2117.576,362.66 2117.144,362.66 L2117.108,362.66 C2116.46,362.66 2116.136,363.128 2116.136,363.632 C2116.136,364.208 2116.604,364.604 2117.144,364.568 Z M2132.084,365.036 C2134.172,365.036 2136.476,363.992 2137.556,362.264 C2137.592,362.192 2137.664,362.156 2137.7,362.156 C2137.772,362.156 2137.808,362.228 2137.844,362.336 C2138.168,363.668 2139.464,364.64 2140.508,364.64 C2141.12,364.64 2141.48,364.136 2141.48,363.632 C2141.48,363.272 2141.3,362.876 2140.868,362.732 C2139.428,362.228 2139.176,361.364 2139.176,358.736 C2139.176,357.368 2139.248,355.496 2139.356,354.308 C2139.392,353.948 2139.392,353.624 2139.392,353.3 C2139.392,349.268 2137.124,347.792 2133.776,347.792 C2130.68,347.792 2127.656,349.34 2127.656,350.708 C2127.656,351.284 2128.124,351.68 2128.664,351.68 C2128.916,351.68 2129.204,351.572 2129.42,351.32 C2130.248,350.42 2131.688,349.592 2133.632,349.592 C2136.548,349.592 2137.376,351.14 2137.376,353.12 C2137.376,353.3 2137.34,353.516 2137.34,353.696 C2137.34,353.948 2137.196,354.056 2136.764,354.128 C2135.252,354.38 2132.336,354.92 2130.104,355.604 C2127.44,356.432 2126.252,358.268 2126.252,360.068 C2126.252,362.552 2128.448,365.036 2132.084,365.036 Z M2132.048,363.128 C2129.636,363.128 2128.196,361.616 2128.196,360.104 C2128.196,357.584 2131.184,356.864 2136.836,355.964 L2136.944,355.964 L2136.944,355.964 C2137.196,355.964 2137.304,356.072 2137.304,356.36 L2137.304,356.828 L2137.304,356.828 C2137.304,362.372 2133.884,363.128 2132.048,363.128 Z M2151.74,365.036 C2153.18,365.036 2154.044,364.856 2154.044,363.92 C2154.044,363.452 2153.72,362.984 2153.18,362.984 L2153.036,362.984 L2153.036,362.984 C2152.676,363.02 2152.352,363.056 2152.028,363.056 C2149.364,363.056 2149.16258,361.338675 2149.14893,358.764763 L2149.148,358.34 C2149.148,355.676 2149.256,351.968 2149.256,350.6 C2149.256,350.168 2149.256,350.096 2149.832,350.096 L2153,350.096 C2153.684,350.096 2154.008,349.628 2154.008,349.124 C2154.008,348.656 2153.684,348.188 2153,348.188 L2149.796,348.188 C2149.328,348.188 2149.256,348.188 2149.256,347.792 C2149.256,347.792 2149.328,344.912 2149.328,343.868 C2149.328,343.112 2148.824,342.752 2148.284,342.752 C2147.78,342.752 2147.24,343.112 2147.24,343.796 L2147.24,344.696 L2147.24,344.696 C2147.24,345.956 2147.204,347.684 2147.204,347.828 C2147.204,348.152 2147.132,348.188 2146.808,348.188 L2144.72,348.188 C2144.036,348.188 2143.712,348.656 2143.712,349.124 C2143.712,349.628 2144.036,350.096 2144.72,350.096 L2146.844,350.096 C2147.096,350.096 2147.204,350.132 2147.204,350.492 L2147.204,351.068 L2147.204,351.068 C2147.204,352.755304 2147.13812,356.847055 2147.1324,359.216025 L2147.13294,359.830545 C2147.14794,361.560069 2147.40306,365.036 2151.74,365.036 Z M2159.984,341.6 C2161.604,341.6 2161.784,340.16 2161.784,339.872 C2161.784,339.008 2161.136,338.18 2160.02,338.18 C2159.3,338.18 2158.292,338.72 2158.292,339.872 C2158.292,341.6 2159.804,341.6 2159.984,341.6 Z M2157.68,364.60415 C2158.544,364.568 2159.552,364.532 2160.56,364.532 C2161.568,364.532 2162.648,364.568 2163.62,364.60415 L2163.656,364.60415 C2164.376,364.60415 2164.736,364.1 2164.736,363.596 C2164.736,362.552 2163.764,362.588 2163.62,362.588 C2163.08,362.624 2162.936,362.624 2162.36,362.624 C2161.928,362.624 2161.712,362.3 2161.712,361.94 L2161.712,359.132 L2161.712,359.132 C2161.712,356.504 2161.748,353.768 2161.784,351.248 L2161.784,351.14 L2161.784,351.14 C2161.784,349.628 2161.1,348.188 2159.12,348.188 C2158.292,348.188 2158.4,348.152 2157.716,348.152 C2157.032,348.152 2156.672,348.692 2156.672,349.232 C2156.672,349.7 2156.996,350.204 2157.644,350.204 L2157.716,350.204 L2157.716,350.204 C2158.004,350.204 2158.184,350.168 2158.472,350.168 C2159.336,350.204 2159.696,350.78 2159.696,351.824 C2159.696,354.956 2159.66,358.484 2159.624,361.904 C2159.624,362.372 2159.408,362.624 2158.976,362.624 C2158.364,362.624 2158.148,362.588 2157.68,362.588 L2157.644,362.588 C2156.924,362.588 2156.564,363.092 2156.564,363.596 C2156.564,364.64 2157.536,364.60415 2157.68,364.60415 Z M2175.788,365.036 C2180.576,365.036 2184.176,361.58 2184.176,356.396 C2184.176,351.392 2180.576,347.792 2175.788,347.792 C2171,347.792 2167.472,351.392 2167.472,356.396 C2167.472,361.58 2171,365.036 2175.788,365.036 Z M2175.788,363.128 C2172.332,363.128 2169.56,360.428 2169.56,356.396 C2169.56,352.328 2172.332,349.664 2175.788,349.664 C2179.244,349.664 2182.052,352.328 2182.052,356.396 C2182.052,360.428 2179.244,363.128 2175.788,363.128 Z M2188.172,364.568 C2189,364.532 2189.9,364.496 2190.8,364.496 C2191.7,364.496 2192.672,364.532 2193.608,364.568 L2193.644,364.568 C2194.328,364.568 2194.688,364.064 2194.688,363.596 C2194.688,363.02 2194.256,362.588 2193.608,362.624 C2193.104,362.66 2193.176,362.66 2192.636,362.66 C2192.204,362.66 2191.988,362.444 2191.988,362.048 C2191.988,360.356 2191.952,358.808 2191.952,357.476 C2191.952,356.18 2191.988,355.1 2191.988,354.416 C2192.096,351.572 2194.868,349.664 2197.388,349.664 C2199.404,349.664 2201.312,350.888 2201.492,353.876 C2201.528,354.38 2201.528,355.388 2201.528,356.612 C2201.528,358.304 2201.528,360.356 2201.492,362.012 C2201.492,362.408 2201.312,362.66 2200.952,362.66 C2200.376,362.66 2200.304,362.624 2199.872,362.624 L2199.836,362.624 C2199.152,362.624 2198.792,363.128 2198.792,363.632 C2198.792,364.028 2199.044,364.604 2199.872,364.568 C2200.7,364.532 2201.564,364.496 2202.464,364.496 C2203.4,364.496 2204.336,364.532 2205.272,364.568 L2205.308,364.568 C2205.992,364.568 2206.352,364.1 2206.352,363.596 C2206.352,363.092 2205.992,362.624 2205.308,362.624 L2205.272,362.624 C2204.768,362.624 2204.768,362.66 2204.228,362.66 C2203.832,362.66 2203.652,362.408 2203.652,362.012 L2203.652,360.284 L2203.652,360.284 C2203.652,357.692 2203.616,354.74 2203.58,353.552 C2203.436,349.628 2200.556,347.792 2197.568,347.792 C2195.552,347.792 2193.5,348.62 2192.24,350.24 C2192.168,350.312 2192.096,350.348 2192.06,350.348 C2191.952,350.348 2191.916,350.276 2191.88,350.168 C2191.7,348.836 2190.476,348.152 2189.036,348.152 L2187.992,348.152 C2187.308,348.152 2186.948,348.692 2186.948,349.196 C2186.948,349.7 2187.272,350.204 2187.92,350.204 L2187.992,350.204 L2187.992,350.204 C2188.46,350.168 2188.424,350.168 2188.748,350.168 C2189.612,350.204 2189.936,350.852 2189.936,351.788 C2189.936,353.336 2189.972,354.704 2189.972,356.036 C2189.972,357.908 2189.936,359.78 2189.9,362.048 C2189.9,362.444 2189.648,362.66 2189.288,362.66 C2188.712,362.66 2188.604,362.624 2188.172,362.624 L2188.136,362.624 C2187.452,362.624 2187.092,363.128 2187.092,363.632 C2187.092,364.028 2187.344,364.604 2188.172,364.568 Z" id="OrderInformation"></path>
        </g>
    </g>
</svg>
