<?xml version="1.0" encoding="UTF-8"?>
<svg width="142px" height="37px" viewBox="0 0 142 36" version="1.1" xmlns="http://www.w3.org/2000/svg" xmlns:xlink="http://www.w3.org/1999/xlink">
    <!-- Generator: Sketch 60 (88103) - https://sketch.com -->
    <title>Payment</title>
    <desc>Created with Sketch.</desc>
    <g id="web" stroke="none" stroke-width="1" fill="none" fill-rule="evenodd">
        <g id="Artboard" transform="translate(-650.000000, -577.000000)" fill="#000000" fill-rule="nonzero">
            <path d="M657.73,603.604 C658.414,603.604 658.774,603.064 658.774,602.524 C658.774,602.02 658.414,601.48 657.658,601.48 C657.118,601.48 656.83,601.516 656.254,601.516 C655.822,601.516 655.498,601.228 655.498,600.796 C655.462,598.276 655.426,595.036 655.426,592.84 C655.426,592.408 655.498,592.3 655.678,592.3 C655.75,592.3 655.894,592.336 656.038,592.372 C657.118,592.624 658.198,592.732 659.422,592.732 C660.25,592.732 661.114,592.696 662.05,592.588 C666.73,592.048 669.106,588.556 669.106,585.064 C669.106,581.5 666.622,577.972 661.546,577.648 C660.934,577.612 660.286,577.612 659.566,577.612 C657.802,577.612 655.75,577.684 653.806,577.684 C652.942,577.684 652.078,577.648 651.286,577.612 L651.178,577.612 L651.178,577.612 C650.494,577.612 650.134,578.08 650.134,578.584 C650.17,579.232 650.674,579.628 651.286,579.628 L652.618,579.628 C653.122,579.628 653.302,579.916 653.302,580.384 L653.302769,580.790045 C653.307989,582.315342 653.338,584.910609 653.338,587.836 C653.338,592.372 653.302,597.664 653.266,600.832 C653.266,601.264 652.978,601.552 652.618,601.552 C652.042,601.552 651.682,601.516 651.214,601.516 L651.178,601.516 C650.422,601.516 650.026,602.056 650.026,602.596 C650.026,602.776 650.062,603.64 651.214,603.604 C652.078,603.568 653.266,603.532 654.526,603.532 C655.57,603.532 656.65,603.568 657.658,603.604 L657.73,603.604 L657.73,603.604 Z M659.278,590.788 C655.810324,590.788 655.443961,590.072313 655.42669,589.635716 L655.426936,582.437044 C655.43536,579.7216 655.5196,579.6568 656.362,579.592 C657.046,579.556 658.342,579.52 659.494,579.52 C660.25,579.52 660.97,579.556 661.294,579.556 C665.074,579.772 666.874,582.328 666.874,584.956 C666.874,587.62 665.038,590.284 661.654,590.644 C660.862,590.716 660.07,590.788 659.278,590.788 Z M678.898,604.036 C680.986,604.036 683.29,602.992 684.37,601.264 C684.406,601.192 684.478,601.156 684.514,601.156 C684.586,601.156 684.622,601.228 684.658,601.336 C684.982,602.668 686.278,603.64 687.322,603.64 C687.934,603.64 688.294,603.136 688.294,602.632 C688.294,602.272 688.114,601.876 687.682,601.732 C686.242,601.228 685.99,600.364 685.99,597.736 C685.99,596.368 686.062,594.496 686.17,593.308 C686.206,592.948 686.206,592.624 686.206,592.3 C686.206,588.268 683.938,586.792 680.59,586.792 C677.494,586.792 674.47,588.34 674.47,589.708 C674.47,590.284 674.938,590.68 675.478,590.68 C675.73,590.68 676.018,590.572 676.234,590.32 C677.062,589.42 678.502,588.592 680.446,588.592 C683.362,588.592 684.19,590.14 684.19,592.12 C684.19,592.3 684.154,592.516 684.154,592.696 C684.154,592.948 684.01,593.056 683.578,593.128 C682.066,593.38 679.15,593.92 676.918,594.604 C674.254,595.432 673.066,597.268 673.066,599.068 C673.066,601.552 675.262,604.036 678.898,604.036 Z M678.862,602.128 C676.45,602.128 675.01,600.616 675.01,599.104 C675.01,596.584 677.998,595.864 683.65,594.964 L683.758,594.964 L683.758,594.964 C684.01,594.964 684.118,595.072 684.118,595.36 L684.118,595.828 L684.118,595.828 C684.118,601.372 680.698,602.128 678.862,602.128 Z M692.722,613.108 C696.466,613.072 698.338,610.84 700.39,605.908 C701.83,602.416 707.302,589.312 707.374,589.204 C707.482,589.024 707.734,588.988 708.058,588.988 C708.31,588.988 708.598,589.024 708.886,589.024 C709.57,589.024 709.894,588.556 709.894,588.088 C709.894,587.62 709.57,587.152 708.886,587.152 L708.814,587.152 L708.814,587.152 C707.878,587.188 706.978,587.188 706.078,587.188 C705.214,587.188 704.35,587.188 703.486,587.152 L703.414,587.152 L703.414,587.152 C702.766,587.152 702.442,587.62 702.442,588.052 C702.442,588.196 702.55,589.024 703.45,588.988 C703.882,588.988 703.918,588.952 704.494,588.952 C704.818,588.952 704.998,589.096 704.998,589.348 C704.998,589.636 700.534,601.228 700.102,601.228 C699.778,601.228 697.654,595.72 695.35,589.6 C695.314,589.492 695.314,589.384 695.314,589.312 C695.314,589.06 695.458,588.952 695.782,588.952 C696.358,588.952 696.394,588.988 696.826,588.988 C697.474,588.988 697.798,588.52 697.798,588.052 C697.798,587.584 697.51,587.152 696.862,587.152 L696.79,587.152 L696.79,587.152 C695.926,587.188 695.098,587.188 694.198,587.188 C693.334,587.188 692.434,587.188 691.462,587.152 L691.39,587.152 L691.39,587.152 C690.742,587.152 690.418,587.62 690.418,588.088 C690.418,588.556 690.742,589.024 691.39,589.024 C691.894,589.024 691.858,588.988 692.398,588.988 C692.866,588.988 693.01,589.276 693.154,589.636 C694.486,593.092 697.798,601.012 698.77,603.46 C698.878,603.712 698.95,603.892 698.95,604.072 C698.95,604.216 698.914,604.36 698.842,604.54 C696.934,608.968 695.71,610.984 692.794,610.984 C691.966,610.984 691.606,611.488 691.606,612.028 C691.606,612.568 692.002,613.108 692.722,613.108 Z M733.222,603.568 C734.05,603.532 734.878,603.496 735.778,603.496 C736.642,603.496 737.578,603.532 738.478,603.568 L738.514,603.568 C739.162,603.568 739.486,603.1 739.486,602.596 C739.486,602.128 739.162,601.66 738.514,601.66 L738.478,601.66 C737.974,601.66 738.082,601.696 737.542,601.696 C737.146,601.696 736.966,601.444 736.966,601.084 C736.966,598.276 736.93,593.704 736.894,592.192 C736.786,588.664 734.23,586.792 731.494,586.792 C729.442,586.792 727.282,587.836 725.914,589.96 C725.158,587.836 723.178,586.828 721.162,586.828 C719.362,586.828 717.526,587.584 716.338,589.06 C716.302,589.096 716.266,589.132 716.266,589.132 C716.23,589.132 716.23,589.096 716.194,588.988 C716.158,588.88 715.906,587.116 713.35,587.116 C712.99,587.116 712.63,587.152 712.306,587.152 C711.658,587.152 711.334,587.656 711.334,588.16 C711.334,588.664 711.658,589.168 712.27,589.168 C712.738,589.168 712.738,589.132 713.062,589.132 C713.89,589.132 714.178,589.852 714.178,590.752 L714.178,593.452 L714.178,593.452 C714.178,595.972 714.142,598.672 714.106,601.084 C714.106,601.48 713.854,601.696 713.494,601.696 C712.954,601.696 712.846,601.66 712.414,601.66 L712.378,601.66 C711.73,601.66 711.406,602.128 711.37,602.632 C711.406,602.884 711.514,603.604 712.414,603.568 C713.242,603.532 714.106,603.496 714.97,603.496 C715.87,603.496 716.806,603.532 717.706,603.568 L717.742,603.568 C718.39,603.568 718.714,603.1 718.714,602.596 C718.714,602.128 718.39,601.66 717.742,601.66 L717.706,601.66 C717.202,601.696 717.31,601.696 716.77,601.696 C716.338,601.696 716.122,601.444 716.122,601.048 C716.122,599.644 716.086,597.988 716.086,596.476 C716.086,595 716.122,593.704 716.122,593.128 C716.23,590.464 718.678,588.664 720.91,588.664 C722.674,588.664 724.294,589.78 724.438,592.552 C724.474,593.236 724.51,595.036 724.51,596.98 C724.51,598.384 724.474,599.824 724.474,601.048 C724.474,601.444 724.222,601.696 723.862,601.696 C723.322,601.696 723.214,601.66 722.782,601.66 L722.746,601.66 C722.098,601.66 721.774,602.164 721.774,602.632 C721.774,603.136 722.134,603.604 722.782,603.568 C723.61,603.532 724.438,603.496 725.338,603.496 C726.202,603.496 727.138,603.532 728.038,603.568 L728.074,603.568 C728.722,603.568 729.046,603.064 729.046,602.596 C729.046,602.092 728.686,601.624 728.038,601.66 C727.534,601.696 727.606,601.696 727.066,601.696 C726.634,601.696 726.418,601.48 726.418,601.084 C726.418,599.932 726.382,598.564 726.382,597.232 C726.382,595.396 726.418,593.668 726.454,592.876 C726.562,590.428 729.046,588.664 731.278,588.664 C733.078,588.664 734.698,589.78 734.842,592.552 C734.878,593.236 734.914,595.18 734.914,597.16 C734.914,598.6 734.878,600.04 734.878,601.084 C734.878,601.48 734.626,601.696 734.266,601.696 C733.726,601.696 733.654,601.66 733.222,601.66 L733.186,601.66 C732.538,601.66 732.214,602.128 732.214,602.632 C732.214,603.208 732.682,603.604 733.222,603.568 Z M750.466,604.036 C755.002,604.036 757.522,601.3 757.522,600.472 C757.522,599.896 756.982,599.428 756.442,599.428 C756.19,599.428 755.938,599.536 755.722,599.752 C754.606,601.012 753.13,602.128 750.502,602.128 C747.046,602.128 744.454,599.716 744.454,595.792 C744.454,595.288 744.526,595.144 744.886,595.144 C745.678,595.144 748.738,595.18 751.438,595.18 C752.77,595.18 753.994,595.18 754.822,595.144 C756.658,595.072 757.45,594.064 757.45,592.732 C757.45,590.68 755.29,586.828 750.358,586.828 C746.11,586.828 742.33,590.284 742.33,595.54 C742.33,600.616 745.894,604.036 750.466,604.036 Z M750.655,593.415438 L747.709317,593.415022 C744.98189,593.408991 744.742,593.365767 744.742,593.056 C744.742,591.724 746.938,588.628 750.394,588.628 C754.066,588.628 755.326,591.328 755.326,592.372 C755.326,592.948 755.002,593.344 754.138,593.38 C753.382,593.407 752.059,593.41375 750.655,593.415438 Z M761.374,603.568 C762.202,603.532 763.102,603.496 764.002,603.496 C764.902,603.496 765.874,603.532 766.81,603.568 L766.846,603.568 C767.53,603.568 767.89,603.064 767.89,602.596 C767.89,602.02 767.458,601.588 766.81,601.624 C766.306,601.66 766.378,601.66 765.838,601.66 C765.406,601.66 765.19,601.444 765.19,601.048 C765.19,599.356 765.154,597.808 765.154,596.476 C765.154,595.18 765.19,594.1 765.19,593.416 C765.298,590.572 768.07,588.664 770.59,588.664 C772.606,588.664 774.514,589.888 774.694,592.876 C774.73,593.38 774.73,594.388 774.73,595.612 C774.73,597.304 774.73,599.356 774.694,601.012 C774.694,601.408 774.514,601.66 774.154,601.66 C773.578,601.66 773.506,601.624 773.074,601.624 L773.038,601.624 C772.354,601.624 771.994,602.128 771.994,602.632 C771.994,603.028 772.246,603.604 773.074,603.568 C773.902,603.532 774.766,603.496 775.666,603.496 C776.602,603.496 777.538,603.532 778.474,603.568 L778.51,603.568 C779.194,603.568 779.554,603.1 779.554,602.596 C779.554,602.092 779.194,601.624 778.51,601.624 L778.474,601.624 C777.97,601.624 777.97,601.66 777.43,601.66 C777.034,601.66 776.854,601.408 776.854,601.012 L776.854,599.284 L776.854,599.284 C776.854,596.692 776.818,593.74 776.782,592.552 C776.638,588.628 773.758,586.792 770.77,586.792 C768.754,586.792 766.702,587.62 765.442,589.24 C765.37,589.312 765.298,589.348 765.262,589.348 C765.154,589.348 765.118,589.276 765.082,589.168 C764.902,587.836 763.678,587.152 762.238,587.152 L761.194,587.152 C760.51,587.152 760.15,587.692 760.15,588.196 C760.15,588.7 760.474,589.204 761.122,589.204 L761.194,589.204 L761.194,589.204 C761.662,589.168 761.626,589.168 761.95,589.168 C762.814,589.204 763.138,589.852 763.138,590.788 C763.138,592.336 763.174,593.704 763.174,595.036 C763.174,596.908 763.138,598.78 763.102,601.048 C763.102,601.444 762.85,601.66 762.49,601.66 C761.914,601.66 761.806,601.624 761.374,601.624 L761.338,601.624 C760.654,601.624 760.294,602.128 760.294,602.632 C760.294,603.028 760.546,603.604 761.374,603.568 Z M789.202,604.036 C790.642,604.036 791.506,603.856 791.506,602.92 C791.506,602.452 791.182,601.984 790.642,601.984 L790.498,601.984 L790.498,601.984 C790.138,602.02 789.814,602.056 789.49,602.056 C786.826,602.056 786.62458,600.338675 786.610927,597.764763 L786.61,597.34 C786.61,594.676 786.718,590.968 786.718,589.6 C786.718,589.168 786.718,589.096 787.294,589.096 L790.462,589.096 C791.146,589.096 791.47,588.628 791.47,588.124 C791.47,587.656 791.146,587.188 790.462,587.188 L787.258,587.188 C786.79,587.188 786.718,587.188 786.718,586.792 C786.718,586.792 786.79,583.912 786.79,582.868 C786.79,582.112 786.286,581.752 785.746,581.752 C785.242,581.752 784.702,582.112 784.702,582.796 L784.702,583.696 L784.702,583.696 C784.702,584.956 784.666,586.684 784.666,586.828 C784.666,587.152 784.594,587.188 784.27,587.188 L782.182,587.188 C781.498,587.188 781.174,587.656 781.174,588.124 C781.174,588.628 781.498,589.096 782.182,589.096 L784.306,589.096 C784.558,589.096 784.666,589.132 784.666,589.492 L784.666,590.068 L784.666,590.068 C784.666,591.755304 784.600125,595.847055 784.594396,598.216025 L784.594938,598.830545 C784.609945,600.560069 784.865059,604.036 789.202,604.036 Z" id="Payment"></path>
        </g>
    </g>
</svg>
