<?xml version="1.0" encoding="UTF-8"?>
<svg width="239px" height="36px" viewBox="0 0 239 37" version="1.1" xmlns="http://www.w3.org/2000/svg" xmlns:xlink="http://www.w3.org/1999/xlink">
    <!-- Generator: Sketch 60 (88103) - https://sketch.com -->
    <title>ShoppingCart</title>
    <desc>Created with Sketch.</desc>
    <g id="web" stroke="none" stroke-width="1" fill="none" fill-rule="evenodd">
        <g id="Artboard" transform="translate(-58.000000, -66.000000)" fill="#000000" fill-rule="nonzero">
            <path d="M66.5718656,92.8291708 C71.6140567,92.8291708 74.675387,89.4485514 74.675387,85.8881119 C74.675387,83.3346653 73.1627297,80.6373626 69.6331959,78.7312687 C68.1565542,77.9400599 65.9235839,76.8971029 64.4109265,76.1418581 C62.2499875,75.0989011 61.2775649,73.4445554 61.2775649,71.8981019 C61.2775649,69.8121878 63.0783475,67.9060939 66.1756934,67.9060939 C69.9573368,67.9060939 71.5060098,70.3516484 71.5060098,71.2147852 L71.5052792,71.4059269 C71.5033309,71.5304365 71.4961873,71.5875034 71.4699941,72.005994 L71.4699941,72.0779221 L71.4699941,72.0779221 C71.4699941,72.7252747 71.9742132,73.012987 72.514448,73.048951 C73.0546828,73.012987 73.5949175,72.6893107 73.5589019,72.005994 C73.5228862,70.9270729 73.4868706,70.1358641 73.4868706,69.3446553 C73.4868706,68.6973027 73.5228862,68.013986 73.5589019,67.1868132 L73.5589019,67.1148851 L73.5589019,67.1148851 C73.5589019,66.5034965 73.0546828,66.1798202 72.514448,66.1798202 C72.0822602,66.1798202 71.6500724,66.3956044 71.5420254,66.8991009 C71.5060098,67.1148851 71.5420254,67.5464535 71.3619472,67.5464535 C71.3259315,67.5464535 71.2899159,67.5104895 71.2178846,67.4745255 C69.9573368,66.5034965 68.1565542,66.035964 66.1396778,66.035964 C61.6377214,66.035964 59.1166259,68.9130869 59.1166259,72.005994 C59.1166259,74.2357642 60.4852206,76.5734266 63.438504,77.976024 C65.2032709,78.8031968 67.0400691,79.7742258 68.6247577,80.6373626 C71.2178846,82.0759241 72.3343697,84.0539461 72.3343697,85.9240759 C72.3343697,88.4775225 70.1734307,90.7072927 66.7159282,90.7432567 C62.1059249,90.7432567 60.1250641,87.6863137 60.1250641,86.4995005 L60.1250641,85.7802198 C60.1250641,85.0969031 59.5848293,84.7732268 59.0445946,84.7732268 C57.964125,84.7732268 58,85.7442557 58,85.8161838 C58.0361563,86.7872128 58.072172,87.7942058 58.072172,88.8371628 C58.072172,89.6643357 58.0361563,90.5274725 58,91.4265734 L58,91.4985015 L58,91.4985015 C58,92.1818182 58.5403754,92.5054945 59.0806102,92.5054945 C59.5488137,92.5054945 60.0170171,92.2537463 60.0530328,91.7502498 C60.1250641,91.1388611 60.0170171,90.3116883 60.233111,90.3116883 C60.2691267,90.3116883 60.3051423,90.3476523 60.3771736,90.4195804 C61.7457684,91.9300699 64.0147544,92.8291708 66.5718656,92.8291708 Z M78.7451556,92.3616384 C79.5735156,92.3256743 80.4739068,92.2897103 81.3742981,92.2897103 C82.2746894,92.2897103 83.247112,92.3256743 84.1835189,92.3616384 L84.2195345,92.3616384 C84.9038319,92.3616384 85.2639884,91.8581419 85.2639884,91.3906094 C85.2639884,90.8151848 84.7957849,90.3836164 84.1835189,90.4195804 C83.6792998,90.4555445 83.7153154,90.4555445 83.1750807,90.4555445 C82.7428928,90.4555445 82.5628146,90.2037962 82.5628146,89.8441558 C82.5628146,88.1538462 82.5267989,86.5714286 82.5267989,85.2407592 C82.5267989,83.9460539 82.5628146,82.8671329 82.5628146,82.1838162 C82.6708615,79.3426573 85.408051,77.4725275 87.9291466,77.4725275 C89.9820387,77.4725275 91.8908682,78.7312687 92.0709464,81.7162837 C92.1069621,82.3996004 92.1429777,84.0899101 92.1429777,85.96004 C92.1429777,87.2907093 92.1069621,88.6573427 92.1069621,89.8441558 C92.1069621,90.2037962 91.8908682,90.4555445 91.5307117,90.4555445 C90.9544613,90.4555445 90.9184456,90.4195804 90.4502421,90.4195804 L90.4142265,90.4195804 C89.7299291,90.4195804 89.3697726,90.9230769 89.3697726,91.4265734 C89.3697726,91.8221778 89.6218822,92.3976024 90.4502421,92.3616384 C91.2786021,92.3256743 92.1429777,92.2897103 93.043369,92.2897103 C93.9797759,92.2897103 94.9161828,92.3256743 95.8525898,92.3616384 L95.8886054,92.3616384 C96.5729028,92.3616384 96.9330593,91.8941059 96.9330593,91.3906094 C96.9330593,90.8871129 96.5729028,90.4195804 95.8886054,90.4195804 L95.8525898,90.4195804 C95.3483707,90.4195804 95.3843863,90.4555445 94.8441515,90.4555445 C94.4119637,90.4555445 94.2318855,90.2037962 94.2318855,89.8081918 L94.2313073,89.1571044 C94.2265498,86.3687177 94.193202,82.7192807 94.1598542,81.3206793 C94.0157916,77.4005994 91.1345395,75.5664336 88.1452405,75.5664336 C86.128364,75.5664336 84.0754719,76.3936064 82.8149242,78.011988 C82.7428928,78.0839161 82.7068772,78.1198801 82.6708615,78.1198801 C82.6348459,78.1198801 82.5988302,78.047952 82.5988302,77.9400599 C82.5988302,77.4852889 82.6282124,74.8006728 82.6338993,72.1387716 L82.6348459,69.2367632 L82.6348459,69.2367632 C82.6348459,67.7622378 81.8785172,66.6833167 80.1857816,66.5034965 C79.8976564,66.4675325 79.5735156,66.4315684 79.2853904,66.4315684 C77.7367174,66.4315684 77.4485922,66.8991009 77.4485922,67.5104895 C77.4485922,68.013986 77.8087487,68.5174825 78.4570304,68.5174825 L78.493046,68.5174825 C78.9612495,68.4815185 78.9612495,68.4815185 79.2853904,68.4815185 C80.2217973,68.5174825 80.5099225,69.020979 80.5099225,69.956044 C80.5099225,71.97003 80.5412961,74.6419181 80.5454793,77.4746267 L80.5451448,79.2134357 C80.5396746,83.1754446 80.5067907,87.1843808 80.4739068,89.8441558 C80.4739068,90.2397602 80.2578129,90.4555445 79.8976564,90.4555445 C79.321406,90.4555445 79.2133591,90.4195804 78.7451556,90.4195804 L78.7091399,90.4195804 C78.0248426,90.4195804 77.6646861,90.9230769 77.6646861,91.4265734 C77.6646861,91.8221778 77.9167956,92.3976024 78.7451556,92.3616384 Z M107.917833,92.8291708 C112.707914,92.8291708 116.309479,89.3766234 116.309479,84.1978022 C116.309479,79.1988012 112.707914,75.6023976 107.917833,75.6023976 C103.127751,75.6023976 99.5982175,79.1988012 99.5982175,84.1978022 C99.5982175,89.3766234 103.127751,92.8291708 107.917833,92.8291708 Z M107.917833,90.9230769 C104.46033,90.9230769 101.687125,88.2257742 101.687125,84.1978022 C101.687125,80.1338661 104.46033,77.4725275 107.917833,77.4725275 C111.375335,77.4725275 114.184556,80.1338661 114.184556,84.1978022 C114.184556,88.2257742 111.375335,90.9230769 107.917833,90.9230769 Z M126.105737,101.64036 C126.790034,101.64036 127.114175,101.136863 127.114175,100.633367 C127.114175,100.12987 126.790034,99.6623377 126.177768,99.6623377 L126.141752,99.6623377 C125.601517,99.6623377 125.673549,99.6983017 125.097298,99.6983017 C124.449017,99.6983017 124.268938,99.3386613 124.268938,98.8711289 L124.269729,90.0795254 C124.272495,89.8450438 124.284945,89.7362637 124.34097,89.7362637 C124.376985,89.7362637 124.485032,89.9160839 124.701126,90.1678322 C126.141752,91.9300699 128.302691,92.7932068 130.427615,92.7932068 C135.109649,92.7932068 138.603167,89.4125874 138.603167,84.2697303 C138.603167,79.1988012 135.109649,75.7102897 130.427615,75.7102897 C128.014566,75.7102897 125.673549,76.8611389 124.485032,78.5514486 C124.34097,78.7312687 124.268938,78.8391608 124.196907,78.8391608 C124.124876,78.8391608 124.160891,78.5514486 124.124876,78.2637363 C124.016829,76.8611389 122.792297,75.998002 121.423702,75.962038 C121.063545,75.962038 120.703389,75.998002 120.235185,75.998002 C119.550888,75.998002 119.190732,76.5374625 119.190732,77.004995 C119.190732,77.5084915 119.550888,78.011988 120.19917,78.011988 L120.235185,78.011988 C120.703389,78.011988 120.631358,77.976024 120.955498,77.976024 C121.891905,78.011988 122.216046,78.6953047 122.216046,79.7382617 L122.215407,88.7873624 C122.213595,92.4740855 122.206651,96.2129175 122.180031,98.8711289 C122.180031,99.4105894 121.999952,99.7342657 121.495733,99.7342657 L121.13839,99.7337038 C120.84295,99.732018 120.694385,99.7252747 120.343232,99.6983017 L120.271201,99.6983017 L120.271201,99.6983017 C119.622919,99.6983017 119.334794,100.165834 119.334794,100.669331 C119.298779,101.64036 120.127138,101.64036 120.343232,101.64036 C120.991514,101.604396 121.819874,101.604396 122.648234,101.604396 C123.836751,101.604396 125.097298,101.604396 126.069721,101.64036 L126.105737,101.64036 Z M130.355583,90.9230769 C126.934096,90.9230769 124.232923,88.2977023 124.232923,84.2697303 C124.232923,80.2417582 126.934096,77.5804196 130.355583,77.5804196 C133.77707,77.5804196 136.478244,80.2417582 136.478244,84.2697303 C136.478244,88.2977023 133.77707,90.9230769 130.355583,90.9230769 Z M148.471456,101.64036 C149.155753,101.64036 149.479894,101.136863 149.479894,100.633367 C149.479894,100.12987 149.155753,99.6623377 148.543487,99.6623377 L148.507471,99.6623377 C147.967237,99.6623377 148.039268,99.6983017 147.463017,99.6983017 C146.814736,99.6983017 146.634658,99.3386613 146.634658,98.8711289 L146.635448,90.0795254 C146.638215,89.8450438 146.650664,89.7362637 146.706689,89.7362637 C146.742704,89.7362637 146.850751,89.9160839 147.066845,90.1678322 C148.507471,91.9300699 150.66841,92.7932068 152.793334,92.7932068 C157.475368,92.7932068 160.968887,89.4125874 160.968887,84.2697303 C160.968887,79.1988012 157.475368,75.7102897 152.793334,75.7102897 C150.380285,75.7102897 148.039268,76.8611389 146.850751,78.5514486 C146.706689,78.7312687 146.634658,78.8391608 146.562626,78.8391608 C146.490595,78.8391608 146.526611,78.5514486 146.490595,78.2637363 C146.382548,76.8611389 145.158016,75.998002 143.789421,75.962038 C143.429265,75.962038 143.069108,75.998002 142.600905,75.998002 C141.916607,75.998002 141.556451,76.5374625 141.556451,77.004995 C141.556451,77.5084915 141.916607,78.011988 142.564889,78.011988 L142.600905,78.011988 C143.069108,78.011988 142.997077,77.976024 143.321218,77.976024 C144.257625,78.011988 144.581765,78.6953047 144.581765,79.7382617 L144.581765,84.953047 L144.581765,84.953047 C144.581765,89.7002997 144.581765,95.2747253 144.54575,98.8711289 C144.54575,99.4105894 144.365672,99.7342657 143.861452,99.7342657 L143.50411,99.7337038 C143.208669,99.732018 143.060104,99.7252747 142.708952,99.6983017 L142.63692,99.6983017 L142.63692,99.6983017 C141.988639,99.6983017 141.700513,100.165834 141.700513,100.669331 C141.664498,101.64036 142.492858,101.64036 142.708952,101.64036 C143.357233,101.604396 144.185593,101.604396 145.013953,101.604396 C146.20247,101.604396 147.463017,101.604396 148.43544,101.64036 L148.471456,101.64036 Z M152.721303,90.9230769 C149.299816,90.9230769 146.598642,88.2977023 146.598642,84.2697303 C146.598642,80.2417582 149.299816,77.5804196 152.721303,77.5804196 C156.142789,77.5804196 158.843963,80.2417582 158.843963,84.2697303 C158.843963,88.2977023 156.142789,90.9230769 152.721303,90.9230769 Z M167.523735,69.4165834 C169.144439,69.4165834 169.324518,67.978022 169.324518,67.6903097 C169.324518,66.8271728 168.676236,66 167.559751,66 C166.839438,66 165.830999,66.5394605 165.830999,67.6903097 C165.830999,69.4165834 167.343657,69.4165834 167.523735,69.4165834 Z M165.218733,92.3977521 C166.083109,92.3616384 167.091547,92.3256743 168.099985,92.3256743 C169.108424,92.3256743 170.188893,92.3616384 171.161316,92.3977521 L171.197331,92.3977521 C171.917644,92.3977521 172.277801,91.8941059 172.277801,91.3906094 C172.277801,90.3476523 171.305378,90.3836164 171.161316,90.3836164 C170.621081,90.4195804 170.477018,90.4195804 169.900768,90.4195804 C169.46858,90.4195804 169.252486,90.0959041 169.252486,89.7362637 L169.252486,86.9310689 L169.252486,86.9310689 C169.252486,84.3056943 169.288502,81.5724276 169.324518,79.0549451 L169.324518,78.9470529 L169.324518,78.9470529 C169.324518,77.4365634 168.64022,75.998002 166.659359,75.998002 C165.830999,75.998002 165.939046,75.962038 165.254749,75.962038 C164.570452,75.962038 164.210295,76.5014985 164.210295,77.040959 C164.210295,77.5084915 164.534436,78.011988 165.182718,78.011988 L165.254749,78.011988 L165.254749,78.011988 C165.542874,78.011988 165.722953,77.976024 166.011078,77.976024 C166.875453,78.011988 167.23561,78.5874126 167.23561,79.6303696 C167.23561,82.7592408 167.199594,86.2837163 167.163579,89.7002997 C167.163579,90.1678322 166.947485,90.4195804 166.515297,90.4195804 C165.903031,90.4195804 165.686937,90.3836164 165.218733,90.3836164 L165.182718,90.3836164 C164.462405,90.3836164 164.102248,90.8871129 164.102248,91.3906094 C164.102248,92.4335664 165.074671,92.3977521 165.218733,92.3977521 Z M175.123037,92.3616384 C175.951397,92.3256743 176.851789,92.2897103 177.75218,92.2897103 C178.652571,92.2897103 179.624994,92.3256743 180.561401,92.3616384 L180.597416,92.3616384 C181.281714,92.3616384 181.64187,91.8581419 181.64187,91.3906094 C181.64187,90.8151848 181.209682,90.3836164 180.561401,90.4195804 C180.057182,90.4555445 180.129213,90.4555445 179.588978,90.4555445 C179.15679,90.4555445 178.940696,90.2397602 178.940696,89.8441558 C178.940696,88.1538462 178.904681,86.6073926 178.904681,85.2767233 C178.904681,83.982018 178.940696,82.9030969 178.940696,82.2197802 C179.048743,79.3786214 181.821948,77.4725275 184.343044,77.4725275 C186.35992,77.4725275 188.26875,78.6953047 188.448828,81.6803197 C188.484844,82.1838162 188.484844,83.1908092 188.484844,84.4135864 C188.484844,86.1038961 188.484844,88.1538462 188.448828,89.8081918 C188.448828,90.2037962 188.26875,90.4555445 187.908593,90.4555445 C187.332343,90.4555445 187.260312,90.4195804 186.828124,90.4195804 L186.792108,90.4195804 C186.107811,90.4195804 185.747654,90.9230769 185.747654,91.4265734 C185.747654,91.8221778 185.999764,92.3976024 186.828124,92.3616384 C187.656484,92.3256743 188.52086,92.2897103 189.421251,92.2897103 C190.357658,92.2897103 191.294065,92.3256743 192.230472,92.3616384 L192.266487,92.3616384 C192.950785,92.3616384 193.310941,91.8941059 193.310941,91.3906094 C193.310941,90.8871129 192.950785,90.4195804 192.266487,90.4195804 L192.230472,90.4195804 C191.726252,90.4195804 191.726252,90.4555445 191.186018,90.4555445 C190.789846,90.4555445 190.609767,90.2037962 190.609767,89.8081918 L190.609767,88.0819181 L190.609767,88.0819181 C190.609767,85.4925075 190.573752,82.5434565 190.537736,81.3566434 C190.393673,77.4365634 187.512421,75.6023976 184.523122,75.6023976 C182.506246,75.6023976 180.453354,76.4295704 179.192806,78.047952 C179.120775,78.1198801 179.048743,78.1558442 179.012728,78.1558442 C178.904681,78.1558442 178.868665,78.0839161 178.832649,77.976024 C178.652571,76.6453546 177.428039,75.962038 175.987413,75.962038 L174.942959,75.962038 C174.258662,75.962038 173.898505,76.5014985 173.898505,77.004995 C173.898505,77.5084915 174.222646,78.011988 174.870928,78.011988 L174.942959,78.011988 L174.942959,78.011988 C175.411163,77.976024 175.375147,77.976024 175.699288,77.976024 C176.563663,78.011988 176.887804,78.6593407 176.887804,79.5944056 C176.887804,81.1408591 176.92382,82.5074925 176.92382,83.8381618 C176.92382,85.7082917 176.887804,87.5784216 176.851789,89.8441558 C176.851789,90.2397602 176.599679,90.4555445 176.239523,90.4555445 C175.663272,90.4555445 175.555225,90.4195804 175.123037,90.4195804 L175.087022,90.4195804 C174.402724,90.4195804 174.042568,90.9230769 174.042568,91.4265734 C174.042568,91.8221778 174.294677,92.3976024 175.123037,92.3616384 Z M203.791495,102 C208.149389,102 212.255173,99.2667333 212.291189,93.2967033 C212.291189,91.537232 212.260501,87.8165503 212.25578,84.6521735 L212.255856,82.62733 C212.257735,81.5371029 212.264778,80.6157842 212.291189,80.0619381 C212.327205,78.6233766 212.86744,78.0839161 213.587753,78.047952 L214.236034,78.047952 C214.812285,78.047952 215.10041,77.5444555 215.10041,77.040959 C215.10041,76.2137862 214.596191,75.962038 213.587753,75.962038 C211.750954,75.962038 210.634469,77.1488511 210.526422,78.5154845 C210.490407,78.8031968 210.454391,78.9110889 210.418375,78.9110889 C210.38236,78.9110889 210.274313,78.6953047 210.058219,78.4075924 C208.833687,76.7172827 206.384622,75.6383616 204.115636,75.6383616 C199.433602,75.6383616 195.904068,79.1268731 195.904068,84.1978022 C195.904068,89.3406593 199.397586,92.7572428 204.079621,92.7572428 C206.24056,92.7572428 208.509546,91.7502498 209.950172,89.9160839 C210.094234,89.7002997 210.202281,89.5924076 210.238297,89.5924076 C210.274313,89.5924076 210.274313,89.7002997 210.274313,90.023976 L210.274313,93.3326673 C210.238297,98.1518482 207.06892,99.986014 203.935558,99.986014 C201.918682,99.986014 199.937821,99.2307692 198.821336,98.043956 C198.605242,97.8281718 198.353132,97.7202797 198.101023,97.7202797 C197.488757,97.7202797 196.912506,98.2597403 196.912506,98.9070929 C196.912506,100.381618 201.01829,102 203.791495,102 Z M204.151652,90.8151848 C200.550087,90.8151848 198.028991,88.2977023 198.028991,84.1978022 C198.028991,80.0979021 200.550087,77.5444555 204.187668,77.5444555 C207.717201,77.5444555 210.274313,80.0979021 210.274313,84.1978022 C210.274313,88.2257742 207.537123,90.8151848 204.151652,90.8151848 Z M241.968085,92.7932068 C248.30684,92.7932068 252.412624,88.8731269 252.412624,87.6503497 C252.412624,86.967033 251.764342,86.3556444 251.116061,86.3556444 C250.755904,86.3556444 250.359732,86.5354645 250.071607,86.9310689 C248.30684,89.3046953 245.101447,90.5994006 241.896054,90.5994006 C234.72894,90.5994006 231.307453,84.8091908 231.307453,79.4505495 C231.307453,73.6963037 235.233159,68.1218781 242.004101,68.1218781 C244.489181,68.1218781 246.938245,68.9490509 248.630981,70.7112887 C249.099184,71.1788212 249.099184,72.2217782 249.099184,72.7612388 C249.099184,73.4445554 249.639419,73.7682318 250.179654,73.7682318 C250.683873,73.7682318 251.224108,73.4445554 251.224108,72.7252747 L251.224108,72.6533467 L251.224108,72.6533467 C251.188092,71.6463536 251.152076,70.8191808 251.152076,69.992008 C251.152076,69.1648352 251.188092,68.3736264 251.224108,67.4385614 L251.224108,67.3666334 L251.224108,67.3666334 C251.224108,66.7192807 250.683873,66.3956044 250.143638,66.3956044 C249.243247,66.3956044 249.1352,66.971029 249.1352,67.7262737 C249.1352,68.2297702 248.955122,68.1578422 248.88309,68.0859141 C246.938245,66.7192807 244.525197,66.0719281 242.076132,66.0719281 C233.720501,66.0719281 229.002451,72.7972028 229.002451,79.6663337 C229.002451,86.967033 234.008627,92.7932068 241.968085,92.7932068 Z M261.596615,92.8291708 C263.685523,92.8291708 265.990525,91.7862138 267.070994,90.0599401 C267.10701,89.988012 267.179041,89.952048 267.215057,89.952048 C267.287088,89.952048 267.323104,90.023976 267.359119,90.1318681 C267.68326,91.4625375 268.979824,92.4335664 270.024277,92.4335664 C270.636544,92.4335664 270.9967,91.9300699 270.9967,91.4265734 C270.9967,91.0669331 270.816622,90.6713287 270.384434,90.5274725 C268.943808,90.023976 268.691698,89.1608392 268.691698,86.5354645 C268.691698,85.1688312 268.76373,83.2987013 268.871777,82.1118881 C268.907792,81.7522478 268.907792,81.4285714 268.907792,81.1048951 C268.907792,77.0769231 266.638806,75.6023976 263.289351,75.6023976 C260.192005,75.6023976 257.16669,77.1488511 257.16669,78.5154845 C257.16669,79.0909091 257.634894,79.4865135 258.175128,79.4865135 C258.427238,79.4865135 258.715363,79.3786214 258.931457,79.1268731 C259.759817,78.2277722 261.200443,77.4005994 263.145288,77.4005994 C266.062556,77.4005994 266.890916,78.9470529 266.890916,80.9250749 C266.890916,81.1048951 266.8549,81.3206793 266.8549,81.5004995 C266.8549,81.7522478 266.710838,81.8601399 266.27865,81.9320679 C264.765992,82.1838162 261.848725,82.7232767 259.615754,83.4065934 C256.950596,84.2337662 255.76208,86.0679321 255.76208,87.8661339 C255.76208,90.3476523 257.959034,92.8291708 261.596615,92.8291708 Z M261.5606,90.9230769 C259.147551,90.9230769 257.706925,89.4125874 257.706925,87.9020979 C257.706925,85.3846154 260.696224,84.6653347 266.350681,83.7662338 L266.458728,83.7662338 L266.458728,83.7662338 C266.710838,83.7662338 266.818885,83.8741259 266.818885,84.1618382 L266.818885,84.6293706 L266.818885,84.6293706 C266.818885,90.1678322 263.397398,90.9230769 261.5606,90.9230769 Z M274.598265,92.3616384 C275.426625,92.3256743 276.399048,92.2897103 277.37147,92.2897103 C278.343893,92.2897103 279.388347,92.3256743 280.324754,92.3616384 L280.360769,92.3616384 C281.045067,92.3616384 281.405223,91.8581419 281.405223,91.3906094 C281.405223,90.8151848 280.93702,90.3836164 280.324754,90.4195804 C279.820535,90.4555445 279.676472,90.4555445 279.136237,90.4555445 C278.740065,90.4555445 278.523971,90.1678322 278.523971,89.8081918 C278.523971,88.0819181 278.487955,86.4635365 278.487955,85.0969031 C278.487955,83.7302697 278.523971,82.6153846 278.523971,81.9320679 C278.596002,79.2707293 281.297176,77.6523477 283.782256,77.6523477 L283.99835,77.6523477 C284.646632,77.6523477 285.006788,77.1488511 285.006788,76.6453546 C285.006788,75.962038 284.502569,75.6023976 283.818272,75.6383616 C281.76538,75.7102897 279.676472,76.5374625 278.704049,77.8681319 C278.632018,77.9400599 278.559987,77.976024 278.487955,77.976024 C278.45194,77.976024 278.379908,77.976024 278.379908,77.8681319 C278.163815,76.5734266 276.975298,75.962038 275.534672,75.962038 L274.526234,75.962038 C273.841936,75.962038 273.517796,76.4655345 273.517796,77.004995 C273.517796,77.5084915 273.841936,78.011988 274.490218,78.011988 L274.526234,78.011988 C274.994437,77.976024 274.958422,77.976024 275.282563,77.976024 C276.182954,78.011988 276.471079,78.6593407 276.471079,79.6303696 L276.471079,82.4355644 L276.471079,82.4355644 C276.471079,84.8451548 276.435063,87.038961 276.399048,89.8081918 C276.399048,90.2037962 276.182954,90.4555445 275.822797,90.4555445 C275.246547,90.4555445 275.066469,90.4195804 274.598265,90.4195804 L274.562249,90.4195804 C273.877952,90.4195804 273.517796,90.9230769 273.517796,91.4265734 C273.517796,91.8221778 273.769905,92.3976024 274.598265,92.3616384 Z M294.694998,92.8291708 C296.135624,92.8291708 297,92.6493506 297,91.7142857 C297,91.2467532 296.675859,90.7792208 296.135624,90.7792208 L295.991562,90.7792208 L295.991562,90.7792208 C295.631405,90.8151848 295.307264,90.8511489 294.983124,90.8511489 C292.317965,90.8511489 292.116458,89.135539 292.102799,86.5641993 L292.101871,86.1398601 C292.101871,83.4785215 292.209918,79.7742258 292.209918,78.4075924 C292.209918,77.976024 292.209918,77.9040959 292.786169,77.9040959 L295.955546,77.9040959 C296.639843,77.9040959 296.963984,77.4365634 296.963984,76.9330669 C296.963984,76.4655345 296.639843,75.998002 295.955546,75.998002 L292.750153,75.998002 C292.28195,75.998002 292.209918,75.998002 292.209918,75.6023976 C292.209918,75.6023976 292.28195,72.7252747 292.28195,71.6823177 C292.28195,70.9270729 291.777731,70.5674326 291.237496,70.5674326 C290.733277,70.5674326 290.193042,70.9270729 290.193042,71.6103896 L290.193042,72.5094905 L290.193042,72.5094905 C290.193042,73.7682318 290.157026,75.4945055 290.157026,75.6383616 C290.157026,75.962038 290.084995,75.998002 289.760854,75.998002 L287.671946,75.998002 C286.987649,75.998002 286.663508,76.4655345 286.663508,76.9330669 C286.663508,77.4365634 286.987649,77.9040959 287.671946,77.9040959 L289.79687,77.9040959 C290.048979,77.9040959 290.157026,77.9400599 290.157026,78.2997003 L290.157026,78.8751249 L290.157026,78.8751249 C290.157026,80.5607436 290.091122,84.6484064 290.085392,87.0150096 L290.085933,87.6289162 C290.100947,89.3567125 290.356172,92.8291708 294.694998,92.8291708 Z" id="ShoppingCart"></path>
        </g>
    </g>
</svg>
