<?xml version="1.0" encoding="UTF-8"?>
<svg width="81px" height="36px" viewBox="0 0 81 36" version="1.1" xmlns="http://www.w3.org/2000/svg" xmlns:xlink="http://www.w3.org/1999/xlink">
    <!-- Generator: Sketch 60 (88103) - https://sketch.com -->
    <title>Shop</title>
    <desc>Created with Sketch.</desc>
    <g id="web" stroke="none" stroke-width="1" fill="none" fill-rule="evenodd">
        <g id="Artboard" transform="translate(-1116.000000, -279.000000)" fill="#000000" fill-rule="nonzero">
            <path d="M1124.658,306.036 C1129.698,306.036 1132.758,302.652 1132.758,299.088 C1132.758,296.532 1131.246,293.832 1127.718,291.924 C1126.242,291.132 1124.01,290.088 1122.498,289.332 C1120.338,288.288 1119.366,286.632 1119.366,285.084 C1119.366,282.996 1121.166,281.088 1124.262,281.088 C1128.042,281.088 1129.59,283.536 1129.59,284.4 L1129.58927,284.591333 C1129.58732,284.715967 1129.58018,284.773091 1129.554,285.192 L1129.554,285.264 L1129.554,285.264 C1129.554,285.912 1130.058,286.2 1130.598,286.236 C1131.138,286.2 1131.678,285.876 1131.642,285.192 C1131.606,284.112 1131.57,283.32 1131.57,282.528 C1131.57,281.88 1131.606,281.196 1131.642,280.368 L1131.642,280.296 L1131.642,280.296 C1131.642,279.684 1131.138,279.36 1130.598,279.36 C1130.166,279.36 1129.734,279.576 1129.626,280.08 C1129.59,280.296 1129.626,280.728 1129.446,280.728 C1129.41,280.728 1129.374,280.692 1129.302,280.656 C1128.042,279.684 1126.242,279.216 1124.226,279.216 C1119.726,279.216 1117.206,282.096 1117.206,285.192 C1117.206,287.424 1118.574,289.764 1121.526,291.168 C1123.29,291.996 1125.126,292.968 1126.71,293.832 C1129.302,295.272 1130.418,297.252 1130.418,299.124 C1130.418,301.68 1128.258,303.912 1124.802,303.948 C1120.194,303.948 1118.214,300.888 1118.214,299.7 L1118.214,298.98 C1118.214,298.296 1117.674,297.972 1117.134,297.972 C1116.054,297.972 1116.08986,298.944 1116.08986,299.016 C1116.126,299.988 1116.162,300.996 1116.162,302.04 C1116.162,302.868 1116.126,303.732 1116.08986,304.632 L1116.08986,304.704 L1116.08986,304.704 C1116.08986,305.388 1116.63,305.712 1117.17,305.712 C1117.638,305.712 1118.106,305.46 1118.142,304.956 C1118.214,304.344 1118.106,303.516 1118.322,303.516 C1118.358,303.516 1118.394,303.552 1118.466,303.624 C1119.834,305.136 1122.102,306.036 1124.658,306.036 Z M1136.826,305.568 C1137.654,305.532 1138.554,305.496 1139.454,305.496 C1140.354,305.496 1141.326,305.532 1142.262,305.568 L1142.298,305.568 C1142.982,305.568 1143.342,305.064 1143.342,304.596 C1143.342,304.02 1142.874,303.588 1142.262,303.624 C1141.758,303.66 1141.794,303.66 1141.254,303.66 C1140.822,303.66 1140.642,303.408 1140.642,303.048 C1140.642,301.356 1140.606,299.772 1140.606,298.44 C1140.606,297.144 1140.642,296.064 1140.642,295.38 C1140.75,292.536 1143.486,290.664 1146.006,290.664 C1148.058,290.664 1149.966,291.924 1150.146,294.912 C1150.182,295.596 1150.218,297.288 1150.218,299.16 C1150.218,300.492 1150.182,301.86 1150.182,303.048 C1150.182,303.408 1149.966,303.66 1149.606,303.66 C1149.03,303.66 1148.994,303.624 1148.526,303.624 L1148.49,303.624 C1147.806,303.624 1147.446,304.128 1147.446,304.632 C1147.446,305.028 1147.698,305.604 1148.526,305.568 C1149.354,305.532 1150.218,305.496 1151.118,305.496 C1152.054,305.496 1152.99,305.532 1153.926,305.568 L1153.962,305.568 C1154.646,305.568 1155.006,305.1 1155.006,304.596 C1155.006,304.092 1154.646,303.624 1153.962,303.624 L1153.926,303.624 C1153.422,303.624 1153.458,303.66 1152.918,303.66 C1152.486,303.66 1152.306,303.408 1152.306,303.012 C1152.306,300.168 1152.27,296.028 1152.234,294.516 C1152.09,290.592 1149.21,288.756 1146.222,288.756 C1144.206,288.756 1142.154,289.584 1140.894,291.204 C1140.822,291.276 1140.786,291.312 1140.75,291.312 C1140.714,291.312 1140.678,291.24 1140.678,291.132 C1140.678,290.676774 1140.70737,287.989473 1140.71305,285.32491 L1140.714,282.42 L1140.714,282.42 C1140.714,280.944 1139.958,279.864 1138.266,279.684 C1137.978,279.648 1137.654,279.612 1137.366,279.612 C1135.818,279.612 1135.53,280.08 1135.53,280.692 C1135.53,281.196 1135.89,281.7 1136.538,281.7 L1136.574,281.7 C1137.042,281.664 1137.042,281.664 1137.366,281.664 C1138.302,281.7 1138.59,282.204 1138.59,283.14 C1138.59,285.156 1138.62136,287.83056 1138.62554,290.666101 L1138.62521,292.406649 C1138.61974,296.37262 1138.58687,300.385565 1138.554,303.048 C1138.554,303.444 1138.338,303.66 1137.978,303.66 C1137.402,303.66 1137.294,303.624 1136.826,303.624 L1136.79,303.624 C1136.106,303.624 1135.746,304.128 1135.746,304.632 C1135.746,305.028 1135.998,305.604 1136.826,305.568 Z M1165.986,306.036 C1170.774,306.036 1174.374,302.58 1174.374,297.396 C1174.374,292.392 1170.774,288.792 1165.986,288.792 C1161.198,288.792 1157.67,292.392 1157.67,297.396 C1157.67,302.58 1161.198,306.036 1165.986,306.036 Z M1165.986,304.128 C1162.53,304.128 1159.758,301.428 1159.758,297.396 C1159.758,293.328 1162.53,290.664 1165.986,290.664 C1169.442,290.664 1172.25,293.328 1172.25,297.396 C1172.25,301.428 1169.442,304.128 1165.986,304.128 Z M1184.166,314.856 C1184.85,314.856 1185.174,314.352 1185.174,313.848 C1185.174,313.344 1184.85,312.876 1184.238,312.876 L1184.202,312.876 C1183.662,312.876 1183.734,312.912 1183.158,312.912 C1182.51,312.912 1182.33,312.552 1182.33,312.084 L1182.33079,303.283605 C1182.33356,303.048889 1182.346,302.94 1182.402,302.94 C1182.438,302.94 1182.546,303.12 1182.762,303.372 C1184.202,305.136 1186.362,306 1188.486,306 C1193.166,306 1196.658,302.616 1196.658,297.468 C1196.658,292.392 1193.166,288.9 1188.486,288.9 C1186.074,288.9 1183.734,290.052 1182.546,291.744 C1182.402,291.924 1182.33,292.032 1182.258,292.032 C1182.186,292.032 1182.222,291.744 1182.186,291.456 C1182.078,290.052 1180.854,289.188 1179.486,289.152 C1179.126,289.152 1178.766,289.188 1178.298,289.188 C1177.614,289.188 1177.254,289.728 1177.254,290.196 C1177.254,290.7 1177.614,291.204 1178.262,291.204 L1178.298,291.204 C1178.766,291.204 1178.694,291.168 1179.018,291.168 C1179.954,291.204 1180.278,291.888 1180.278,292.932 L1180.27736,301.99015 C1180.27555,305.68056 1180.26861,309.42313 1180.242,312.084 C1180.242,312.624 1180.062,312.948 1179.558,312.948 L1179.20081,312.947437 C1178.9055,312.94575 1178.757,312.939 1178.406,312.912 L1178.334,312.912 L1178.334,312.912 C1177.686,312.912 1177.398,313.38 1177.398,313.884 C1177.362,314.856 1178.19,314.856 1178.406,314.856 C1179.054,314.82 1179.882,314.82 1180.71,314.82 C1181.898,314.82 1183.158,314.82 1184.13,314.856 L1184.166,314.856 Z M1188.414,304.128 C1184.994,304.128 1182.294,301.5 1182.294,297.468 C1182.294,293.436 1184.994,290.772 1188.414,290.772 C1191.834,290.772 1194.534,293.436 1194.534,297.468 C1194.534,301.5 1191.834,304.128 1188.414,304.128 Z" id="Shop"></path>
        </g>
    </g>
</svg>