<?xml version="1.0" encoding="UTF-8"?>
<svg width="251px" height="49px" viewBox="0 0 251 49" version="1.1" xmlns="http://www.w3.org/2000/svg" xmlns:xlink="http://www.w3.org/1999/xlink">
    <!-- Generator: Sketch 60 (88103) - https://sketch.com -->
    <title>Thankyou</title>
    <desc>Created with Sketch.</desc>
    <g id="web" stroke="none" stroke-width="1" fill="none" fill-rule="evenodd">
        <g id="Artboard" transform="translate(-74.000000, -256.000000)" fill="#000000" fill-rule="nonzero">
            <path d="M86.452,292.336 C87.556,292.288 89.092,292.24 90.676,292.24 C92.02,292.24 93.364,292.288 94.564,292.336 L94.756,292.336 L94.756,292.336 C96.484,292.336 97.396,291.04 97.396,289.792 C97.396,288.496 96.484,287.2 94.612,287.2 C93.748,287.2 93.268,287.152 93.268,286.096 C93.2234286,283.288 93.1788571,279.941959 93.1727172,276.519055 L93.172,275.728 C93.172,270.64 93.22,265.504 93.316,261.952 L93.3166979,261.811398 C93.3288761,260.896 93.5470698,260.896 97.3,260.896 C99.844,260.896 100.324,260.944 101.044,263.152 C101.188,263.584 101.332,264.064 101.476,264.592 C101.86,265.936 102.964,266.512 104.02,266.512 C105.316,266.512 106.66,265.6 106.66,263.968 C106.66,263.632 106.612,263.248 106.468,262.864 C106.132,261.856 105.604,260.752 105.316,259.984 C104.308,257.2 102.292,256.096 98.5,256.096 L98.02,256.096 L98.02,256.096 C95.9346667,256.141333 92.7361481,256.186667 89.6779671,256.191564 L89.14,256.192 C86.5,256.192 84.052,256.144 82.564,256.096 L81.652,256.096 L81.652,256.096 C76.564,256.096 75.748,258.208 74.212,262.816 C74.068,263.248 73.972,263.68 73.972,264.064 C73.972,265.648 75.268,266.56 76.564,266.56 C77.62,266.56 78.724,265.936 79.108,264.592 C79.3,264.016 79.396,263.488 79.54,263.056 C80.164,260.944 80.356,260.896 84.484,260.896 C87.796,260.896 87.796,260.896 87.796,261.952 C87.892,264.64 87.892,267.568 87.892,270.496 C87.892,276.4 87.796,282.256 87.796,286.144 C87.796,287.2 87.316,287.152 86.452,287.2 L86.26,287.2 L86.26,287.2 C84.532,287.2 83.668,288.496 83.668,289.792 C83.668,291.328 84.868,292.432 86.452,292.336 Z M126.58,292.288 C127.156,292.24 128.116,292.24 129.124,292.24 C130.564,292.24 132.1,292.24 133.06,292.288 L133.156,292.288 L133.156,292.288 C134.884,292.288 135.748,291.184 135.748,290.08 C135.748,288.928 134.836,287.776 133.06,287.776 C132.772,287.776 132.436,287.632 132.436,287.104 C132.436,283.504 132.34,278.512 132.292,276.592 C132.1,270.496 127.924,268.336 123.844,268.336 C121.348,268.336 118.9,269.152 117.364,270.352 C117.22,270.448 117.172,270.496 117.124,270.496 C117.028,270.496 117.028,270.4 117.028,270.208 C117.076,268.96 117.172,266.512 117.172,263.392 C117.172,262.432 117.124,261.376 117.124,260.272 C117.076,257.392 114.724,256.24 112.084,256.192 C111.604,256.192 111.124,256.192 110.548,256.144 L110.404,256.144 L110.404,256.144 C108.916,256.144 108.196,257.392 108.196,258.64 C108.196,261.088 110.116,261.136 110.884,261.136 C111.892,261.136 112.18,261.52 112.18,262.384 C112.228,264.736 112.228,267.52 112.228,270.496 C112.228,276.064 112.18,282.208 112.084,287.104 C112.084,287.632 111.94,287.776 111.508,287.776 L111.076,287.776 L111.076,287.776 C109.492,287.776 108.676,288.928 108.676,290.08 L108.676577,290.127943 C108.685521,290.482997 108.833091,292.423273 111.268,292.288 C111.844,292.24 112.804,292.24 113.812,292.24 C115.252,292.24 116.788,292.24 117.748,292.288 L117.844,292.288 L117.844,292.288 C119.524,292.288 120.388,291.136 120.388,289.984 C120.388,289.12 119.86,287.68 117.748,287.776 C117.268,287.776 116.932,287.776 116.932,287.248 C116.897091,285.677091 116.88757,284.233124 116.884974,282.953028 L116.88459,280.535166 C116.886556,279.424852 116.895077,278.504615 116.932,277.84 C117.076,274.816 120.148,272.704 122.932,272.704 C125.14,272.704 127.204,274.048 127.396,277.312 C127.444,278.128 127.492,280.096 127.492,282.352 C127.492,283.888 127.444,285.568 127.444,287.056 C127.444,287.584 127.252,287.776 126.772,287.776 L126.388,287.776 L126.388,287.776 C124.804,287.776 123.988,288.928 123.988,290.08 L123.988577,290.127943 C123.997521,290.482997 124.145091,292.423273 126.58,292.288 Z M147.076,292.816 C149.524,292.816 152.068,292.048 153.796,290.656 C154.564,292.048 156.052,292.336 157.252,292.336 L157.357194,292.335463 C158.022491,292.326865 160.276,292.180706 160.276,289.696 C160.276,288.592 159.556,287.488 158.02,287.44 C157.23664,287.44 157.116832,286.997632 157.108501,285.390951 L157.108,285.184 C157.108,282.832 157.252,279.04 157.348,278.32 C157.396,277.648 157.444,277.024 157.444,276.448 C157.444,270.928 154.612,268.336 149.284,268.336 C144.436,268.336 140.212,270.88 140.212,273.184 C140.212,274.432 141.268,275.392 142.516,275.392 C143.092,275.392 143.764,275.152 144.292,274.528 C145.204,273.52 146.836,272.512 148.996,272.512 C152.26,272.512 152.404,274.96 152.404,275.536 C152.404,276.544 152.02,277.12 151.54,277.168 C150.772,277.216 146.644,278.128 143.332,279.28 C140.116,280.384 138.676,282.832 138.676,285.28 C138.676,288.976 141.796,292.816 147.076,292.816 Z M147.076,288.352 C144.628,288.352 143.332,286.864 143.332,285.376 C143.332,284.224 143.812,282.208 151.924,281.2 L151.972,281.2 C152.548,281.2 152.644,282.256 152.644,282.976 C152.644,286.384 150.964,288.352 147.076,288.352 Z M180.484,292.288 C181.06,292.24 182.02,292.24 183.028,292.24 C184.468,292.24 186.004,292.24 186.964,292.288 L187.06,292.288 L187.06,292.288 C188.788,292.288 189.652,291.184 189.652,290.08 C189.652,288.928 188.74,287.776 186.964,287.776 C186.676,287.776 186.34,287.632 186.34,287.104 C186.34,283.504 186.244,278.512 186.196,276.592 C186.004,270.496 181.828,268.336 177.748,268.336 C175.252,268.336 172.804,269.152 171.268,270.352 C171.028,270.544 170.884,270.688 170.788,270.688 C170.692,270.688 170.644,270.64 170.596,270.544 C169.828,269.296 168.244,268.816 166.276,268.816 L165.988,268.816 L165.988,268.816 C165.508,268.816 165.412,268.864 164.836,268.864 C163.252,268.864 162.484,270.112 162.484,271.36 C162.484,272.608 163.204,273.76 164.644,273.76 L164.932,273.76 L164.932,273.76 C165.7,273.76 166.084,274.384 166.084,274.96 C166.132,277.312 166.132,278.56 166.132,279.568 C166.132,281.392 166.084,282.208 165.988,287.104 C165.988,287.632 165.844,287.776 165.412,287.776 L164.98,287.776 L164.98,287.776 C163.396,287.776 162.58,288.928 162.58,290.08 L162.580577,290.127943 C162.589521,290.482997 162.737091,292.423273 165.172,292.288 C165.748,292.24 166.708,292.24 167.716,292.24 C169.156,292.24 170.692,292.24 171.652,292.288 L171.748,292.288 L171.748,292.288 C173.428,292.288 174.292,291.136 174.292,289.984 C174.292,289.12 173.764,287.68 171.652,287.776 C171.172,287.776 170.836,287.776 170.836,287.248 C170.801091,285.677091 170.79157,284.233124 170.788974,282.953028 L170.78859,280.535166 C170.790556,279.424852 170.799077,278.504615 170.836,277.84 C170.98,274.816 174.052,272.704 176.836,272.704 C179.044,272.704 181.108,274.048 181.3,277.312 C181.348,278.128 181.396,280.096 181.396,282.352 C181.396,283.888 181.348,285.568 181.348,287.056 C181.348,287.584 181.108,287.776 180.628,287.776 L180.292,287.776 L180.292,287.776 C178.708,287.776 177.892,288.928 177.892,290.08 L177.892577,290.127943 C177.901521,290.482997 178.049091,292.423273 180.484,292.288 Z M193.78,292.288 C194.356,292.24 195.316,292.24 196.324,292.24 C197.764,292.24 199.3,292.24 200.26,292.288 L200.356,292.288 L200.356,292.288 C202.036,292.288 202.9,291.136 202.9,290.032 C202.9,288.688 201.844,287.728 200.212,287.776 C199.636,287.68 199.492,287.728 199.492,287.152 C199.492,286.096 199.444,285.328 199.444,284.656 L199.4449,284.157755 C199.456876,281.243203 199.604,281.2 200.788,281.2 C201.172,281.2 201.556,281.248 201.748,281.44 C202.996,282.88 205.54,285.616 207.412,287.584 C207.508,287.68 207.508,287.728 207.508,287.824 C207.508,287.92 207.316,287.968 207.124,288.064 C206.308,288.496 205.876,289.36 205.876,290.176 C205.876,291.232 206.644,292.288 208.18,292.288 L208.42,292.288 L208.42,292.288 C208.996,292.24 209.908,292.24 210.916,292.24 C212.308,292.24 213.796,292.24 214.756,292.288 L214.804,292.288 C216.436,292.288 217.252,291.088 217.252,289.936 C217.252,288.64 216.244,287.728 214.852,287.776 C214.42,287.68 214.036,287.68 213.7,287.344 C211.732,285.424 207.652,281.68 205.588,279.616 C205.3,279.328 205.06,279.088 205.06,278.896 C205.06,278.752 205.204,278.608 205.444,278.464 C207.7,277.024 210.052,275.296 212.404,273.616 C212.836,273.328 213.316,273.328 213.796,273.28 L213.844,273.28 C215.332,273.28 216.1,272.176 216.1,271.072 C216.1,270.256 215.62,268.72 213.7,268.816 C213.065333,268.853333 212.227407,268.86163 211.344313,268.863473 L209.71225,268.86325 C208.846,268.861 208,268.852 207.316,268.816 L207.124,268.816 L207.124,268.816 C205.54,268.816 204.772,269.872 204.772,270.976 C204.772,271.6 205.012,272.224 205.54,272.704 C205.684,272.848 205.876,272.896 205.876,272.992 C205.876,273.088 201.988,276.256 201.7,276.448 C201.268,276.736 200.692,276.832 200.404,276.832 C200.068,276.832 199.636,276.592 199.636,276.16 L199.636888,276.103547 C199.64656,275.483062 199.732,269.861132 199.732,264.88 C199.732,263.104 199.732,261.472 199.684,260.128 C199.684,257.872 197.908,256.24 194.692,256.192 C194.212,256.192 193.732,256.192 193.156,256.144 L193.012,256.144 L193.012,256.144 C191.524,256.144 190.804,257.392 190.804,258.64 C190.804,261.088 192.724,261.136 193.492,261.136 C194.5,261.136 194.788,261.52 194.788,262.384 C194.836,264.784 194.836,267.664 194.836,270.688 C194.836,276.208 194.788,282.304 194.692,287.152 C194.692,287.632 194.356,287.776 193.972,287.776 L193.588,287.776 L193.588,287.776 C192.004,287.776 191.188,288.928 191.188,290.08 L191.188577,290.127943 C191.197521,290.482997 191.345091,292.423273 193.78,292.288 Z M235.348,304.528 C240.916,304.48 243.652,300.88 246.34,294.448 C248.836,288.496 252.532,279.712 254.932,274 C255.076,273.616 255.124,273.376 255.604,273.328 C257.092,273.232 257.812,272.128 257.812,271.072 C257.812,269.968 256.996,268.816 255.364,268.816 L255.22,268.816 L255.22,268.816 C254.644,268.852 253.906,268.861 253.1275,268.86325 L252.34,268.864 C251.284,268.864 250.18,268.864 249.316,268.816 L249.124,268.816 L249.124,268.816 C247.684,268.816 246.964,269.92 246.964,270.976 C246.964,272.128 247.684,273.232 249.124,273.232 C249.652,273.232 249.892,273.28 249.892,273.568 C249.892,273.808 245.476,286.048 244.9,286.048 C244.372,286.048 240.004,273.616 240.004,273.472 C240.004,273.232 240.196,273.184 240.628,273.136 C242.02,273.04 242.788,271.936 242.788,270.88 C242.788,269.824 242.068,268.816 240.58,268.816 L240.436,268.816 L240.436,268.816 C239.86,268.852 239.122,268.861 238.3435,268.86325 L237.556,268.864 C236.5,268.864 235.444,268.864 234.58,268.816 L234.388,268.816 L234.388,268.816 C232.852,268.816 232.084,269.968 232.084,271.072 C232.084,272.224 232.852,273.328 234.292,273.328 C234.82,273.328 235.012,273.808 235.156,274.144 C241.636,290.128 242.116,291.328 242.116,292 C242.116,292.192 242.068,292.384 242.02,292.528 C240.004,297.184 238.516,299.392 235.348,299.536 C233.812,299.584 233.188,300.784 233.188,301.984 C233.188,303.184 233.812,304.528 235.348,304.528 Z M272.692,292.72 C279.556,292.72 284.74,287.824 284.74,280.576 C284.74,273.568 279.556,268.432 272.692,268.432 C265.828,268.432 260.596,273.568 260.596,280.576 C260.596,287.824 265.828,292.72 272.692,292.72 Z M272.692,288.256 C268.708,288.256 265.444,285.28 265.444,280.576 C265.444,275.824 268.756,272.8 272.692,272.8 C276.628,272.8 279.892,275.824 279.892,280.576 C279.892,285.28 276.676,288.256 272.692,288.256 Z M298.948,292.768 C301.396,292.768 303.796,291.952 305.332,290.752 C305.572,290.56 305.716,290.416 305.812,290.416 C305.908,290.416 305.956,290.464 306.004,290.56 C306.772,291.808 308.356,292.288 310.324,292.288 L310.612,292.288 L310.612,292.288 C311.092,292.288 311.572,292.24 312.148,292.24 C313.732,292.24 314.548,290.944 314.548,289.696 C314.548,288.496 313.828,287.344 312.388,287.344 L311.86,287.344 L311.86,287.344 C310.852,287.344 310.516,286.96 310.516,286.096 C310.4808,284.7584 310.471413,283.782187 310.46891,283.015922 L310.468591,281.941133 C310.476826,279.819107 310.570545,279.319273 310.708,274.096 L310.708,273.904 L310.708,273.904 C310.708,270.016 308.164,268.816 305.284,268.816 L304.852,268.816 C303.124,268.816 302.308,269.968 302.308,271.168 C302.308,272.368 303.124,273.568 304.66,273.568 L304.708,273.568 C305.476,273.568 305.812,274.192 305.812,274.768 C305.86,276.88 305.908,278.608 305.908,279.952 C305.908,281.344 305.86,282.4 305.812,283.264 C305.62,286.288 302.644,288.4 299.956,288.4 C295.85488,288.4 295.646598,284.285978 295.636498,282.470499 L295.636,282.256 C295.636,280.192 295.732,276.832 295.78,274.144 L295.78,273.952 L295.78,273.952 C295.78,270.784 294.724,268.816 290.788,268.816 L289.876,268.816 C288.388,268.864 287.524,270.112 287.524,271.36 C287.524,272.512 288.244,273.568 289.828,273.568 C290.308,273.568 290.788,274.048 290.788,274.624 C290.788,276.4 290.74,278.416 290.74,280.192 C290.74,281.968 290.788,283.552 290.788,284.512 C290.932,290.608 294.964,292.768 298.948,292.768 Z M321.508,292.48 C323.908,292.48 324.916,290.32 324.916,289.072 C324.916,287.008 323.092,285.856 321.508,285.856 C320.164,285.856 318.148,286.768 318.148,289.12 C318.148,291.904 320.212,292.48 321.508,292.48 Z" id="Thankyou."></path>
        </g>
    </g>
</svg>
