<?xml version="1.0" encoding="UTF-8"?>
<svg width="153px" height="37px" viewBox="0 0 153 37" version="1.1" xmlns="http://www.w3.org/2000/svg" xmlns:xlink="http://www.w3.org/1999/xlink">
    <!-- Generator: Sketch 60 (88103) - https://sketch.com -->
    <title>Wedding</title>
    <desc>Created with Sketch.</desc>
    <g id="web" stroke="none" stroke-width="1" fill="none" fill-rule="evenodd">
        <g id="Artboard" transform="translate(-124.000000, -549.000000)" fill="#000000" fill-rule="nonzero">
            <path d="M147.382,575.856 C148.426,575.856 149.47,575.208 149.938,573.948 C151.45,569.772 155.338,558.468 157.462,552.276 C157.606,551.844 157.822,551.592 158.254,551.592 C158.83,551.592 159.046,551.628 159.514,551.628 L159.55,551.628 C160.162,551.628 160.45,551.16 160.45,550.656 C160.45,550.152 160.162,549.648 159.55,549.648 L159.514,549.648 C158.434,549.684 157.354,549.72 156.238,549.72 C155.302,549.72 154.366,549.684 153.394,549.648 L153.322,549.648 L153.322,549.648 C152.746,549.648 152.458,550.116 152.458,550.584 C152.458,551.088 152.782,551.628 153.394,551.628 C153.934,551.628 153.826,551.592 154.402,551.592 C154.87,551.592 155.122,551.808 155.122,552.096 C155.122,552.168 149.974,567.684 148.138,572.58 C147.922,573.192 147.598,573.516 147.274,573.516 L147.211777,573.515136 C146.752239,573.497018 146.487577,573.101239 143.35,564.516 C144.97,560.16 146.662,555.48 147.85,552.24 C148.066,551.628 148.21,551.592 149.794,551.592 C150.406,551.592 150.694,551.088 150.694,550.62 C150.694,550.116 150.406,549.648 149.794,549.648 L149.722,549.648 L149.722,549.648 C148.642,549.684 147.706,549.72 146.734,549.72 C145.942,549.72 145.114,549.684 144.142,549.648 L144.07,549.648 L144.07,549.648 C143.458,549.648 143.134,550.116 143.134,550.62 C143.134,551.412 143.71,551.592 144.106,551.592 C145.15,551.592 145.654,551.664 145.654,552.06 C145.654,552.708 143.026,559.944 142.27,561.96 C140.506,557.172 139.03,552.096 139.03,552.096 C139.03,551.772 139.39,551.592 140.578,551.592 C141.154,551.592 141.406,551.124 141.406,550.62 C141.406,550.152 141.118,549.648 140.506,549.648 L140.47,549.648 C139.57,549.678 138.745,549.683 137.974167,549.683833 L137.518,549.684 C136.618,549.684 135.79,549.684 134.926,549.648 L134.89,549.648 C134.278,549.648 133.99,550.152 133.99,550.656 C133.99,551.592 134.566,551.592 135.574,551.592 C136.15,551.592 136.582,551.664 136.798,552.312 C137.842,555.264 139.534,560.016 141.226,564.516 C138.058,573.3 137.95,573.552 137.338,573.552 C137.05,573.552 136.762,573.264 136.546,572.652 C134.998,568.476 129.526,552.636 129.526,552.06 C129.526,551.808 129.706,551.592 130.21,551.592 C130.786,551.592 130.714,551.628 131.254,551.628 C131.902,551.628 132.226,551.124 132.226,550.584 C132.226,550.116 131.902,549.648 131.254,549.648 L131.182,549.648 L131.182,549.648 C129.994,549.684 128.878,549.72 127.798,549.72 C126.898,549.72 126.034,549.684 125.17,549.648 L125.098,549.648 L125.098,549.648 C124.486,549.648 124.162,550.152 124.162,550.62 C124.162,551.124 124.486,551.628 125.134,551.628 C125.602,551.628 125.818,551.592 126.394,551.592 C126.826,551.592 127.114,551.88 127.258,552.348 C129.13,557.82 133.234,569.628 134.746,573.84 C135.25,575.172 136.294,575.856 137.338,575.856 C138.382,575.856 139.426,575.208 139.894,573.948 C140.434,572.508 141.226,569.808 142.27,567.072 C143.098,569.304 144.286,572.688 144.718,573.84 C145.222,575.172 146.302,575.856 147.382,575.856 Z M171.394,576.036 C175.93,576.036 178.45,573.3 178.45,572.472 C178.45,571.896 177.91,571.428 177.37,571.428 C177.118,571.428 176.866,571.536 176.65,571.752 C175.534,573.012 174.058,574.128 171.43,574.128 C167.974,574.128 165.382,571.716 165.382,567.792 C165.382,567.288 165.454,567.144 165.814,567.144 C166.606,567.144 169.666,567.18 172.366,567.18 C173.698,567.18 174.922,567.18 175.75,567.144 C177.586,567.072 178.378,566.064 178.378,564.732 C178.378,562.68 176.218,558.828 171.286,558.828 C167.038,558.828 163.258,562.284 163.258,567.54 C163.258,572.616 166.822,576.036 171.394,576.036 Z M171.583,565.415438 L168.637317,565.415022 C165.90989,565.408991 165.67,565.365767 165.67,565.056 C165.67,563.724 167.866,560.628 171.322,560.628 C174.994,560.628 176.254,563.328 176.254,564.372 C176.254,564.948 175.93,565.344 175.066,565.38 C174.31,565.407 172.987,565.41375 171.583,565.415438 Z M190.438,575.964 C192.598,575.964 194.938,574.992 196.45,572.94 C196.522,572.868 196.558,572.832 196.594,572.832 C196.702,572.832 196.738,572.976 196.774,573.192 C197.026,575.1 198.538,575.748 200.05,575.748 C200.518,575.748 201.49,575.64 201.49,574.632 C201.49,574.092 201.166,573.588 200.554,573.588 L200.518,573.588 C200.374,573.588 200.23,573.624 200.05,573.624 C199.258,573.624 198.646,573.192 198.646,571.464 L198.646469,565.570699 C198.6508,560.87088 198.6844,555.6024 198.718,552.78 L198.718,552.636 L198.718,552.636 C198.718,551.088 198.106,549.648 195.838,549.648 C195.514,549.648 195.01,549.684 194.65,549.684 C193.93,549.684 193.534,550.224 193.534,550.764 C193.534,551.232 193.858,551.7 194.542,551.7 L194.614,551.7 L194.614,551.7 C194.974,551.664 195.046,551.664 195.19,551.664 C196.63,551.664 196.63,552.276 196.63,554.724 C196.63,556.812 196.594,559.368 196.594,561.204 C196.594,561.672 196.558,561.852 196.486,561.852 C196.414,561.852 196.306,561.672 196.126,561.42 C194.902,559.836 192.742,558.828 190.438,558.828 C185.758,558.828 182.266,562.32 182.266,567.36 C182.266,572.58 185.758,575.964 190.438,575.964 Z M190.51,573.984 C186.91,573.984 184.39,571.464 184.39,567.36 C184.39,563.22 186.874,560.7 190.51,560.7 C193.93,560.7 196.594,563.328 196.594,567.36 C196.594,571.356 193.894,573.984 190.51,573.984 Z M212.722,575.964 C214.882,575.964 217.222,574.992 218.734,572.94 C218.806,572.868 218.842,572.832 218.878,572.832 C218.986,572.832 219.022,572.976 219.058,573.192 C219.31,575.1 220.822,575.748 222.334,575.748 C222.802,575.748 223.774,575.64 223.774,574.632 C223.774,574.092 223.45,573.588 222.838,573.588 L222.802,573.588 C222.658,573.588 222.514,573.624 222.334,573.624 C221.542,573.624 220.93,573.192 220.93,571.464 L220.930469,565.570699 C220.9348,560.87088 220.9684,555.6024 221.002,552.78 L221.002,552.636 L221.002,552.636 C221.002,551.088 220.39,549.648 218.122,549.648 C217.798,549.648 217.294,549.684 216.934,549.684 C216.214,549.684 215.818,550.224 215.818,550.764 C215.818,551.232 216.142,551.7 216.826,551.7 L216.898,551.7 L216.898,551.7 C217.258,551.664 217.33,551.664 217.474,551.664 C218.914,551.664 218.914,552.276 218.914,554.724 C218.914,556.812 218.878,559.368 218.878,561.204 C218.878,561.672 218.842,561.852 218.77,561.852 C218.698,561.852 218.59,561.672 218.41,561.42 C217.186,559.836 215.026,558.828 212.722,558.828 C208.042,558.828 204.55,562.32 204.55,567.36 C204.55,572.58 208.042,575.964 212.722,575.964 Z M212.794,573.984 C209.194,573.984 206.674,571.464 206.674,567.36 C206.674,563.22 209.158,560.7 212.794,560.7 C216.214,560.7 218.878,563.328 218.878,567.36 C218.878,571.356 216.178,573.984 212.794,573.984 Z M229.354,552.6 C230.974,552.6 231.154,551.16 231.154,550.872 C231.154,550.008 230.506,549.18 229.39,549.18 C228.67,549.18 227.662,549.72 227.662,550.872 C227.662,552.6 229.174,552.6 229.354,552.6 Z M227.05,575.60415 C227.914,575.568 228.922,575.532 229.93,575.532 C230.938,575.532 232.018,575.568 232.99,575.60415 L233.026,575.60415 C233.746,575.60415 234.106,575.1 234.106,574.596 C234.106,573.552 233.134,573.588 232.99,573.588 C232.45,573.624 232.306,573.624 231.73,573.624 C231.298,573.624 231.082,573.3 231.082,572.94 L231.082,570.132 L231.082,570.132 C231.082,567.504 231.118,564.768 231.154,562.248 L231.154,562.14 L231.154,562.14 C231.154,560.628 230.47,559.188 228.49,559.188 C227.662,559.188 227.77,559.152 227.086,559.152 C226.402,559.152 226.042,559.692 226.042,560.232 C226.042,560.7 226.366,561.204 227.014,561.204 L227.086,561.204 L227.086,561.204 C227.374,561.204 227.554,561.168 227.842,561.168 C228.706,561.204 229.066,561.78 229.066,562.824 C229.066,565.956 229.03,569.484 228.994,572.904 C228.994,573.372 228.778,573.624 228.346,573.624 C227.734,573.624 227.518,573.588 227.05,573.588 L227.014,573.588 C226.294,573.588 225.934,574.092 225.934,574.596 C225.934,575.64 226.906,575.60415 227.05,575.60415 Z M236.95,575.568 C237.778,575.532 238.678,575.496 239.578,575.496 C240.478,575.496 241.45,575.532 242.386,575.568 L242.422,575.568 C243.106,575.568 243.466,575.064 243.466,574.596 C243.466,574.02 243.034,573.588 242.386,573.624 C241.882,573.66 241.954,573.66 241.414,573.66 C240.982,573.66 240.766,573.444 240.766,573.048 C240.766,571.356 240.73,569.808 240.73,568.476 C240.73,567.18 240.766,566.1 240.766,565.416 C240.874,562.572 243.646,560.664 246.166,560.664 C248.182,560.664 250.09,561.888 250.27,564.876 C250.306,565.38 250.306,566.388 250.306,567.612 C250.306,569.304 250.306,571.356 250.27,573.012 C250.27,573.408 250.09,573.66 249.73,573.66 C249.154,573.66 249.082,573.624 248.65,573.624 L248.614,573.624 C247.93,573.624 247.57,574.128 247.57,574.632 C247.57,575.028 247.822,575.604 248.65,575.568 C249.478,575.532 250.342,575.496 251.242,575.496 C252.178,575.496 253.114,575.532 254.05,575.568 L254.086,575.568 C254.77,575.568 255.13,575.1 255.13,574.596 C255.13,574.092 254.77,573.624 254.086,573.624 L254.05,573.624 C253.546,573.624 253.546,573.66 253.006,573.66 C252.61,573.66 252.43,573.408 252.43,573.012 L252.43,571.284 L252.43,571.284 C252.43,568.692 252.394,565.74 252.358,564.552 C252.214,560.628 249.334,558.792 246.346,558.792 C244.33,558.792 242.278,559.62 241.018,561.24 C240.946,561.312 240.874,561.348 240.838,561.348 C240.73,561.348 240.694,561.276 240.658,561.168 C240.478,559.836 239.254,559.152 237.814,559.152 L236.77,559.152 C236.086,559.152 235.726,559.692 235.726,560.196 C235.726,560.7 236.05,561.204 236.698,561.204 L236.77,561.204 L236.77,561.204 C237.238,561.168 237.202,561.168 237.526,561.168 C238.39,561.204 238.714,561.852 238.714,562.788 C238.714,564.336 238.75,565.704 238.75,567.036 C238.75,568.908 238.714,570.78 238.678,573.048 C238.678,573.444 238.426,573.66 238.066,573.66 C237.49,573.66 237.382,573.624 236.95,573.624 L236.914,573.624 C236.23,573.624 235.87,574.128 235.87,574.632 C235.87,575.028 236.122,575.604 236.95,575.568 Z M265.606,585.216 C269.962,585.216 274.066,582.48 274.102,576.504 C274.102,574.742769 274.071325,571.018367 274.066606,567.850826 L274.066683,565.823957 C274.06856,564.73264 274.0756,563.8104 274.102,563.256 C274.138,561.816 274.678,561.276 275.398,561.24 L276.046,561.24 C276.622,561.24 276.91,560.736 276.91,560.232 C276.91,559.404 276.406,559.152 275.398,559.152 C273.562,559.152 272.446,560.34 272.338,561.708 C272.302,561.996 272.266,562.104 272.23,562.104 C272.194,562.104 272.086,561.888 271.87,561.6 C270.646,559.908 268.198,558.828 265.93,558.828 C261.25,558.828 257.722,562.32 257.722,567.396 C257.722,572.544 261.214,575.964 265.894,575.964 C268.054,575.964 270.322,574.956 271.762,573.12 C271.906,572.904 272.014,572.796 272.05,572.796 C272.086,572.796 272.086,572.904 272.086,573.228 L272.086,576.54 C272.05,581.364 268.882,583.2 265.75,583.2 C263.734,583.2 261.754,582.444 260.638,581.256 C260.422,581.04 260.17,580.932 259.918,580.932 C259.306,580.932 258.73,581.472 258.73,582.12 C258.73,583.596 262.834,585.216 265.606,585.216 Z M265.966,574.02 C262.366,574.02 259.846,571.5 259.846,567.396 C259.846,563.292 262.366,560.736 266.002,560.736 C269.53,560.736 272.086,563.292 272.086,567.396 C272.086,571.428 269.35,574.02 265.966,574.02 Z" id="Wedding"></path>
        </g>
    </g>
</svg>